<svg width="34" height="10" viewBox="0 0 34 10" fill="none" xmlns="http://www.w3.org/2000/svg">
<path d="M0.165649 6.10327V4.93726H6.51135V6.10327H0.165649ZM2.75549 8.70483V2.33569H3.92151V8.70483H2.75549Z" fill="#05CD99"/>
<path d="M8.12268 8.92749V8.03101L10.9352 5.0896C11.3102 4.69897 11.6012 4.37866 11.8082 4.12866C12.0153 3.87476 12.1598 3.64819 12.2418 3.44897C12.3278 3.24976 12.3707 3.03491 12.3707 2.80444V2.79272C12.3707 2.51538 12.3102 2.26929 12.1891 2.05444C12.0719 1.83569 11.902 1.66577 11.6793 1.54468C11.4567 1.41968 11.191 1.35718 10.8824 1.35718C10.5699 1.35718 10.2946 1.42163 10.0563 1.55054C9.81799 1.67944 9.63245 1.85913 9.49963 2.0896C9.36682 2.32007 9.30042 2.5896 9.30042 2.89819V2.92163L8.05823 2.91577L8.05237 2.90405C8.05627 2.38843 8.18127 1.93335 8.42737 1.53882C8.67346 1.14038 9.01526 0.829834 9.45276 0.607178C9.89026 0.380615 10.3922 0.267334 10.9586 0.267334C11.4821 0.267334 11.9489 0.37085 12.359 0.577881C12.7731 0.781006 13.0992 1.06421 13.3375 1.42749C13.5758 1.78687 13.6949 2.19897 13.6949 2.66382V2.6814C13.6949 3.00171 13.6364 3.31226 13.5192 3.61304C13.402 3.91382 13.1989 4.2439 12.9098 4.60327C12.6246 4.96265 12.2262 5.39624 11.7145 5.90405L9.58167 8.03101L9.92151 7.43921V8.03101L9.58752 7.80249H13.8297V8.92749H8.12268Z" fill="#05CD99"/>
<path d="M18.4762 9.13257C17.9254 9.13257 17.4371 9.0271 17.0114 8.81616C16.5856 8.60522 16.2457 8.31812 15.9918 7.95483C15.7379 7.58765 15.5895 7.17749 15.5465 6.72437L15.5406 6.64819H16.777L16.7828 6.69507C16.8219 6.94116 16.9156 7.16577 17.0641 7.3689C17.2164 7.57202 17.4156 7.73218 17.6617 7.84937C17.9078 7.96655 18.1832 8.02515 18.4879 8.02515C18.8356 8.02515 19.1422 7.94897 19.4078 7.79663C19.6735 7.64038 19.8805 7.42749 20.0289 7.15796C20.1813 6.88843 20.2574 6.57788 20.2574 6.22632V6.2146C20.2574 5.86694 20.1813 5.55835 20.0289 5.28882C19.8766 5.01929 19.6696 4.8103 19.4078 4.66187C19.1461 4.50952 18.8434 4.43335 18.4996 4.43335C18.2457 4.43335 18.0094 4.47241 17.7906 4.55054C17.5758 4.62476 17.3844 4.73804 17.2164 4.89038C17.1422 4.96069 17.0719 5.03687 17.0055 5.1189C16.9391 5.19702 16.8805 5.28491 16.8297 5.38257H15.693L16.1149 0.472412H21.0367V1.58569H17.152L16.8942 4.28101H16.9879C17.109 4.0896 17.2594 3.92749 17.4391 3.79468C17.6227 3.66187 17.8297 3.5603 18.0602 3.48999C18.2906 3.41968 18.5348 3.38452 18.7926 3.38452C19.3239 3.38452 19.7926 3.50562 20.1989 3.7478C20.609 3.98999 20.9313 4.32202 21.1656 4.7439C21.4 5.16577 21.5172 5.64819 21.5172 6.19116V6.20288C21.5172 6.7771 21.3864 7.28491 21.1246 7.72632C20.8668 8.16772 20.5094 8.51343 20.0524 8.76343C19.5992 9.00952 19.0739 9.13257 18.4762 9.13257Z" fill="#05CD99"/>
<path d="M24.8512 4.98999C24.4723 4.98999 24.1461 4.89624 23.8727 4.70874C23.6031 4.51733 23.3942 4.24976 23.2457 3.90601C23.0973 3.55835 23.0231 3.14819 23.0231 2.67554V2.66968C23.0231 2.18921 23.0973 1.7771 23.2457 1.43335C23.3942 1.0896 23.6031 0.823975 23.8727 0.636475C24.1461 0.448975 24.4723 0.355225 24.8512 0.355225C25.2301 0.355225 25.5563 0.448975 25.8297 0.636475C26.1071 0.823975 26.318 1.0896 26.4625 1.43335C26.611 1.7771 26.6852 2.18921 26.6852 2.66968V2.67554C26.6852 3.14819 26.611 3.55835 26.4625 3.90601C26.318 4.24976 26.1071 4.51733 25.8297 4.70874C25.5563 4.89624 25.2301 4.98999 24.8512 4.98999ZM24.8512 4.20483C25.1285 4.20483 25.3434 4.07007 25.4957 3.80054C25.652 3.53101 25.7301 3.15601 25.7301 2.67554V2.66968C25.7301 2.1853 25.652 1.8103 25.4957 1.54468C25.3434 1.27515 25.1285 1.14038 24.8512 1.14038C24.5778 1.14038 24.3649 1.27515 24.2125 1.54468C24.0602 1.8103 23.984 2.1853 23.984 2.66968V2.67554C23.984 3.15601 24.0602 3.53101 24.2125 3.80054C24.3649 4.07007 24.5778 4.20483 24.8512 4.20483ZM25.7301 8.92749H24.6344L30.3649 0.472412H31.4606L25.7301 8.92749ZM31.2321 9.04468C30.8531 9.04468 30.527 8.95093 30.2535 8.76343C29.9801 8.57202 29.7692 8.30444 29.6207 7.96069C29.4762 7.61304 29.4039 7.20093 29.4039 6.72437V6.71851C29.4039 6.24194 29.4762 5.83179 29.6207 5.48804C29.7692 5.14429 29.9801 4.87866 30.2535 4.69116C30.527 4.50366 30.8531 4.40991 31.2321 4.40991C31.611 4.40991 31.9371 4.50366 32.2106 4.69116C32.484 4.87866 32.693 5.14429 32.8375 5.48804C32.986 5.83179 33.0602 6.24194 33.0602 6.71851V6.72437C33.0602 7.20093 32.986 7.61304 32.8375 7.96069C32.693 8.30444 32.484 8.57202 32.2106 8.76343C31.9371 8.95093 31.611 9.04468 31.2321 9.04468ZM31.2321 8.25952C31.5094 8.25952 31.7242 8.12476 31.8766 7.85522C32.0289 7.58569 32.1051 7.20874 32.1051 6.72437V6.71851C32.1051 6.23804 32.0289 5.86499 31.8766 5.59937C31.7242 5.32983 31.5094 5.19507 31.2321 5.19507C30.9547 5.19507 30.7399 5.32983 30.5875 5.59937C30.4352 5.86499 30.359 6.23804 30.359 6.71851V6.72437C30.359 7.20874 30.4352 7.58569 30.5875 7.85522C30.7399 8.12476 30.9547 8.25952 31.2321 8.25952Z" fill="#05CD99"/>
</svg>
