<svg width="7892" height="7878" viewBox="0 0 7892 7878" fill="none" xmlns="http://www.w3.org/2000/svg">
<g opacity="0.4">
<g opacity="0.4" filter="url(#filter0_f_106_508)">
<ellipse cx="3900.61" cy="3955.41" rx="944.024" ry="530.059" transform="rotate(8.9498 3900.61 3955.41)" fill="#FF001F"/>
</g>
<mask id="mask0_106_508" style="mask-type:alpha" maskUnits="userSpaceOnUse" x="2434" y="3144" width="3070" height="1575">
<path d="M5458.1 3331.8L5503.51 4707.81L2530.35 4718.22L2434.06 3144.89L5458.1 3331.8Z" fill="url(#paint0_linear_106_508)"/>
</mask>
<g mask="url(#mask0_106_508)">
<mask id="mask1_106_508" style="mask-type:alpha" maskUnits="userSpaceOnUse" x="2642" y="3268" width="2535" height="1250">
<path d="M2642.77 4387.52C2669.09 3906.56 2702.81 3293.02 2701.46 3268.93L5176.07 3398.77L5117.37 4517.36L2642.77 4387.52Z" fill="url(#paint1_linear_106_508)"/>
</mask>
<g mask="url(#mask1_106_508)">
<path d="M3843.4 3525.72C4122.5 3540.36 4348.12 3724.95 4340.02 3879.39C4331.92 4033.84 4208.3 4230.59 3908.85 4214.88C3760.45 4207.09 3574.86 4300.88 3402.59 4214.72C3227.23 4127.01 3279.09 3918.51 3283.18 3840.6C3291.28 3686.15 3564.29 3511.07 3843.4 3525.72Z" fill="#FF001F"/>
<g filter="url(#filter1_f_106_508)">
<path d="M3839.36 3538.77C4138.69 3554.48 4345.15 3713.8 4338.18 3846.55C4331.22 3979.31 4209.14 4147.6 3909.81 4131.9C3761.47 4124.11 3576.53 4206.86 3403.77 4131.5C3227.9 4054.79 3278.19 3875.87 3281.71 3808.9C3288.67 3676.15 3540.03 3523.07 3839.36 3538.77Z" fill="#FF001F"/>
</g>
<g filter="url(#filter2_f_106_508)">
<path d="M3848.43 3539.25C4183.92 3556.85 4414.44 3752.01 4405.86 3915.68C4397.27 4079.35 4259.42 4287.5 3923.93 4269.9C3757.67 4261.18 3549.05 4379.5 3355.8 4287.63C3159.08 4194.11 3217.24 3959.44 3221.58 3876.87C3230.16 3713.2 3512.93 3521.64 3848.43 3539.25Z" fill="#FF001F"/>
</g>
<g filter="url(#filter3_f_106_508)">
<path d="M3886.13 3560.67C4298.24 3622.55 5372.72 4421.38 4620.15 4044.39C3867.58 3667.4 4112.2 4103.26 3709.84 4082.15C3510.45 4071.68 3519.99 4595.75 3288.1 4487.93C3052.05 4378.17 3120.59 4119.79 3125.66 4023.16C3135.71 3831.6 3408.73 3488.98 3886.13 3560.67Z" fill="#FFC4C4"/>
</g>
<g filter="url(#filter4_f_106_508)">
<path d="M4021.62 3645.51C4454.85 3668.24 5396.62 4375.74 4805.04 4121.9C4213.46 3868.05 4558.22 4499.77 4124.99 4477.04C3910.3 4465.78 3645.88 4523.57 3395.71 4416.93C3141.04 4308.36 3213.48 4056.03 3218.44 3961.55C3228.26 3774.26 3588.38 3622.78 4021.62 3645.51Z" fill="#FFC4C4"/>
</g>
<g filter="url(#filter5_f_106_508)">
<path d="M4186.31 3729.11C4634.02 3752.61 5006.2 4025.26 4996.15 4216.81C3815.23 3507.39 4741.3 4603.18 4293.6 4579.69C4071.74 4568.05 3798.52 4627.02 3539.94 4517.8C3276.71 4406.61 3351.43 4148.56 3356.5 4051.93C3366.55 3860.37 3738.61 3705.62 4186.31 3729.11Z" fill="#FFC4C4"/>
</g>
<g filter="url(#filter6_f_106_508)">
<path d="M3784.72 3565.89C4176.47 3586.44 4835.78 4015.88 4633.03 4022.78C4430.28 4029.69 4133.18 4197.78 3741.43 4177.22C3547.31 4167.04 3440.56 4443.87 3214.93 4336.38C2985.24 4226.95 3052.33 3968.49 3057.4 3871.86C3067.45 3680.31 3392.98 3545.33 3784.72 3565.89Z" fill="#FF1C1C"/>
</g>
</g>
</g>
<mask id="mask2_106_508" style="mask-type:alpha" maskUnits="userSpaceOnUse" x="4008" y="2738" width="2255" height="1702">
<path d="M4008.51 3280.01L5492.92 2738.52L6262.99 3121.52L5412.09 4439.37L4582.77 4324.52L4008.51 3280.01Z" fill="black"/>
</mask>
<g mask="url(#mask2_106_508)">
<mask id="mask3_106_508" style="mask-type:alpha" maskUnits="userSpaceOnUse" x="3715" y="2359" width="2471" height="2086">
<path d="M6185.91 4444.76L5619 2359.14L3715.43 2985.97C3772.93 3441.36 3891.14 4353.39 3903.96 4358.36C3916.77 4363.33 5430.6 4418.03 6185.91 4444.76Z" fill="url(#paint2_linear_106_508)"/>
</mask>
<g mask="url(#mask3_106_508)">
<mask id="mask4_106_508" style="mask-type:alpha" maskUnits="userSpaceOnUse" x="3700" y="2778" width="2292" height="1826">
<path d="M5690.64 2778.63C5819.07 3379.51 5982.79 4146.06 5991.32 4175.52L4001.03 4603.93L3700.35 3207.04L5690.64 2778.63Z" fill="url(#paint3_linear_106_508)"/>
</mask>
<g mask="url(#mask4_106_508)">
<path d="M5063.01 4132.66C4906.73 4166.3 4729.03 3979.45 4687.51 3786.58C4646 3593.71 4654.78 3326.98 4822.45 3290.89C4905.54 3273.01 4978.67 3122.36 5098.06 3197.16C5219.6 3273.3 5253.37 3541.27 5274.32 3638.56C5315.83 3831.43 5219.28 4099.02 5063.01 4132.66Z" fill="#FF6060"/>
<g filter="url(#filter7_f_106_508)">
<path d="M5062.77 4129.29C4883.2 4167.94 4703.28 3956.8 4657.19 3742.71C4611.11 3528.63 4618.39 3233.09 4797.96 3194.44C4886.95 3175.28 4962.99 3003.34 5091.66 3087.2C5222.65 3172.56 5261.03 3469.82 5284.27 3577.81C5330.36 3791.9 5242.34 4090.63 5062.77 4129.29Z" fill="#FF6060"/>
</g>
<g filter="url(#filter8_f_106_508)">
<path d="M5050.03 4098.17C4988.52 4199.92 4636.32 3950.08 4592.58 3746.88C4548.85 3543.69 4571.7 3259.76 4784.4 3213.98C4889.8 3191.29 4983.33 3003.7 5130.33 3077.93C5279.98 3153.5 5314.35 3454.05 5336.41 3556.55C5380.15 3759.75 5191.54 4174.7 5050.03 4098.17Z" fill="#FF6060"/>
</g>
<g filter="url(#filter9_f_106_508)">
<path d="M5012.36 4022C4770.18 4024.34 4523.9 3814.05 4475.03 3586.98C4426.15 3359.91 4491.03 3089.1 4716.32 3040.61C4827.96 3016.58 4918.21 2738.2 5075.19 2822.73C5234.99 2908.77 5270.95 3225.07 5295.61 3339.62C5344.48 3566.69 5292.9 4019.3 5012.36 4022Z" fill="#FF6060"/>
</g>
<g filter="url(#filter10_f_106_508)">
<path d="M4887.29 4043.85C4709.03 3980.04 4294.42 3765.15 4244.08 3531.26C4193.74 3297.38 4769.21 3015.31 5011.79 2963.09C5132 2937.21 5258.75 2816.54 5426.64 2902.26C5597.54 2989.53 5497.16 3316.74 5424.83 3598.31C5328.78 3972.2 5085.66 4193.43 4887.29 4043.85Z" fill="#FF6060"/>
</g>
<g filter="url(#filter11_f_106_508)">
<path d="M5030.87 3947.58C4780.19 4001.54 4192.43 3614.05 4140.94 3374.84C4089.45 3135.62 4540.06 2931.72 4790.75 2877.76C4914.97 2851.02 5206.68 2588.17 5379.91 2675.53C5556.26 2764.45 5511.96 2965.37 5537.93 3086.04C5589.42 3325.25 5281.56 3893.62 5030.87 3947.58Z" fill="#FF6060"/>
</g>
<g filter="url(#filter12_f_106_508)">
<path d="M5030.87 3947.58C4780.19 4001.54 4192.43 3614.05 4140.94 3374.84C4089.45 3135.62 4540.06 2931.72 4790.75 2877.76C4914.97 2851.02 5206.68 2588.17 5379.91 2675.53C5556.26 2764.45 5511.96 2965.37 5537.93 3086.04C5589.42 3325.25 5281.56 3893.62 5030.87 3947.58Z" fill="#FF6060"/>
</g>
<g filter="url(#filter13_f_106_508)">
<path d="M5030.87 3947.58C4780.19 4001.54 4192.43 3614.05 4140.94 3374.84C4089.45 3135.62 4540.06 2931.72 4790.75 2877.76C4914.97 2851.02 5206.68 2588.17 5379.91 2675.53C5556.26 2764.45 5511.96 2965.37 5537.93 3086.04C5589.42 3325.25 5281.56 3893.62 5030.87 3947.58Z" fill="#FF6060"/>
</g>
<g filter="url(#filter14_f_106_508)">
<path d="M5030.87 3947.58C4780.19 4001.54 4180.54 3649.87 4129.05 3410.65C4077.56 3171.44 4540.06 2931.72 4790.75 2877.76C4914.97 2851.02 5206.68 2588.17 5379.91 2675.53C5556.26 2764.45 5511.96 2965.37 5537.93 3086.04C5589.42 3325.25 5281.56 3893.62 5030.87 3947.58Z" fill="#FF6060"/>
</g>
<g filter="url(#filter15_f_106_508)">
<path d="M4997.29 4077.73C4777.94 4124.95 4521.26 3850.36 4469.76 3611.15C4418.27 3371.93 4477.22 3088.66 4696.57 3041.44C4805.26 3018.04 4962.94 2922.02 5117.72 3013.35C5275.29 3106.31 5282.13 3379.2 5308.11 3499.88C5359.6 3739.09 5216.64 4030.52 4997.29 4077.73Z" fill="#FF6060"/>
</g>
</g>
</g>
</g>
</g>
<defs>
<filter id="filter0_f_106_508" x="2713.63" y="3160.71" width="2373.97" height="1589.41" filterUnits="userSpaceOnUse" color-interpolation-filters="sRGB">
<feFlood flood-opacity="0" result="BackgroundImageFix"/>
<feBlend mode="normal" in="SourceGraphic" in2="BackgroundImageFix" result="shape"/>
<feGaussianBlur stdDeviation="125.379" result="effect1_foregroundBlur_106_508"/>
</filter>
<filter id="filter1_f_106_508" x="3264.1" y="3529.35" width="1082.56" height="642.387" filterUnits="userSpaceOnUse" color-interpolation-filters="sRGB">
<feFlood flood-opacity="0" result="BackgroundImageFix"/>
<feBlend mode="normal" in="SourceGraphic" in2="BackgroundImageFix" result="shape"/>
<feGaussianBlur stdDeviation="4.15481" result="effect1_foregroundBlur_106_508"/>
</filter>
<filter id="filter2_f_106_508" x="3181.17" y="3509.03" width="1254" height="842.818" filterUnits="userSpaceOnUse" color-interpolation-filters="sRGB">
<feFlood flood-opacity="0" result="BackgroundImageFix"/>
<feBlend mode="normal" in="SourceGraphic" in2="BackgroundImageFix" result="shape"/>
<feGaussianBlur stdDeviation="14.5418" result="effect1_foregroundBlur_106_508"/>
</filter>
<filter id="filter3_f_106_508" x="3071.04" y="3509.41" width="1851.43" height="1034.69" filterUnits="userSpaceOnUse" color-interpolation-filters="sRGB">
<feFlood flood-opacity="0" result="BackgroundImageFix"/>
<feBlend mode="normal" in="SourceGraphic" in2="BackgroundImageFix" result="shape"/>
<feGaussianBlur stdDeviation="20.7741" result="effect1_foregroundBlur_106_508"/>
</filter>
<filter id="filter4_f_106_508" x="3093.02" y="3531.06" width="2013.91" height="1063.87" filterUnits="userSpaceOnUse" color-interpolation-filters="sRGB">
<feFlood flood-opacity="0" result="BackgroundImageFix"/>
<feBlend mode="normal" in="SourceGraphic" in2="BackgroundImageFix" result="shape"/>
<feGaussianBlur stdDeviation="56.09" result="effect1_foregroundBlur_106_508"/>
</filter>
<filter id="filter5_f_106_508" x="3064.53" y="3448.38" width="2210.19" height="1415.34" filterUnits="userSpaceOnUse" color-interpolation-filters="sRGB">
<feFlood flood-opacity="0" result="BackgroundImageFix"/>
<feBlend mode="normal" in="SourceGraphic" in2="BackgroundImageFix" result="shape"/>
<feGaussianBlur stdDeviation="139.186" result="effect1_foregroundBlur_106_508"/>
</filter>
<filter id="filter6_f_106_508" x="2915.64" y="3435.02" width="1884.04" height="1054.99" filterUnits="userSpaceOnUse" color-interpolation-filters="sRGB">
<feFlood flood-opacity="0" result="BackgroundImageFix"/>
<feBlend mode="normal" in="SourceGraphic" in2="BackgroundImageFix" result="shape"/>
<feGaussianBlur stdDeviation="64.3996" result="effect1_foregroundBlur_106_508"/>
</filter>
<filter id="filter7_f_106_508" x="4629.97" y="3061.02" width="669.676" height="1076.15" filterUnits="userSpaceOnUse" color-interpolation-filters="sRGB">
<feFlood flood-opacity="0" result="BackgroundImageFix"/>
<feBlend mode="normal" in="SourceGraphic" in2="BackgroundImageFix" result="shape"/>
<feGaussianBlur stdDeviation="1.63575" result="effect1_foregroundBlur_106_508"/>
</filter>
<filter id="filter8_f_106_508" x="4562.68" y="3049.2" width="791.609" height="1083.89" filterUnits="userSpaceOnUse" color-interpolation-filters="sRGB">
<feFlood flood-opacity="0" result="BackgroundImageFix"/>
<feBlend mode="normal" in="SourceGraphic" in2="BackgroundImageFix" result="shape"/>
<feGaussianBlur stdDeviation="5.72512" result="effect1_foregroundBlur_106_508"/>
</filter>
<filter id="filter9_f_106_508" x="4443.35" y="2790.45" width="884.928" height="1247.93" filterUnits="userSpaceOnUse" color-interpolation-filters="sRGB">
<feFlood flood-opacity="0" result="BackgroundImageFix"/>
<feBlend mode="normal" in="SourceGraphic" in2="BackgroundImageFix" result="shape"/>
<feGaussianBlur stdDeviation="8.17875" result="effect1_foregroundBlur_106_508"/>
</filter>
<filter id="filter10_f_106_508" x="4196.81" y="2827.79" width="1368.03" height="1307.46" filterUnits="userSpaceOnUse" color-interpolation-filters="sRGB">
<feFlood flood-opacity="0" result="BackgroundImageFix"/>
<feBlend mode="normal" in="SourceGraphic" in2="BackgroundImageFix" result="shape"/>
<feGaussianBlur stdDeviation="22.0826" result="effect1_foregroundBlur_106_508"/>
</filter>
<filter id="filter11_f_106_508" x="4012.92" y="2533.86" width="1654.66" height="1542.76" filterUnits="userSpaceOnUse" color-interpolation-filters="sRGB">
<feFlood flood-opacity="0" result="BackgroundImageFix"/>
<feBlend mode="normal" in="SourceGraphic" in2="BackgroundImageFix" result="shape"/>
<feGaussianBlur stdDeviation="61.9789" result="effect1_foregroundBlur_106_508"/>
</filter>
<filter id="filter12_f_106_508" x="4012.92" y="2533.86" width="1654.66" height="1542.76" filterUnits="userSpaceOnUse" color-interpolation-filters="sRGB">
<feFlood flood-opacity="0" result="BackgroundImageFix"/>
<feBlend mode="normal" in="SourceGraphic" in2="BackgroundImageFix" result="shape"/>
<feGaussianBlur stdDeviation="61.9789" result="effect1_foregroundBlur_106_508"/>
</filter>
<filter id="filter13_f_106_508" x="4012.92" y="2533.86" width="1654.66" height="1542.76" filterUnits="userSpaceOnUse" color-interpolation-filters="sRGB">
<feFlood flood-opacity="0" result="BackgroundImageFix"/>
<feBlend mode="normal" in="SourceGraphic" in2="BackgroundImageFix" result="shape"/>
<feGaussianBlur stdDeviation="61.9789" result="effect1_foregroundBlur_106_508"/>
</filter>
<filter id="filter14_f_106_508" x="4001.12" y="2533.86" width="1666.46" height="1543.22" filterUnits="userSpaceOnUse" color-interpolation-filters="sRGB">
<feFlood flood-opacity="0" result="BackgroundImageFix"/>
<feBlend mode="normal" in="SourceGraphic" in2="BackgroundImageFix" result="shape"/>
<feGaussianBlur stdDeviation="61.9789" result="effect1_foregroundBlur_106_508"/>
</filter>
<filter id="filter15_f_106_508" x="4401.64" y="2923.97" width="967.695" height="1209.81" filterUnits="userSpaceOnUse" color-interpolation-filters="sRGB">
<feFlood flood-opacity="0" result="BackgroundImageFix"/>
<feBlend mode="normal" in="SourceGraphic" in2="BackgroundImageFix" result="shape"/>
<feGaussianBlur stdDeviation="25.3541" result="effect1_foregroundBlur_106_508"/>
</filter>
<linearGradient id="paint0_linear_106_508" x1="5166.34" y1="4131.89" x2="2867.66" y2="4130.77" gradientUnits="userSpaceOnUse">
<stop stop-color="#C4C4C4" stop-opacity="0"/>
<stop offset="0.203125" stop-color="#C4C4C4"/>
<stop offset="0.554366" stop-color="#C4C4C4"/>
<stop offset="1" stop-color="#C4C4C4" stop-opacity="0"/>
</linearGradient>
<linearGradient id="paint1_linear_106_508" x1="3726.8" y1="3500.42" x2="3703.28" y2="4294.05" gradientUnits="userSpaceOnUse">
<stop stop-color="#C4C4C4"/>
<stop offset="1" stop-color="#C4C4C4" stop-opacity="0"/>
</linearGradient>
<linearGradient id="paint2_linear_106_508" x1="5649.01" y1="3150.78" x2="4070.34" y2="3422.62" gradientUnits="userSpaceOnUse">
<stop stop-color="#C4C4C4" stop-opacity="0"/>
<stop offset="0.430547" stop-color="#C4C4C4"/>
<stop offset="0.498519" stop-color="#C4C4C4"/>
<stop offset="1" stop-color="#C4C4C4" stop-opacity="0"/>
</linearGradient>
<linearGradient id="paint3_linear_106_508" x1="5156.71" y1="4315.43" x2="4704.51" y2="2975.93" gradientUnits="userSpaceOnUse">
<stop stop-color="#C4C4C4"/>
<stop offset="1" stop-color="#C4C4C4" stop-opacity="0"/>
</linearGradient>
</defs>
</svg>
