<svg width="29" height="29" viewBox="0 0 29 29" fill="none" xmlns="http://www.w3.org/2000/svg">
<rect x="0.169922" y="0.636108" width="27.872" height="27.872" rx="4.64534" fill="#F4F7FE"/>
<g clip-path="url(#clip0_138_1867)">
<path d="M9.39837 12.7536H9.55321C10.1494 12.7536 10.6371 13.2413 10.6371 13.8375V19.257C10.6371 19.8532 10.1494 20.341 9.55321 20.341H9.39837C8.80221 20.341 8.31445 19.8532 8.31445 19.257V13.8375C8.31445 13.2413 8.80221 12.7536 9.39837 12.7536ZM13.734 9.50183C14.3302 9.50183 14.8179 9.98959 14.8179 10.5857V19.257C14.8179 19.8532 14.3302 20.341 13.734 20.341C13.1379 20.341 12.6501 19.8532 12.6501 19.257V10.5857C12.6501 9.98959 13.1379 9.50183 13.734 9.50183ZM18.0697 15.6956C18.6658 15.6956 19.1536 16.1834 19.1536 16.7795V19.257C19.1536 19.8532 18.6658 20.341 18.0697 20.341C17.4735 20.341 16.9858 19.8532 16.9858 19.257V16.7795C16.9858 16.1834 17.4735 15.6956 18.0697 15.6956Z" fill="#E82033"/>
</g>
<defs>
<clipPath id="clip0_138_1867">
<rect width="18.5814" height="18.5814" fill="white" transform="translate(4.44336 5.63074)"/>
</clipPath>
</defs>
</svg>
