<svg width="29" height="29" viewBox="0 0 29 29" fill="none" xmlns="http://www.w3.org/2000/svg">
<rect x="0.810059" y="0.746643" width="27.872" height="27.872" rx="4.64534" fill="#FFF3F4"/>
<g clip-path="url(#clip0_138_1933)">
<path d="M10.2336 12.897H10.3884C10.9846 12.897 11.4723 13.3848 11.4723 13.9809V19.4005C11.4723 19.9966 10.9846 20.4844 10.3884 20.4844H10.2336C9.63742 20.4844 9.14966 19.9966 9.14966 19.4005V13.9809C9.14966 13.3848 9.63742 12.897 10.2336 12.897ZM14.5692 9.64526C15.1654 9.64526 15.6531 10.133 15.6531 10.7292V19.4005C15.6531 19.9966 15.1654 20.4844 14.5692 20.4844C13.9731 20.4844 13.4853 19.9966 13.4853 19.4005V10.7292C13.4853 10.133 13.9731 9.64526 14.5692 9.64526ZM18.9049 15.839C19.501 15.839 19.9888 16.3268 19.9888 16.923V19.4005C19.9888 19.9966 19.501 20.4844 18.9049 20.4844C18.3087 20.4844 17.821 19.9966 17.821 19.4005V16.923C17.821 16.3268 18.3087 15.839 18.9049 15.839Z" fill="#E82033"/>
</g>
<defs>
<clipPath id="clip0_138_1933">
<rect width="18.5814" height="18.5814" fill="white" transform="translate(5.27856 5.77417)"/>
</clipPath>
</defs>
</svg>
