<svg width="537" height="144" viewBox="0 0 537 144" fill="none" xmlns="http://www.w3.org/2000/svg">
<path d="M27.3665 72.4909C15.6653 72.7641 4.96578 87.3443 1.57227 95.7333L2.39901 143.4H535.282V1.71741C528.621 11.7566 517.375 37.1767 473.065 25.254C463.602 25.0171 413.247 25.8689 402.946 24.4184C392.347 22.926 366.297 33.1089 362.66 34.8361C346.154 42.6736 313.016 31.7141 306.451 34.042C297.972 37.0492 297.932 36.088 291.714 42.032C278.386 54.7735 256.042 59.2138 251.229 60.5352C244.069 62.5009 195.284 51.034 186.148 53.7674C172.618 57.8155 130.793 75.0403 121.426 74.2328C102.619 72.6115 80.6616 66.0886 76.2884 70.3417C61.5287 84.6962 43.2165 72.1209 27.3665 72.4909Z" fill="url(#paint0_linear_138_1910)"/>
<path d="M1.57227 97.3304C22.3384 51.8963 53.985 86.4968 68.6033 76.4233C91.4189 60.701 106.519 81.0218 132.295 73.2145C145.879 69.0998 178.105 56.282 188.044 54.8155C205.416 52.2526 239.993 65.7667 257.757 60.8291C302.513 48.3888 292.376 26.1023 328.033 36.7208C363.69 47.3394 373.83 22.6851 406.488 25.5023C439.146 28.3194 465.738 24.6863 477.302 26.9692C508.624 33.1529 522.887 27.9162 535.682 1.71741" stroke="#2C0D10" stroke-width="2" stroke-linecap="round" stroke-linejoin="round"/>
<defs>
<linearGradient id="paint0_linear_138_1910" x1="268.427" y1="1.71741" x2="268.427" y2="143.4" gradientUnits="userSpaceOnUse">
<stop stop-color="#D3C4C5"/>
<stop offset="1" stop-color="#FFF2F4" stop-opacity="0"/>
</linearGradient>
</defs>
</svg>
