<svg width="54" height="54" viewBox="0 0 54 54" fill="none" xmlns="http://www.w3.org/2000/svg">
<rect width="54" height="54" rx="27" fill="#E82033"/>
<g clip-path="url(#clip0_138_1236)">
<path d="M24.5 21.5H21.5" stroke="white" stroke-width="1.5" stroke-linecap="round" stroke-linejoin="round"/>
<path d="M19.5 23.5V29.5" stroke="white" stroke-width="1.5" stroke-linecap="round" stroke-linejoin="round"/>
<path d="M24.5 31.5H21.5" stroke="white" stroke-width="1.5" stroke-linecap="round" stroke-linejoin="round"/>
<path d="M19.5 36V33.5" stroke="white" stroke-width="1.5" stroke-linecap="round" stroke-linejoin="round"/>
<path d="M19.5 19.5V17" stroke="white" stroke-width="1.5" stroke-linecap="round" stroke-linejoin="round"/>
<path d="M32.0555 33.5V36" stroke="white" stroke-width="1.5" stroke-linecap="round" stroke-linejoin="round"/>
<path d="M33.75 36.0001L30.25 36" stroke="white" stroke-width="1.5" stroke-linecap="round" stroke-linejoin="round"/>
<path d="M35 28H29C28.4477 28 28 28.4477 28 29V32.5C28 33.0523 28.4477 33.5 29 33.5H35C35.5523 33.5 36 33.0523 36 32.5V29C36 28.4477 35.5523 28 35 28Z" stroke="white" stroke-width="1.5" stroke-linecap="round" stroke-linejoin="round"/>
<path d="M32.0555 22.5V25" stroke="white" stroke-width="1.5" stroke-linecap="round" stroke-linejoin="round"/>
<path d="M33.75 25.0001L30.25 25" stroke="white" stroke-width="1.5" stroke-linecap="round" stroke-linejoin="round"/>
<path d="M35 17H29C28.4477 17 28 17.4477 28 18V21.5C28 22.0523 28.4477 22.5 29 22.5H35C35.5523 22.5 36 22.0523 36 21.5V18C36 17.4477 35.5523 17 35 17Z" stroke="white" stroke-width="1.5" stroke-linecap="round" stroke-linejoin="round"/>
<path d="M19.5 33.5C20.6046 33.5 21.5 32.6046 21.5 31.5C21.5 30.3954 20.6046 29.5 19.5 29.5C18.3954 29.5 17.5 30.3954 17.5 31.5C17.5 32.6046 18.3954 33.5 19.5 33.5Z" stroke="white" stroke-width="1.5" stroke-linecap="round" stroke-linejoin="round"/>
<path d="M19.5 23.5C20.6046 23.5 21.5 22.6046 21.5 21.5C21.5 20.3954 20.6046 19.5 19.5 19.5C18.3954 19.5 17.5 20.3954 17.5 21.5C17.5 22.6046 18.3954 23.5 19.5 23.5Z" stroke="white" stroke-width="1.5" stroke-linecap="round" stroke-linejoin="round"/>
</g>
<defs>
<clipPath id="clip0_138_1236">
<rect width="24" height="24" fill="white" transform="translate(15 15)"/>
</clipPath>
</defs>
</svg>
