<svg width="54" height="54" viewBox="0 0 54 54" fill="none" xmlns="http://www.w3.org/2000/svg">
<rect width="54" height="54" rx="27" fill="#E82033"/>
<path d="M34 25V22.5618C34 22.0313 33.7893 21.5226 33.4142 21.1476L30.8525 18.5858C30.4774 18.2107 29.9687 18 29.4382 18H22C21.4696 18 20.9609 18.2107 20.5858 18.5858C20.2107 18.9609 20 19.4696 20 20V22" stroke="white" stroke-width="1.5" stroke-linecap="round" stroke-linejoin="round"/>
<path d="M22 32H32" stroke="white" stroke-width="1.5" stroke-linecap="round" stroke-linejoin="round"/>
<path d="M36 34C36 34.5304 35.7893 35.0391 35.4142 35.4142C35.0391 35.7893 34.5304 36 34 36H20C19.4696 36 18.9609 35.7893 18.5858 35.4142C18.2107 35.0391 18 34.5304 18 34V24C18 23.4696 18.2107 22.9609 18.5858 22.5858C18.9609 22.2107 19.4696 22 20 22H24.4706C24.6336 22 24.7942 22.0399 24.9383 22.1161C25.0824 22.1924 25.2056 22.3027 25.2973 22.4375L26.7432 24.5625C26.8349 24.6973 26.9582 24.8076 27.1023 24.8839C27.2464 24.9601 27.407 25 27.57 25H34C34.5304 25 35.0391 25.2107 35.4142 25.5858C35.7893 25.9609 36 26.4696 36 27V34Z" stroke="white" stroke-width="1.5" stroke-linecap="round" stroke-linejoin="round"/>
</svg>
