<svg width="54" height="54" viewBox="0 0 54 54" fill="none" xmlns="http://www.w3.org/2000/svg">
<rect width="54" height="54" rx="27" fill="#E82033"/>
<path d="M27.0001 37.2248C31.0785 37.2248 34.3847 33.9186 34.3847 29.8402C34.3847 25.7618 31.0785 22.4556 27.0001 22.4556C22.9217 22.4556 19.6155 25.7618 19.6155 29.8402C19.6155 33.9186 22.9217 37.2248 27.0001 37.2248Z" stroke="white" stroke-width="1.5" stroke-linecap="round" stroke-linejoin="round"/>
<path d="M26.9999 32.6805C28.5685 32.6805 29.8401 31.4089 29.8401 29.8402C29.8401 28.2716 28.5685 27 26.9999 27C25.4313 27 24.1597 28.2716 24.1597 29.8402C24.1597 31.4089 25.4313 32.6805 26.9999 32.6805Z" stroke="white" stroke-width="1.5" stroke-linecap="round" stroke-linejoin="round"/>
<path d="M27.467 22.4685L31.1131 17.2597C31.2179 17.1101 31.3572 16.9879 31.5192 16.9036C31.6812 16.8192 31.8612 16.7752 32.0438 16.7751H36.0869C36.2947 16.7751 36.4986 16.8322 36.6762 16.94C36.8539 17.0478 36.9986 17.2022 37.0946 17.3866C37.1906 17.5709 37.2341 17.7781 37.2206 17.9854C37.207 18.1928 37.1368 18.3925 37.0176 18.5628L32.5407 24.9583" stroke="white" stroke-width="1.5" stroke-linecap="round" stroke-linejoin="round"/>
<path d="M26.533 22.4685L22.887 17.2597C22.7822 17.1101 22.6429 16.9879 22.4809 16.9036C22.3189 16.8192 22.1389 16.7751 21.9563 16.7751H17.9132C17.7054 16.7751 17.5015 16.8322 17.3239 16.94C17.1462 17.0478 17.0015 17.2022 16.9055 17.3866C16.8095 17.5709 16.766 17.7781 16.7795 17.9854C16.7931 18.1928 16.8633 18.3925 16.9825 18.5628L21.4594 24.9583" stroke="white" stroke-width="1.5" stroke-linecap="round" stroke-linejoin="round"/>
</svg>
