<svg width="54" height="54" viewBox="0 0 54 54" fill="none" xmlns="http://www.w3.org/2000/svg">
<rect width="54" height="54" rx="27" fill="#E82033"/>
<path d="M29.2943 27.5736H24.7055C23.4379 27.5736 22.4111 26.5468 22.4111 25.2792V22.9848C22.4111 21.7172 23.4379 20.6904 24.7055 20.6904H29.2943C30.5619 20.6904 31.5887 21.7172 31.5887 22.9848V25.2792C31.5887 26.5468 30.5619 27.5736 29.2943 27.5736Z" stroke="white" stroke-width="1.5" stroke-linecap="round" stroke-linejoin="round"/>
<path d="M32.736 37.8983H21.2641C19.3632 37.8983 17.8225 36.3576 17.8225 34.4567C17.8225 32.5558 19.3632 31.0151 21.2641 31.0151H32.736C34.6369 31.0151 36.1776 32.5558 36.1776 34.4567C36.1776 36.3576 34.6369 37.8983 32.736 37.8983Z" stroke="white" stroke-width="1.5" stroke-linecap="round" stroke-linejoin="round"/>
<path d="M21.8374 33.4508C21.2374 33.4508 20.8374 33.851 20.8374 34.451C20.8374 35.051 21.2374 35.4508 21.8374 35.4508C22.4374 35.4508 22.8374 35.051 22.8374 34.451C22.8374 33.851 22.4374 33.4508 21.8374 33.4508Z" fill="white"/>
<path d="M25.2791 33.4623C24.6791 33.4623 24.2791 33.8621 24.2791 34.4621C24.2791 35.0621 24.6791 35.4623 25.2791 35.4623C25.879 35.4623 26.2791 35.0621 26.2791 34.4621C26.2791 33.8621 25.879 33.4623 25.2791 33.4623Z" fill="white"/>
<path d="M28.7148 33.4567C28.1149 33.4567 27.7148 33.8565 27.7148 34.4565C27.7148 35.0565 28.1149 35.4563 28.7148 35.4563C29.3148 35.4563 29.7148 35.0565 29.7148 34.4565C29.7148 33.8565 29.3148 33.4567 28.7148 33.4567Z" fill="white"/>
<path d="M32.1567 33.4567C31.5567 33.4567 31.1565 33.8565 31.1565 34.4565C31.1565 35.0565 31.5567 35.4563 32.1567 35.4563C32.7567 35.4563 33.1565 35.0565 33.1565 34.4565C33.1565 33.8565 32.7567 33.4567 32.1567 33.4567Z" fill="white"/>
<path d="M29.2943 20.6904V18.2527C29.2943 17.0642 28.2676 16.1017 26.9999 16.1017C25.7323 16.1017 24.7056 17.0642 24.7056 18.2527V20.6904" stroke="white" stroke-width="1.5" stroke-linecap="round" stroke-linejoin="round"/>
</svg>
