<svg width="22" height="17" viewBox="0 0 22 17" fill="none" xmlns="http://www.w3.org/2000/svg">
<path d="M16.0338 1.22327C16.1988 0.797515 16.8012 0.797514 16.9662 1.22327L17.9564 3.77834C18.0072 3.90943 18.1109 4.01307 18.242 4.06387L20.797 5.0541C21.2228 5.2191 21.2228 5.82152 20.797 5.98652L18.242 6.97675C18.1109 7.02755 18.0072 7.13119 17.9564 7.26228L16.9662 9.81735C16.8012 10.2431 16.1988 10.2431 16.0338 9.81735L15.0436 7.26228C14.9928 7.13119 14.8891 7.02755 14.758 6.97675L12.203 5.98652C11.7772 5.82152 11.7772 5.2191 12.203 5.0541L14.758 4.06387C14.8891 4.01307 14.9928 3.90943 15.0436 3.77834L16.0338 1.22327Z" fill="url(#paint0_linear_124_883)"/>
<path d="M7.53379 10.1827C7.69879 9.7569 8.30121 9.7569 8.46621 10.1827L9.03748 11.6567C9.08828 11.7878 9.19192 11.8914 9.32301 11.9422L10.797 12.5135C11.2228 12.6785 11.2228 13.2809 10.797 13.4459L9.32301 14.0172C9.19192 14.068 9.08828 14.1716 9.03748 14.3027L8.46621 15.7767C8.30121 16.2025 7.69879 16.2025 7.53379 15.7767L6.96252 14.3027C6.91172 14.1716 6.80808 14.068 6.67699 14.0172L5.20296 13.4459C4.77721 13.2809 4.7772 12.6785 5.20296 12.5135L6.67699 11.9422C6.80808 11.8914 6.91172 11.7878 6.96252 11.6567L7.53379 10.1827Z" fill="url(#paint1_linear_124_883)"/>
<path d="M2.53379 3.20296C2.69879 2.7772 3.30121 2.7772 3.46621 3.20296L3.75817 3.9563C3.80897 4.08738 3.91262 4.19103 4.0437 4.24183L4.79704 4.53379C5.2228 4.69879 5.2228 5.30121 4.79704 5.46621L4.0437 5.75817C3.91262 5.80897 3.80897 5.91262 3.75817 6.0437L3.46621 6.79704C3.30121 7.2228 2.69879 7.2228 2.53379 6.79704L2.24183 6.0437C2.19103 5.91262 2.08738 5.80897 1.9563 5.75817L1.20296 5.46621C0.777204 5.30121 0.777205 4.69879 1.20296 4.53379L1.9563 4.24183C2.08738 4.19103 2.19103 4.08738 2.24183 3.9563L2.53379 3.20296Z" fill="url(#paint2_linear_124_883)"/>
<defs>
<linearGradient id="paint0_linear_124_883" x1="16.5" y1="0.0203094" x2="35.5581" y2="12.8898" gradientUnits="userSpaceOnUse">
<stop stop-color="#FF5858"/>
<stop offset="1" stop-color="#AF1212"/>
</linearGradient>
<linearGradient id="paint1_linear_124_883" x1="8" y1="8.97969" x2="21.8604" y2="18.3393" gradientUnits="userSpaceOnUse">
<stop stop-color="#FF5858"/>
<stop offset="1" stop-color="#AF1212"/>
</linearGradient>
<linearGradient id="paint2_linear_124_883" x1="3" y1="2" x2="13.3953" y2="9.01972" gradientUnits="userSpaceOnUse">
<stop stop-color="#FF5858"/>
<stop offset="1" stop-color="#AF1212"/>
</linearGradient>
</defs>
</svg>
