<svg width="137" height="68" viewBox="0 0 137 68" fill="none" xmlns="http://www.w3.org/2000/svg">
<path d="M1.15308 45.7617C1.63064 47.1154 2.91164 48.1326 4.29696 48.1326C5.74092 48.1326 7.28974 46.9953 7.28974 45.04C7.28974 41.6525 1.44288 42.9995 1.44288 38.5718C1.44288 36.0408 3.5296 34.8071 5.67269 34.8071C6.51786 34.8071 7.86428 35.0998 8.52677 35.7482C8.51944 36.5155 8.5341 37.4565 8.5341 37.4565C8.05429 36.184 7.0659 35.4211 6.01606 35.4211C4.78862 35.4211 3.61248 36.1428 3.52283 37.9414C3.35481 41.2172 9.40352 40.0975 9.40352 44.2726C9.40352 47.0731 6.73719 48.7398 4.31162 48.7398C3.4422 48.7398 1.75975 48.3248 1.15308 47.6037C1.15308 46.7596 1.15308 45.7617 1.15308 45.7617Z" fill="#49161B"/>
<path d="M107.359 41.1755H101.802V42.3883H107.359V41.1755Z" fill="#49161B"/>
<path d="M22.6731 41.2246C22.6731 41.2246 22.6731 47.3461 22.6731 47.9262C22.6218 48.2408 22.1059 48.5019 22.1059 48.5019C22.9849 48.5058 25.0282 48.5058 25.6196 48.5019C25.6196 48.5019 25.0766 48.2155 25.0547 47.9262C25.0547 47.2124 25.0547 36.3831 25.0547 35.6749C25.0766 35.3902 25.6196 35.1004 25.6196 35.1004C25.0276 35.0942 22.9849 35.0942 22.1059 35.1004C22.1059 35.1004 22.6223 35.3631 22.6708 35.6749C22.6708 36.2618 22.6731 40.5745 22.6731 40.5745C21.6988 40.5644 17.9533 40.5644 16.9796 40.5745C16.9796 40.5745 16.9796 36.2618 16.9796 35.6749C17.0309 35.3631 17.5468 35.1004 17.5468 35.1004C16.6728 35.0942 14.6295 35.0942 14.0308 35.1004C14.0308 35.1004 14.5709 35.3902 14.598 35.6749C14.598 36.3836 14.598 47.213 14.598 47.9336C14.5715 48.216 14.0308 48.5025 14.0308 48.5025C14.6346 48.5064 16.6728 48.5064 17.5468 48.5025C17.5468 48.5025 17.0303 48.2408 16.9796 47.9268C16.9796 47.3472 16.9796 41.2252 16.9796 41.2252C18.3649 41.2122 21.29 41.2122 22.6731 41.2246Z" fill="#49161B"/>
<path d="M95.8482 40.9025C95.8482 40.9025 95.8482 36.2566 95.8482 35.6668C95.8967 35.3624 96.4104 35.0996 96.4104 35.0996C95.5336 35.0934 93.4931 35.0934 92.9011 35.0996C92.9011 35.0996 93.4345 35.3844 93.4587 35.6668C93.4587 36.3829 93.4616 47.2123 93.4616 47.9255C93.4345 48.2153 92.9011 48.5012 92.9011 48.5012C93.4931 48.5023 95.5336 48.5023 96.4104 48.5012C96.4104 48.5012 95.8967 48.2328 95.8482 47.9255C95.8482 47.3436 95.8482 40.9025 95.8482 40.9025Z" fill="#49161B"/>
<path d="M112.823 48.5019C112.823 48.5019 113.367 48.2155 113.386 47.9262C113.386 47.2124 113.386 36.3797 113.386 35.6676C113.367 35.3851 112.821 35.1004 112.821 35.1004C113.42 35.0942 115.458 35.0942 116.325 35.1004C116.325 35.1004 115.821 35.3631 115.763 35.6676C115.763 36.2573 115.763 40.9032 115.763 40.9032C115.763 40.9032 115.763 47.2931 115.763 47.88L115.782 47.8823C116.858 47.924 118.567 47.7605 119.637 47.7757C119.954 47.7757 120.523 47.6753 120.708 47.4492C120.691 47.7266 120.621 48.2042 120.457 48.4985C120.457 48.4985 113.42 48.503 112.823 48.5019Z" fill="#49161B"/>
<path d="M54.6589 44.0076C54.3251 43.5971 47.1634 35.0935 47.1634 35.0935C47.1634 35.0935 45.225 35.0935 44.7012 35.0935C44.7012 35.0935 45.2075 35.2142 45.5463 35.9032C45.5463 35.9032 45.5294 47.346 45.5294 47.9256C45.473 48.2402 44.9622 48.5012 44.9622 48.5012C45.8412 48.5024 46.0899 48.5024 46.6887 48.5012C46.6887 48.5012 46.1553 48.2148 46.131 47.9256C46.131 47.2118 46.1412 37.6882 46.1412 37.6882C46.1412 37.6882 46.0363 36.9987 46.5697 37.6882C47.2153 38.4894 56.0425 48.9811 56.0425 48.9811C56.0425 48.9811 56.0476 36.3965 56.0476 35.6788C56.0837 35.4064 56.617 35.1239 56.617 35.1239C56.0278 35.111 55.1218 35.111 54.2405 35.1239C54.2405 35.1239 54.7592 35.3782 54.8156 35.6788C54.8156 36.2708 54.8156 44.007 54.8156 44.007" fill="#49161B"/>
<path d="M35.4726 34.6707C35.4726 34.6707 40.5132 47.4531 40.7934 47.8912C41.059 48.3355 41.4948 48.5052 41.4948 48.5052C41.0127 48.5075 38.546 48.5075 38.0515 48.5052C38.042 48.4652 38.4925 48.2786 38.3442 47.8963C38.0031 46.9846 37.2334 45.1995 36.898 44.2337H32.4268C32.1026 45.1262 31.2845 47.4689 31.1385 47.9121C31.0071 48.3502 31.3381 48.4218 31.4869 48.5052C31.1266 48.5075 29.7069 48.5075 29.3049 48.5052C29.3049 48.5052 29.8186 48.3186 29.8941 47.9121C29.9624 47.4994 35.0571 34.6707 35.0571 34.6707M32.6597 43.5836H36.6533L34.6517 38.4782L32.6597 43.5836Z" fill="#49161B"/>
<path d="M129.775 34.669C129.775 34.669 134.822 47.4487 135.09 47.8918C135.363 48.3299 135.802 48.503 135.802 48.503C135.31 48.5081 132.848 48.503 132.353 48.503C132.344 48.4658 132.794 48.2718 132.658 47.8946C132.3 46.9852 131.538 45.2001 131.194 44.2343H126.73C126.416 45.1246 125.579 47.4667 125.443 47.9127C125.311 48.3508 125.64 48.419 125.783 48.503C125.433 48.5081 123.962 48.5081 123.611 48.503C123.611 48.503 124.117 48.3192 124.193 47.9065C124.256 47.4994 129.353 34.6685 129.353 34.6685M126.962 43.5763H130.963L128.959 38.4771L126.962 43.5763Z" fill="#49161B"/>
<path d="M71.3331 47.3826C70.427 47.912 69.2796 48.0462 68.2039 48.0462C65.8172 48.0462 63.2873 45.637 63.2873 41.7562C63.2873 37.7959 65.4276 35.6037 68.0065 35.6037C69.7454 35.6037 71.796 36.6068 72.6941 38.3546C72.6941 38.3546 72.6942 36.8605 72.6913 36.2008C71.717 35.7892 70.4264 34.9937 68.0888 34.9937C64.1291 34.9937 60.9243 37.2743 60.9243 41.8498C60.9243 45.8337 63.7153 48.6512 67.706 48.6512C69.5694 48.6512 71.2198 48.4651 72.7223 47.8911C72.7223 47.8911 72.7223 44.2917 72.7223 43.5762C72.7466 43.296 73.2873 43.009 73.2873 43.009C72.6902 43.0039 71.6437 43.0039 70.7715 43.009C70.7715 43.009 71.2829 43.2695 71.3319 43.5762C71.3331 44.1682 71.3331 47.3826 71.3331 47.3826Z" fill="#49161B"/>
<path d="M81.205 47.9256C81.2321 48.2154 81.7649 48.5012 81.7649 48.5012C81.1785 48.5024 80.0898 48.4832 79.8045 48.5024C79.5197 48.4832 78.8285 48.5024 78.2336 48.5012C78.2336 48.5012 78.767 48.2148 78.7941 47.9256C78.7941 47.2118 78.7941 36.3824 78.7941 35.6669C78.767 35.3844 78.2336 35.0997 78.2336 35.0997C78.9672 35.0935 81.9695 35.0997 81.9695 35.0997C84.7086 35.0997 86.7964 36.4044 86.7964 38.3823C86.7964 40.659 84.6505 41.6976 84.0929 41.9411C84.6629 42.2789 85.3474 43.1139 85.6102 43.4815C86.3381 44.5212 86.9081 45.6049 87.2537 46.1709C88.4298 48.1511 89.0997 48.336 89.0997 48.336C88.2906 48.5881 87.526 48.6614 87.049 48.5469C85.4438 48.1669 83.9243 42.8534 82.7753 42.4689C82.4319 42.3482 81.2044 42.3662 81.2044 42.3662M81.205 41.7229C81.6019 41.7562 82.3738 41.8323 83.1265 41.6282C84.5242 41.229 85.0796 40.1425 85.0796 38.6157C85.0796 37.2738 84.3709 35.9482 83.0386 35.6849C82.0428 35.5039 81.8703 35.5327 81.205 35.6737V41.7229Z" fill="#49161B"/>
<path d="M18.7502 64.9723V67.6048H19.2954V67.7824H17.3914V67.6093H17.883V62.3618H17.3914V62.1909H19.2954V62.3618H18.7502V64.8003H20.8978V62.3618H20.3695V62.1909H22.2594V62.3618H21.7695V67.6048H22.2594V67.7824H20.3695V67.6048H20.8978V64.9723" fill="#49161B"/>
<path d="M32.2943 67.6048H32.8959V62.3618H32.3698C32.0022 62.3618 31.9239 62.4453 31.5906 63.9738H31.408V62.1887H35.2628V63.9738H35.0875C34.7514 62.4453 34.6612 62.3618 34.3004 62.3618H33.7743V67.6048H34.3833V67.7824H32.2943" fill="#49161B"/>
<path d="M37.7126 67.7824V67.6048H38.1947V62.3618H37.7126V62.1887H41.8257V63.9862H41.6431C41.2146 62.4706 41.073 62.3618 40.6789 62.3618H39.0715V64.8004H39.6996C40.1134 64.8004 40.313 64.5461 40.4545 63.6767H40.6423V66.0859H40.4545C40.3136 65.2204 40.1134 64.9672 39.6996 64.9672H39.0715V67.6048H40.5008C41.073 67.6048 41.2388 67.3866 41.7158 65.7149H41.8985V67.7824" fill="#49161B"/>
<path d="M46.0556 67.6047H47.2588C47.7922 67.6047 47.9455 67.5145 48.4203 65.5445H48.608V67.7829H44.6968V67.6053H45.1839V62.3623H44.6968V62.1892H46.8641V62.3623H46.0556" fill="#49161B"/>
<path d="M51.1791 65.6805C51.5152 67.1927 51.827 67.7362 52.6112 67.7362C53.3493 67.7362 53.9283 67.2479 53.9283 66.555C53.9283 64.9571 50.9209 65.5784 50.9209 63.6592C50.9209 62.7024 51.6589 62.0557 52.7595 62.0557C53.3662 62.0557 53.8703 62.1977 54.2819 62.3753V64.0037H54.0992C54.0992 64.0037 54.0186 63.7043 53.8144 63.0672C53.6126 62.4188 53.2202 62.2367 52.6969 62.2367C51.9764 62.2367 51.465 62.712 51.465 63.3034C51.465 63.9123 51.8935 64.0753 52.9845 64.4903C54.1826 64.9351 54.6111 65.2418 54.6111 66.1355C54.6111 67.1487 53.7536 67.9104 52.5047 67.9104C52.0322 67.9104 51.3505 67.6962 50.9998 67.4588V65.6799" fill="#49161B"/>
<path d="M64.0198 64.5693H64.9163L64.8165 64.9916H64.826C65.033 64.726 65.3933 64.4695 65.8319 64.4695C66.3286 64.4695 66.6382 64.7069 66.4871 65.3975L66.0123 67.6461H66.3484L66.3241 67.7825H65.0189L65.0533 67.6461H65.4062L65.9125 65.3254C66.0123 64.8518 65.9007 64.695 65.6007 64.695C65.2551 64.695 64.8655 64.9916 64.7291 65.6541L64.3006 67.6461H64.6704L64.6439 67.7825H63.3364L63.3629 67.6461H63.7085L64.3271 64.7069H63.9933" fill="#49161B"/>
<path d="M69.6376 67.7823L69.7182 67.3904H69.7086C69.526 67.6802 69.2626 67.8872 68.8341 67.8872C68.2303 67.8872 67.782 67.2872 68.016 66.1776C68.2472 65.0844 68.9193 64.4698 69.5671 64.4698C69.8885 64.4698 70.1129 64.6429 70.1884 64.9524H70.2054L70.4997 63.5429H70.1879L70.229 63.4014H71.1278L70.224 67.6458H70.5183L70.4991 67.7823M68.9875 67.7445C69.4109 67.7445 69.747 67.2478 69.964 66.2357C70.2149 65.0996 70.0464 64.6423 69.6331 64.6423C69.2502 64.6423 68.9289 64.9524 68.6706 66.2357C68.413 67.3887 68.5787 67.7445 68.9875 67.7445Z" fill="#49161B"/>
<path d="M59.7832 65.7171L60.0025 64.6949C60.3577 64.5636 60.6796 64.47 61.0151 64.47C61.8067 64.47 62.0768 64.8872 61.9967 65.2796L61.4949 67.6466H61.7994L61.7656 67.783H60.8961L61.0151 67.231H61.0078C60.7665 67.6172 60.3526 67.8896 59.9044 67.8896C59.3394 67.8896 59.0152 67.5507 59.1325 67.0072C59.3586 65.9004 60.5911 66.2218 61.3145 65.8361L61.4633 65.1725C61.5485 64.7705 61.3709 64.6098 61.0253 64.6098C60.5866 64.6098 60.4118 64.8359 59.9247 65.7177M61.2829 65.9996C60.4941 66.3396 59.9557 66.0949 59.7634 67.0066C59.6636 67.483 59.8097 67.6578 60.1406 67.6578C60.608 67.646 61.027 67.1791 61.1781 66.4817L61.2829 65.9996Z" fill="#49161B"/>
<path d="M27.008 62.0562C28.2253 62.0562 29.3405 63.2114 29.3405 64.9863C29.3405 66.7652 28.2253 67.916 27.008 67.916C25.7828 67.916 24.6726 66.7652 24.6726 64.9863C24.6726 63.2114 25.7828 62.0595 27.008 62.0562ZM27.008 67.7406C27.9016 67.7406 28.3251 67.1063 28.3251 64.9863C28.3251 62.8703 27.9016 62.2371 27.008 62.2371C26.107 62.2371 25.683 62.8703 25.683 64.9863C25.683 67.1063 26.107 67.7406 27.008 67.7406Z" fill="#49161B"/>
<path d="M75.8335 67.7824V67.6048H76.3201V62.3618H75.8335V62.1887H78.1908C79.5418 62.1887 80.0244 62.836 80.0244 63.5396C80.0244 64.3205 79.4059 64.8635 78.2393 64.9357L80.1682 67.6043H80.5674V67.7819H79.2818L77.2143 64.9351H77.1901V67.6037H77.8063V67.7813M77.1895 64.8111H77.6648C78.6289 64.8111 79.1014 64.3408 79.1014 63.5396C79.1014 62.9724 78.8189 62.3613 77.9326 62.3613H77.1901L77.1895 64.8111Z" fill="#49161B"/>
<path d="M89.9015 65.6805C90.2324 67.1814 90.5369 67.7362 91.333 67.7362C92.0688 67.7362 92.6434 67.2479 92.6434 66.555C92.6434 64.952 89.6455 65.5784 89.6455 63.6592C89.6455 62.7024 90.3909 62.0557 91.4819 62.0557C92.0908 62.0557 92.5926 62.1977 93.0059 62.3753V63.9963H92.8328L92.5385 63.0672C92.3344 62.4188 91.9375 62.2344 91.4159 62.2344C90.7027 62.2344 90.1935 62.712 90.1935 63.3034C90.1935 63.9123 90.6175 64.0702 91.7108 64.4874C92.9089 64.9357 93.3273 65.2424 93.3273 66.1361C93.3273 67.1493 92.4725 67.911 91.2259 67.911C90.7534 67.911 90.0813 67.6967 89.7205 67.4594V65.6805" fill="#49161B"/>
<path d="M98.0367 62.0776C99.2568 62.0776 100.367 63.2188 100.367 65.0061C100.367 66.7833 99.2568 67.9284 98.0367 67.9284C96.8189 67.9284 95.7036 66.7839 95.7036 65.0061C95.7042 63.2188 96.8189 62.0776 98.0367 62.0776ZM98.0367 67.7514C98.9405 67.7514 99.3662 67.1199 99.3662 65.0061C99.3662 62.8873 98.9321 62.249 98.0367 62.249C97.138 62.249 96.7117 62.8873 96.7117 65.0061C96.7123 67.1199 97.1385 67.7514 98.0367 67.7514Z" fill="#49161B"/>
<path d="M102.632 67.7823V67.6047H103.129V62.3617H102.632V62.1841H104.994C106.353 62.1841 106.828 62.8364 106.828 63.535C106.828 64.321 106.221 64.8634 105.043 64.9355L106.976 67.6041H107.371V67.7817H106.086L104.03 64.935H103.998V67.6036H104.609V67.7812M103.999 64.8109H104.479C105.44 64.8109 105.91 64.3311 105.91 63.5344C105.91 62.9723 105.623 62.3611 104.737 62.3611H103.999V64.8109Z" fill="#49161B"/>
<path d="M110.14 67.6047H110.753V62.3617H110.213C109.849 62.3617 109.762 62.4423 109.446 63.9663H109.259V62.1841H113.113V63.9663H112.936C112.602 62.4423 112.507 62.3617 112.149 62.3617H111.623V67.6047H112.232V67.7823H110.14" fill="#49161B"/>
<path d="M115.852 65.6805C116.189 67.1814 116.5 67.7345 117.282 67.7345C118.022 67.7345 118.604 67.2479 118.604 66.555C118.604 64.952 115.594 65.5784 115.594 63.6541C115.594 62.7024 116.332 62.0557 117.44 62.0557C118.049 62.0557 118.546 62.1977 118.957 62.3753V63.9963H118.777L118.492 63.0598C118.288 62.4182 117.886 62.2344 117.365 62.2344C116.651 62.2344 116.145 62.712 116.145 63.3034C116.145 63.9123 116.568 64.0702 117.66 64.4874C118.865 64.9357 119.274 65.2424 119.274 66.1361C119.274 67.1493 118.434 67.911 117.18 67.911C116.702 67.911 116.028 67.6967 115.674 67.4594V65.6805" fill="#49161B"/>
<path d="M82.5859 67.7824V67.6048H83.0658V62.3618H82.5859V62.1887H86.6889V63.9811H86.5231C86.0726 62.4701 85.9508 62.3618 85.5421 62.3618H83.9448V64.7925H84.5779C84.9822 64.7925 85.1722 64.5427 85.3374 63.6767H85.5133V66.0859H85.3374C85.1722 65.2204 84.9822 64.9672 84.5779 64.9672H83.9448V67.6048H85.369C85.9362 67.6048 86.1166 67.3855 86.5863 65.7104H86.7689V67.783" fill="#49161B"/>
<path d="M76.0228 15.0326C73.8188 15.8569 70.724 17.2727 68.9023 19.6864C68.6931 19.9616 68.3858 19.9892 68.1158 19.6611C67.6117 19.0397 64.9939 16.3204 61.2901 16.3204C60.3671 16.3204 58.9914 16.5499 58.0808 16.8318C58.0808 18.1184 58.0808 23.1494 58.0808 25.9218C58.6458 25.504 59.9144 25.067 61.1367 25.067C63.0115 25.067 66.6228 26.6796 67.9382 27.8839C68.4298 28.3254 68.8025 28.3 69.2383 27.8839C71.179 25.9939 74.6347 24.3284 79.0399 24.3363C79.0399 22.7847 79.0399 13.2509 79.0399 13.2509C79.0399 13.2509 62.8412 13.2509 61.0978 13.2509C63.3063 12.4244 66.4091 11.0052 68.211 8.59376C68.4304 8.31241 68.7348 8.2955 68.9976 8.61913C69.509 9.23934 72.1319 11.9536 75.8334 11.9592C76.7372 11.9592 78.127 11.7275 79.0404 11.4439C79.0404 10.1634 79.0404 5.12793 79.0404 2.35335C78.4704 2.78129 77.2018 3.21149 75.9845 3.21149C74.1047 3.21149 70.5002 1.59444 69.1757 0.391806C68.6937 -0.0541793 68.3018 -0.0158393 67.8829 0.391806C65.9371 2.28569 62.4843 3.94559 58.0814 3.94559C58.0814 5.48878 58.0814 15.0321 58.0814 15.0321C58.0814 15.0321 74.2772 15.0326 76.0228 15.0326Z" fill="#49161B"/>
<path d="M136.269 55.1292H0.951172V55.6236H136.269V55.1292Z" fill="#49161B"/>
</svg>
