<svg width="138" height="52" viewBox="0 0 138 52" fill="none" xmlns="http://www.w3.org/2000/svg">
<path d="M0.730957 26V51.4167H137.895V0.583252H0.730957V26ZM135.655 26V49.1766H3.14339V2.82337H135.655V26Z" fill="#49161B"/>
<path d="M12.6208 12.99C12.6208 13.5932 12.6725 13.6793 13.0344 13.6793C13.2584 13.6793 13.6892 13.731 13.9822 13.7827L14.5163 13.8861V38.0966L13.9822 38.2172C13.6892 38.2689 13.2584 38.3206 13.0344 38.3206C12.6553 38.3206 12.6208 38.3896 12.6208 39.0961V39.8715H21.7536V38.3723L20.8921 38.2517L20.0305 38.1311L20.0132 33.0994C20.0132 30.3251 19.9788 27.861 19.9615 27.5853L19.9271 27.12H32.0927V38.1311L31.0415 38.2517L30.0076 38.3723L30.0593 39.0788L30.111 39.7853H39.2438L39.2955 39.0444C39.3472 38.3723 39.3127 38.3206 38.9336 38.3206C38.6924 38.3206 38.2616 38.2689 37.9687 38.2172L37.4345 38.0966V13.8861L37.9687 13.7827C38.2616 13.731 38.6924 13.6793 38.9164 13.6793C39.2783 13.6793 39.33 13.5932 39.33 12.99V12.3008H30.0249V13.6276L31.0588 13.7482L32.0927 13.8689V24.1906H31.7136C22.7875 24.2079 20.1166 24.1906 20.0822 24.1217C20.0477 24.07 20.0305 21.7265 20.0305 18.935V13.8689L20.8921 13.7482L21.7536 13.6276V12.3008H12.6208V12.99ZM46.395 12.6799C45.1026 13.5759 44.689 14.9372 45.3438 16.2124C46.6017 18.6937 50.5306 17.8494 50.5306 15.1095C50.5306 13.4381 49.4277 12.3008 47.8424 12.3008C47.2221 12.3008 46.8085 12.4042 46.395 12.6799ZM55.8724 12.8867C55.8724 13.4553 55.8896 13.4725 56.734 13.5759L57.5956 13.6965V38.3206L57.2165 38.4068C56.9924 38.4412 56.6306 38.5102 56.3893 38.5274C56.0275 38.5791 55.9585 38.6825 55.9068 39.2167L55.8552 39.8542L60.1803 39.8715H64.5055L64.4538 39.2339C64.4021 38.6825 64.3331 38.5791 63.9713 38.5274C63.73 38.5102 63.3682 38.4412 63.1614 38.4068L62.7651 38.3206V12.3008H55.8724V12.8867ZM73.7072 14.9717C73.3281 15.1095 72.3459 15.4197 71.5188 15.661L70.0024 16.109V20.2101L68.1586 20.2618L66.2976 20.3135V21.8644L68.0552 21.9505L69.8128 22.0367L69.8817 29.3602C69.9507 36.9938 69.9851 37.3901 70.7433 38.5102C71.8978 40.2333 75.6716 40.5091 80.0484 39.1822C81.203 38.8203 81.203 38.8203 81.203 38.1828V37.5452L79.1007 37.5969C76.6193 37.6486 75.999 37.4418 75.4303 36.3218C75.1029 35.6842 75.0857 35.3051 75.0857 28.8432V22.0367L77.3775 21.985L79.6521 21.9333V20.2446L77.3775 20.1929L75.0857 20.1412L75.034 17.4186C74.9823 14.3858 75.0512 14.5237 73.7072 14.9717ZM90.4219 19.8138C88.6815 20.1929 87.3547 20.6926 86.2863 21.4336C83.6499 23.2601 82.2713 25.9827 82.099 29.7048C81.875 35.374 84.029 38.7859 88.6126 39.9921C90.1979 40.4057 94.144 40.4057 95.6604 39.9749C98.9688 39.0616 101.295 36.9593 102.363 33.9438C102.708 32.9788 102.811 32.2895 102.88 30.6181C103.018 26.9305 102.191 24.4664 100.175 22.4675C98.1589 20.4686 96.0394 19.6932 92.6793 19.7276C91.6281 19.7449 90.6115 19.7793 90.4219 19.8138ZM93.7304 21.3474C94.3507 21.537 94.7988 21.8299 95.3157 22.3813C96.7459 23.9322 97.2974 26.1206 97.2974 30.0494C97.2974 36.2356 95.7465 38.941 92.2829 38.872C89.3019 38.8031 87.7338 35.7876 87.7165 30.1356C87.6993 26.2412 88.2852 23.8977 89.612 22.4502C90.8182 21.1579 92.0072 20.8305 93.7304 21.3474ZM116.493 20.2101C115.373 20.572 114.253 21.1923 112.961 22.1401C112.461 22.5192 112.013 22.8121 111.962 22.8121C111.91 22.8121 111.875 22.2262 111.875 21.5197V20.2274H104.983V21.5542L105.844 21.6748L106.706 21.7954V38.2862L106.327 38.3896C106.103 38.4412 105.724 38.4929 105.465 38.4929C105.017 38.4929 104.983 38.5446 104.983 39.1822V39.8715L109.342 39.837L113.685 39.7853V39.1822C113.685 38.5963 113.667 38.5791 112.789 38.4413L111.875 38.2862V24.2079L113.392 23.4669C114.719 22.8121 115.029 22.726 116.114 22.726C117.148 22.726 117.441 22.7949 118.027 23.1912C119.457 24.139 119.595 24.9833 119.63 32.4102V38.2862L118.734 38.4413C117.838 38.5791 117.82 38.5963 117.82 39.1822V39.7853L122.059 39.837C126.677 39.8887 126.66 39.8887 126.419 38.9237C126.333 38.5963 126.16 38.4929 125.471 38.4068L124.627 38.2862V31.6175C124.627 27.2751 124.558 24.587 124.437 23.9494C124.041 22.0195 122.714 20.4858 121.06 20.0723C119.94 19.7793 117.614 19.8483 116.493 20.2101ZM43.4656 20.8132C43.4656 21.3991 43.4828 21.4163 44.3272 21.5542L45.206 21.6921V29.946C45.1887 34.4952 45.1543 38.2345 45.1198 38.2862C45.0681 38.3206 44.6718 38.4068 44.241 38.4585C43.4483 38.5446 43.4483 38.5446 43.5 39.165L43.5517 39.7853H51.9953L52.0469 39.165L52.0986 38.5446L51.2371 38.424L50.3582 38.3034V20.2274H43.4656V20.8132Z" fill="#49161B"/>
</svg>
