<svg width="538" height="538" viewBox="0 0 538 538" fill="none" xmlns="http://www.w3.org/2000/svg">
<path d="M420.526 475.704H249.504H100.027C60.8014 475.704 37.9887 431.386 60.7947 399.488C69.7046 387.026 72.1574 371.073 67.4023 356.513L40.8875 275.32C23.6859 222.645 35.8563 164.801 72.8276 123.513L91.2568 102.932C131.393 58.1097 198.807 49.3846 249.563 81.7078C277.578 99.5486 312.09 105.208 344.263 96.9455L354.323 94.3618C407.162 80.7911 461.847 108.65 481.906 159.358L482.65 161.24C493.058 187.552 492.23 216.976 480.358 242.661L475.313 253.576C462.083 282.199 466.187 316.007 485.703 340.78C512.293 374.534 509.01 423.248 477.844 452.834C462.376 467.518 441.859 475.704 420.526 475.704Z" fill="url(#paint0_linear_138_1489)"/>
<path d="M45.6708 384.494C24.8592 403.529 70.0174 453.893 94.6978 475.704H116.71C102.035 438.031 66.4824 365.459 45.6708 384.494Z" fill="#FF4859"/>
<path d="M65.682 329.966C109.707 321.242 138.723 422.168 147.728 473.721H113.709C79.3563 429.438 21.6574 338.691 65.682 329.966Z" fill="white"/>
<path fill-rule="evenodd" clip-rule="evenodd" d="M121.662 378.426C135.638 409.217 145.181 447.513 149.699 473.383L150.105 475.704H112.723L112.122 474.93C94.9035 452.734 71.7844 418.835 58.4767 389.318C51.843 374.604 47.526 360.722 47.7818 349.835C47.9105 344.357 49.2 339.478 52.0941 335.644C55.0116 331.779 59.398 329.189 65.2894 328.022C77.2 325.662 87.9123 330.797 97.2286 340.101C106.527 349.387 114.68 363.044 121.662 378.426ZM94.3874 342.894C85.5999 334.118 76.1759 329.909 66.0743 331.911C60.9595 332.924 57.5187 335.079 55.2991 338.019C53.0563 340.991 51.8992 344.979 51.7829 349.927C51.5488 359.893 55.549 373.102 62.1309 387.701C75.1022 416.471 97.6303 449.645 114.696 471.739H145.343C140.703 446.128 131.392 409.53 118.012 380.053C111.111 364.849 103.193 351.689 94.3874 342.894Z" fill="#2C0D10"/>
<path fill-rule="evenodd" clip-rule="evenodd" d="M73.5175 344.041L94.2278 390.844L100.801 370.988L104.604 372.224L96.6373 396.289L117.291 442.962L122.787 423.444L126.642 424.51L119.83 448.701L130.549 472.925L126.884 474.518L105.24 425.606L87.1072 420.098L88.2802 416.306L103.12 420.814L81.9861 373.055L64.78 364.453L66.5828 360.913L79.4622 367.351L69.8521 345.634L73.5175 344.041Z" fill="#2C0D10"/>
<path d="M91.2373 166.986L87.9453 171.337C87.745 171.602 87.4184 171.73 87.0984 171.668L83.0297 170.881C82.1543 170.711 81.6262 171.847 82.3018 172.446L85.4995 175.281C85.733 175.488 85.8433 175.806 85.7896 176.119L84.9874 180.793C84.8366 181.672 85.8848 182.216 86.4783 181.567L89.7631 177.975C89.9559 177.764 90.2356 177.662 90.514 177.701L94.3155 178.236C95.1719 178.356 95.6568 177.254 95.0057 176.668L92.1785 174.122C91.9515 173.917 91.843 173.606 91.8917 173.299L92.7831 167.684C92.9289 166.766 91.7922 166.252 91.2373 166.986Z" fill="#FF4859"/>
<path d="M82.1499 257.253L81.2052 268.125C81.1477 268.787 80.7301 269.35 80.1225 269.586L72.3949 272.582C70.7323 273.227 71.0462 275.712 72.8276 276.007L81.2592 277.406C81.8747 277.508 82.4007 277.93 82.6425 278.517L86.2575 287.286C86.9371 288.935 89.291 288.741 89.6055 287.01L91.3461 277.432C91.4483 276.869 91.8134 276.399 92.3265 276.169L99.3328 273.029C100.911 272.322 100.56 269.941 98.8336 269.64L91.3365 268.336C90.7345 268.231 90.2198 267.82 89.9758 267.248L85.5109 256.791C84.7807 255.081 82.3092 255.421 82.1499 257.253Z" fill="#FF4859"/>
<path d="M136.993 97.2325C136.993 88.2459 144.286 80.9609 153.283 80.9609H338.604C347.601 80.9609 354.894 88.246 354.894 97.2325V459.197C354.894 468.184 347.601 475.469 338.604 475.469H153.283C144.286 475.469 136.993 468.184 136.993 459.197V97.2325Z" fill="white"/>
<path fill-rule="evenodd" clip-rule="evenodd" d="M135.636 97.232C135.636 87.4966 143.537 79.6045 153.283 79.6045H338.604C348.351 79.6045 356.251 87.4966 356.251 97.232V459.197C356.251 468.932 348.351 476.824 338.604 476.824H153.283C143.537 476.824 135.636 468.932 135.636 459.197V97.232ZM153.283 82.3164C145.036 82.3164 138.351 88.9943 138.351 97.232V459.197C138.351 467.435 145.036 474.113 153.283 474.113H338.604C346.851 474.113 353.536 467.435 353.536 459.197V97.232C353.536 88.9944 346.851 82.3164 338.604 82.3164H153.283Z" fill="#2C0D10"/>
<path d="M202.617 94.1868L195.555 80.9598H296.334L288.032 94.7822C285.578 98.8664 281.16 101.365 276.391 101.365H214.595C209.582 101.365 204.977 98.6054 202.617 94.1868Z" fill="#2C0D10"/>
<path d="M352.222 89.1221H138.276C145.358 82.0481 152.122 80.7331 154.619 80.9598H335.879C344.595 80.9598 350.406 86.4013 352.222 89.1221Z" fill="#2C0D10"/>
<path d="M352.118 467.733H139.769C147.129 474.921 151.382 476.257 153.977 476.027H337.911C346.969 476.027 350.231 470.497 352.118 467.733Z" fill="#2C0D10"/>
<path d="M164.143 134.913C164.143 132.667 165.966 130.846 168.215 130.846H237.793C240.042 130.846 241.865 132.667 241.865 134.913V135.096C241.865 137.343 240.042 139.164 237.793 139.164H168.215C165.966 139.164 164.143 137.343 164.143 135.096V134.913Z" fill="#FF4859"/>
<path fill-rule="evenodd" clip-rule="evenodd" d="M339.596 100.345V111.436H336.881V100.345H339.596Z" fill="#2C0D10"/>
<path fill-rule="evenodd" clip-rule="evenodd" d="M332.656 101.732V111.436H329.941V101.732H332.656Z" fill="#2C0D10"/>
<path fill-rule="evenodd" clip-rule="evenodd" d="M325.716 104.504V111.436H323.001V104.504H325.716Z" fill="#2C0D10"/>
<path fill-rule="evenodd" clip-rule="evenodd" d="M318.777 107.277V111.436H316.062V107.277H318.777Z" fill="#2C0D10"/>
<path d="M164.143 230.092C164.143 227.846 165.966 226.025 168.215 226.025H215.726C217.975 226.025 219.799 227.846 219.799 230.092V273.483C219.799 275.73 217.975 277.551 215.726 277.551H168.215C165.966 277.551 164.143 275.73 164.143 273.483V230.092Z" fill="#FFF5F6"/>
<path d="M164.143 307.382C164.143 305.136 165.966 303.314 168.215 303.314H215.726C217.975 303.314 219.799 305.136 219.799 307.382V350.773C219.799 353.02 217.975 354.841 215.726 354.841H168.215C165.966 354.841 164.143 353.02 164.143 350.773V307.382Z" fill="#FFF5F6"/>
<path d="M164.143 384.672C164.143 382.426 165.966 380.604 168.215 380.604H215.726C217.975 380.604 219.799 382.426 219.799 384.672V428.063C219.799 430.31 217.975 432.131 215.726 432.131H168.215C165.966 432.131 164.143 430.31 164.143 428.063V384.672Z" fill="#FFF5F6"/>
<path d="M164.143 177.21C164.143 174.963 165.966 173.142 168.215 173.142H244.233V196.193H168.215C165.966 196.193 164.143 194.372 164.143 192.125V177.21Z" fill="#FFF5F6"/>
<path d="M244.233 173.142H320.251C322.5 173.142 324.324 174.963 324.324 177.21V192.125C324.324 194.372 322.5 196.193 320.251 196.193H244.233V173.142Z" fill="#FF4859"/>
<path d="M238.803 241.618C238.803 240.495 239.715 239.584 240.839 239.584H320.93C322.054 239.584 322.966 240.495 322.966 241.618C322.966 242.741 322.054 243.652 320.93 243.652H240.839C239.715 243.652 238.803 242.741 238.803 241.618Z" fill="#FFF5F6"/>
<path d="M238.803 318.908C238.803 317.785 239.715 316.874 240.839 316.874H320.93C322.054 316.874 322.966 317.785 322.966 318.908C322.966 320.031 322.054 320.942 320.93 320.942H240.839C239.715 320.942 238.803 320.031 238.803 318.908Z" fill="#FFF5F6"/>
<path d="M238.803 396.198C238.803 395.075 239.715 394.164 240.839 394.164H320.93C322.054 394.164 322.966 395.075 322.966 396.198C322.966 397.321 322.054 398.232 320.93 398.232H240.839C239.715 398.232 238.803 397.321 238.803 396.198Z" fill="#FFF5F6"/>
<path d="M243.701 251.745C244.186 250.695 245.681 250.695 246.166 251.745L246.728 252.962C246.926 253.39 247.332 253.685 247.801 253.74L249.133 253.898C250.283 254.034 250.745 255.455 249.894 256.24L248.91 257.15C248.563 257.47 248.408 257.947 248.5 258.409L248.761 259.723C248.987 260.858 247.778 261.736 246.767 261.171L245.597 260.517C245.185 260.286 244.683 260.286 244.271 260.517L243.1 261.171C242.09 261.736 240.88 260.858 241.106 259.723L241.367 258.409C241.459 257.947 241.304 257.47 240.957 257.15L239.973 256.24C239.122 255.455 239.584 254.034 240.735 253.898L242.066 253.74C242.535 253.685 242.942 253.39 243.139 252.962L243.701 251.745Z" fill="#FF4859"/>
<path d="M258.677 251.745C259.162 250.695 260.657 250.695 261.142 251.745L261.704 252.962C261.902 253.39 262.308 253.685 262.777 253.74L264.109 253.898C265.259 254.034 265.721 255.455 264.871 256.24L263.886 257.15C263.539 257.47 263.384 257.947 263.476 258.409L263.737 259.723C263.963 260.858 262.754 261.736 261.743 261.171L260.573 260.517C260.161 260.286 259.659 260.286 259.247 260.517L258.076 261.171C257.066 261.736 255.856 260.858 256.082 259.723L256.343 258.409C256.435 257.947 256.28 257.47 255.934 257.15L254.949 256.24C254.098 255.455 254.56 254.034 255.711 253.898L257.043 253.74C257.511 253.685 257.918 253.39 258.115 252.962L258.677 251.745Z" fill="#FF4859"/>
<path d="M274.901 251.745C275.386 250.695 276.881 250.695 277.366 251.745L277.928 252.962C278.125 253.39 278.532 253.685 279.001 253.74L280.332 253.898C281.483 254.034 281.945 255.455 281.094 256.24L280.11 257.15C279.763 257.47 279.608 257.947 279.7 258.409L279.961 259.723C280.187 260.858 278.977 261.736 277.967 261.171L276.796 260.517C276.384 260.286 275.882 260.286 275.47 260.517L274.3 261.171C273.289 261.736 272.08 260.858 272.306 259.723L272.567 258.409C272.659 257.947 272.504 257.47 272.157 257.15L271.173 256.24C270.322 255.455 270.784 254.034 271.934 253.898L273.266 253.74C273.735 253.685 274.141 253.39 274.339 252.962L274.901 251.745Z" fill="#FF4859"/>
<path d="M289.877 251.745C290.362 250.695 291.857 250.695 292.342 251.745L292.904 252.962C293.101 253.39 293.508 253.685 293.976 253.74L295.308 253.898C296.458 254.034 296.92 255.455 296.07 256.24L295.085 257.15C294.739 257.47 294.584 257.947 294.676 258.409L294.937 259.723C295.163 260.858 293.953 261.736 292.942 261.171L291.772 260.517C291.36 260.286 290.858 260.286 290.446 260.517L289.276 261.171C288.265 261.736 287.056 260.858 287.281 259.723L287.543 258.409C287.635 257.947 287.48 257.47 287.133 257.15L286.148 256.24C285.298 255.455 285.76 254.034 286.91 253.898L288.242 253.74C288.711 253.685 289.117 253.39 289.315 252.962L289.877 251.745Z" fill="#FF4859"/>
<path d="M306.101 251.745C306.586 250.695 308.081 250.695 308.566 251.745L309.128 252.962C309.325 253.39 309.732 253.685 310.2 253.74L311.532 253.898C312.683 254.034 313.145 255.455 312.294 256.24L311.309 257.15C310.963 257.47 310.808 257.947 310.9 258.409L311.161 259.723C311.387 260.858 310.177 261.736 309.167 261.171L307.996 260.517C307.584 260.286 307.082 260.286 306.67 260.517L305.5 261.171C304.489 261.736 303.28 260.858 303.506 259.723L303.767 258.409C303.859 257.947 303.704 257.47 303.357 257.15L302.373 256.24C301.522 255.455 301.984 254.034 303.134 253.898L304.466 253.74C304.935 253.685 305.341 253.39 305.539 252.962L306.101 251.745Z" fill="#FFF5F6"/>
<path d="M243.701 329.035C244.186 327.985 245.681 327.985 246.166 329.035L246.728 330.252C246.926 330.68 247.332 330.975 247.801 331.03L249.133 331.188C250.283 331.324 250.745 332.744 249.894 333.53L248.91 334.44C248.563 334.76 248.408 335.237 248.5 335.699L248.761 337.013C248.987 338.148 247.778 339.026 246.767 338.461L245.597 337.806C245.185 337.576 244.683 337.576 244.271 337.806L243.1 338.461C242.09 339.026 240.88 338.148 241.106 337.013L241.367 335.699C241.459 335.237 241.304 334.76 240.957 334.44L239.973 333.53C239.122 332.744 239.584 331.324 240.735 331.188L242.066 331.03C242.535 330.975 242.942 330.68 243.139 330.252L243.701 329.035Z" fill="#FF4859"/>
<path d="M258.677 329.035C259.162 327.985 260.657 327.985 261.142 329.035L261.704 330.252C261.902 330.68 262.308 330.975 262.777 331.03L264.109 331.188C265.259 331.324 265.721 332.744 264.871 333.53L263.886 334.44C263.539 334.76 263.384 335.237 263.476 335.699L263.737 337.013C263.963 338.148 262.754 339.026 261.743 338.461L260.573 337.806C260.161 337.576 259.659 337.576 259.247 337.806L258.076 338.461C257.066 339.026 255.856 338.148 256.082 337.013L256.343 335.699C256.435 335.237 256.28 334.76 255.934 334.44L254.949 333.53C254.098 332.744 254.56 331.324 255.711 331.188L257.043 331.03C257.511 330.975 257.918 330.68 258.115 330.252L258.677 329.035Z" fill="#FF4859"/>
<path d="M274.901 329.035C275.386 327.985 276.881 327.985 277.366 329.035L277.928 330.252C278.125 330.68 278.532 330.975 279.001 331.03L280.332 331.188C281.483 331.324 281.945 332.744 281.094 333.53L280.11 334.44C279.763 334.76 279.608 335.237 279.7 335.699L279.961 337.013C280.187 338.148 278.977 339.026 277.967 338.461L276.796 337.806C276.384 337.576 275.882 337.576 275.47 337.806L274.3 338.461C273.289 339.026 272.08 338.148 272.306 337.013L272.567 335.699C272.659 335.237 272.504 334.76 272.157 334.44L271.173 333.53C270.322 332.744 270.784 331.324 271.934 331.188L273.266 331.03C273.735 330.975 274.141 330.68 274.339 330.252L274.901 329.035Z" fill="#FF4859"/>
<path d="M289.877 329.035C290.362 327.985 291.857 327.985 292.342 329.035L292.904 330.252C293.101 330.68 293.508 330.975 293.976 331.03L295.308 331.188C296.458 331.324 296.92 332.744 296.07 333.53L295.085 334.44C294.739 334.76 294.584 335.237 294.676 335.699L294.937 337.013C295.163 338.148 293.953 339.026 292.942 338.461L291.772 337.806C291.36 337.576 290.858 337.576 290.446 337.806L289.276 338.461C288.265 339.026 287.056 338.148 287.281 337.013L287.543 335.699C287.635 335.237 287.48 334.76 287.133 334.44L286.148 333.53C285.298 332.744 285.76 331.324 286.91 331.188L288.242 331.03C288.711 330.975 289.117 330.68 289.315 330.252L289.877 329.035Z" fill="#FF4859"/>
<path d="M306.101 329.035C306.586 327.985 308.081 327.985 308.566 329.035L309.128 330.252C309.325 330.68 309.732 330.975 310.2 331.03L311.532 331.188C312.683 331.324 313.145 332.744 312.294 333.53L311.309 334.44C310.963 334.76 310.808 335.237 310.9 335.699L311.161 337.013C311.387 338.148 310.177 339.026 309.167 338.461L307.996 337.806C307.584 337.576 307.082 337.576 306.67 337.806L305.5 338.461C304.489 339.026 303.28 338.148 303.506 337.013L303.767 335.699C303.859 335.237 303.704 334.76 303.357 334.44L302.373 333.53C301.522 332.744 301.984 331.324 303.134 331.188L304.466 331.03C304.935 330.975 305.341 330.68 305.539 330.252L306.101 329.035Z" fill="#FFF5F6"/>
<path d="M243.701 406.325C244.186 405.274 245.681 405.274 246.166 406.325L246.728 407.542C246.926 407.97 247.332 408.265 247.801 408.32L249.133 408.478C250.283 408.614 250.745 410.034 249.894 410.82L248.91 411.729C248.563 412.05 248.408 412.527 248.5 412.989L248.761 414.303C248.987 415.438 247.778 416.316 246.767 415.751L245.597 415.096C245.185 414.866 244.683 414.866 244.271 415.096L243.1 415.751C242.09 416.316 240.88 415.438 241.106 414.303L241.367 412.989C241.459 412.527 241.304 412.05 240.957 411.729L239.973 410.82C239.122 410.034 239.584 408.614 240.735 408.478L242.066 408.32C242.535 408.265 242.942 407.97 243.139 407.542L243.701 406.325Z" fill="#FF4859"/>
<path d="M258.677 406.325C259.162 405.274 260.657 405.274 261.142 406.325L261.704 407.542C261.902 407.97 262.308 408.265 262.777 408.32L264.109 408.478C265.259 408.614 265.721 410.034 264.871 410.82L263.886 411.729C263.539 412.05 263.384 412.527 263.476 412.989L263.737 414.303C263.963 415.438 262.754 416.316 261.743 415.751L260.573 415.096C260.161 414.866 259.659 414.866 259.247 415.096L258.076 415.751C257.066 416.316 255.856 415.438 256.082 414.303L256.343 412.989C256.435 412.527 256.28 412.05 255.934 411.729L254.949 410.82C254.098 410.034 254.56 408.614 255.711 408.478L257.043 408.32C257.511 408.265 257.918 407.97 258.115 407.542L258.677 406.325Z" fill="#FF4859"/>
<path d="M274.901 406.325C275.386 405.274 276.881 405.274 277.366 406.325L277.928 407.542C278.125 407.97 278.532 408.265 279.001 408.32L280.332 408.478C281.483 408.614 281.945 410.034 281.094 410.82L280.11 411.729C279.763 412.05 279.608 412.527 279.7 412.989L279.961 414.303C280.187 415.438 278.977 416.316 277.967 415.751L276.796 415.096C276.384 414.866 275.882 414.866 275.47 415.096L274.3 415.751C273.289 416.316 272.08 415.438 272.306 414.303L272.567 412.989C272.659 412.527 272.504 412.05 272.157 411.729L271.173 410.82C270.322 410.034 270.784 408.614 271.934 408.478L273.266 408.32C273.735 408.265 274.141 407.97 274.339 407.542L274.901 406.325Z" fill="#FF4859"/>
<path d="M289.877 406.325C290.362 405.274 291.857 405.274 292.342 406.325L292.904 407.542C293.101 407.97 293.508 408.265 293.976 408.32L295.308 408.478C296.458 408.614 296.92 410.034 296.07 410.82L295.085 411.729C294.739 412.05 294.584 412.527 294.676 412.989L294.937 414.303C295.163 415.438 293.953 416.316 292.942 415.751L291.772 415.096C291.36 414.866 290.858 414.866 290.446 415.096L289.276 415.751C288.265 416.316 287.056 415.438 287.281 414.303L287.543 412.989C287.635 412.527 287.48 412.05 287.133 411.729L286.148 410.82C285.298 410.034 285.76 408.614 286.91 408.478L288.242 408.32C288.711 408.265 289.117 407.97 289.315 407.542L289.877 406.325Z" fill="#FF4859"/>
<path d="M306.101 406.325C306.586 405.274 308.081 405.274 308.566 406.325L309.128 407.542C309.325 407.97 309.732 408.265 310.2 408.32L311.532 408.478C312.683 408.614 313.145 410.034 312.294 410.82L311.309 411.729C310.963 412.05 310.808 412.527 310.9 412.989L311.161 414.303C311.387 415.438 310.177 416.316 309.167 415.751L307.996 415.096C307.584 414.866 307.082 414.866 306.67 415.096L305.5 415.751C304.489 416.316 303.28 415.438 303.506 414.303L303.767 412.989C303.859 412.527 303.704 412.05 303.357 411.729L302.373 410.82C301.522 410.034 301.984 408.614 303.134 408.478L304.466 408.32C304.935 408.265 305.341 407.97 305.539 407.542L306.101 406.325Z" fill="#FFF5F6"/>
<path d="M404.153 197.342C426.243 212.965 416.959 240.739 412.797 251.501L414.62 273.462C412.732 280.376 405.881 294.204 393.587 294.204C381.293 294.204 375.658 282.4 374.378 276.498L376.299 259.833C361.891 254.626 360.931 233.796 361.892 217.131C363.032 197.342 384.695 183.581 404.153 197.342Z" fill="#FFDEE1"/>
<path d="M394.758 286.334C380.332 286.334 373.562 277.477 371.981 273.048C344.458 273.048 321.68 292.029 311.241 305.316C300.801 318.602 261.89 388.832 271.381 417.304C278.973 440.081 297.321 443.561 307.445 441.979L305.797 471.632C305.661 474.083 307.612 476.145 310.067 476.145H448.854C463.406 477.095 495.168 477.474 505.797 471.4C519.084 463.808 531.422 424.896 505.797 348.023C485.298 286.524 437.149 272.415 415.637 273.048C414.688 277.477 409.184 286.334 394.758 286.334Z" fill="#FF4859"/>
<path d="M463.871 476.201C486.751 448.316 510.942 438.365 520.177 436.876C520.177 445.813 515.708 462.795 507.664 470.838C501.229 477.273 475.787 477.095 463.871 476.201Z" fill="#2C0D10"/>
<path d="M286.908 438.663C271.893 432.943 269.331 412.447 269.927 402.913C283.512 409.348 301.804 431.215 309.252 441.345C308.06 442.834 301.923 444.383 286.908 438.663Z" fill="#2C0D10"/>
<path d="M396.655 373.648C403.299 376.495 452.649 399.588 475.427 410.661C472.58 405.916 461.191 398.323 458.344 395.476C455.497 392.629 445.057 359.412 445.057 364.157C445.057 368.902 450.751 390.731 447.904 390.731C445.057 390.731 405.197 373.648 396.655 373.648Z" fill="#2C0D10"/>
<path d="M376.725 401.17C416.965 455.077 449.802 474.247 461.191 477.095H441.261C407.095 450.521 384.001 415.406 376.725 401.17Z" fill="#2C0D10"/>
<path d="M327.375 391.68C325.856 409.902 312.823 432.805 306.496 441.98V450.521C320.921 434.577 326.426 404.65 327.375 391.68Z" fill="#2C0D10"/>
<path d="M309.342 366.055C304.028 369.092 294.474 376.179 290.361 379.342L305.546 361.31C306.305 364.347 308.393 365.739 309.342 366.055Z" fill="#2C0D10"/>
<path d="M365.46 331.182L372.737 402.134C372.833 403.078 372 403.85 371.067 403.683L336.924 397.555C336.322 397.447 335.856 396.967 335.766 396.361L325.738 328.902C325.604 328 326.34 327.206 327.25 327.271L364.143 329.906C364.834 329.955 365.389 330.494 365.46 331.182Z" fill="white"/>
<path fill-rule="evenodd" clip-rule="evenodd" d="M327.352 325.849C325.532 325.719 324.06 327.307 324.328 329.112L334.356 396.571C334.536 397.781 335.468 398.742 336.673 398.958L370.815 405.086C372.681 405.421 374.348 403.875 374.155 401.989L366.878 331.037C366.736 329.659 365.626 328.583 364.245 328.484L327.352 325.849ZM327.148 328.692L364.042 331.328L371.319 402.28L337.176 396.152L327.148 328.692Z" fill="#2C0D10"/>
<path d="M315.986 366.055L327.374 383.138C342.559 384.087 345.406 375.546 342.559 362.259C340.281 351.629 331.803 351.503 328.323 352.768L326.425 345.176C315.986 353.717 315.986 361.943 315.986 366.055Z" fill="#FFDEE1"/>
<path d="M412.103 246.056L414.017 264.941C414.655 263.542 416.122 259.485 416.887 254.449C417.844 248.155 433.154 224.024 428.37 206.189C424.542 191.921 414.017 192.55 409.232 194.649C406.361 189.403 389.137 171.568 364.258 173.666C339.379 175.764 336.508 211.435 356.603 216.68C372.679 220.877 390.732 218.429 397.749 216.68C398.387 218.079 400.237 222.765 402.534 230.319C405.405 239.761 405.405 241.86 406.361 235.565C407.318 229.27 411.146 217.73 415.93 229.27C419.758 238.502 414.974 244.308 412.103 246.056Z" fill="#2C0D10"/>
<path d="M398.203 259.454C391.619 263.331 380.317 261.354 376.049 259.739L375.337 266.154C384.847 268.48 394.85 262.685 398.203 259.454Z" fill="#2C0D10"/>
<path d="M382.42 364.157C384.698 370.231 389.064 374.28 390.962 375.546L378.624 394.527C374.828 390.73 370.083 390.73 359.643 385.985C349.203 381.24 346.356 364.157 349.203 354.666C351.481 347.074 364.705 352.768 370.083 356.564L369.134 346.125C375.777 348.972 379.573 356.564 382.42 364.157Z" fill="#FFDEE1"/>
<defs>
<linearGradient id="paint0_linear_138_1489" x1="-2.5648" y1="-58.2974" x2="347.873" y2="475.704" gradientUnits="userSpaceOnUse">
<stop stop-color="#FFF5F6"/>
<stop offset="1" stop-color="#FFF5F6" stop-opacity="0"/>
</linearGradient>
</defs>
</svg>
