<svg width="74" height="60" viewBox="0 0 74 60" fill="none" xmlns="http://www.w3.org/2000/svg">
<circle cx="36.723" cy="51.3829" r="7.34429" fill="white" stroke="#E82033" stroke-width="2.5"/>
<path fill-rule="evenodd" clip-rule="evenodd" d="M11.7542 0.408447C5.34034 0.408447 0.140869 5.60793 0.140869 12.0218L0.140869 16.6671C0.140869 23.081 5.34034 28.2805 11.7542 28.2805H28.4651L34.3987 34.4917C35.3626 35.5007 36.9304 35.5007 37.8943 34.4917L40.1822 32.0969L43.828 28.2805H61.6916C68.1055 28.2805 73.305 23.081 73.305 16.6671V12.0218C73.305 5.60792 68.1055 0.408447 61.6916 0.408447L11.7542 0.408447Z" fill="#E82033"/>
<path d="M22.7857 18.8444V10.9646H22.6633L20.2544 12.6385V10.7877L22.7925 9.02524H24.8408V18.8444H22.7857Z" fill="white"/>
<path d="M31.1827 19.0622C30.4433 19.0622 29.7946 18.9397 29.2366 18.6947C28.6831 18.4452 28.2454 18.1004 27.9233 17.6604C27.6012 17.2158 27.4152 16.7009 27.3653 16.1157L27.3585 16.0273H29.3251L29.3319 16.1021C29.3636 16.3562 29.4566 16.583 29.6109 16.7826C29.7696 16.9777 29.9828 17.1319 30.2505 17.2453C30.5181 17.3542 30.8289 17.4086 31.1827 17.4086C31.532 17.4086 31.836 17.3497 32.0946 17.2317C32.3577 17.1092 32.5596 16.9414 32.7002 16.7282C32.8453 16.5149 32.9179 16.27 32.9179 15.9933V15.9796C32.9179 15.5078 32.7501 15.1472 32.4144 14.8977C32.0832 14.6482 31.6205 14.5234 31.0262 14.5234H29.9035V13.0604H30.999C31.3438 13.0604 31.6432 13.0037 31.8972 12.8903C32.1513 12.7769 32.3486 12.6204 32.4892 12.4208C32.6299 12.2166 32.7002 11.983 32.7002 11.7199V11.7063C32.7002 11.4341 32.6389 11.2005 32.5165 11.0054C32.3985 10.8058 32.2239 10.6538 31.9925 10.5495C31.7657 10.4406 31.4912 10.3862 31.1691 10.3862C30.847 10.3862 30.5635 10.4406 30.3185 10.5495C30.0736 10.6584 29.8785 10.8149 29.7333 11.019C29.5882 11.2186 29.502 11.4545 29.4748 11.7267L29.468 11.7879H27.5762L27.5831 11.7063C27.633 11.1166 27.8099 10.6062 28.1138 10.1752C28.4223 9.73974 28.8351 9.40404 29.3523 9.16814C29.874 8.92771 30.4796 8.80749 31.1691 8.80749C31.8723 8.80749 32.4847 8.91864 33.0064 9.14092C33.5281 9.35867 33.9296 9.66488 34.2108 10.0596C34.4966 10.4497 34.6395 10.9079 34.6395 11.4341V11.4477C34.6395 11.856 34.5488 12.2144 34.3673 12.5229C34.1859 12.8313 33.9409 13.0854 33.6324 13.285C33.3239 13.4846 32.9769 13.6252 32.5913 13.7069V13.7477C33.3217 13.8157 33.9069 14.0516 34.3469 14.4554C34.787 14.8591 35.007 15.3944 35.007 16.0613V16.0749C35.007 16.6692 34.8459 17.1909 34.5238 17.64C34.2063 18.0891 33.7617 18.4384 33.1901 18.6879C32.6185 18.9374 31.9494 19.0622 31.1827 19.0622Z" fill="white"/>
<path d="M40.546 19.0962C39.7385 19.0962 39.0422 18.8875 38.457 18.4702C37.8763 18.0483 37.4294 17.4517 37.1164 16.6805C36.8034 15.9093 36.6469 14.9952 36.6469 13.9382V13.9246C36.6469 12.8631 36.8034 11.949 37.1164 11.1823C37.4294 10.4111 37.8763 9.81686 38.457 9.3995C39.0422 8.98215 39.7385 8.77347 40.546 8.77347C41.358 8.77347 42.0544 8.98215 42.635 9.3995C43.2157 9.81686 43.6625 10.4111 43.9756 11.1823C44.2886 11.949 44.4451 12.8631 44.4451 13.9246V13.9382C44.4451 14.9952 44.2886 15.9093 43.9756 16.6805C43.6625 17.4517 43.2157 18.0483 42.635 18.4702C42.0544 18.8875 41.358 19.0962 40.546 19.0962ZM40.546 17.4699C40.9361 17.4699 41.265 17.3292 41.5327 17.048C41.8049 16.7667 42.0113 16.363 42.1519 15.8367C42.2971 15.3105 42.3697 14.6777 42.3697 13.9382V13.9246C42.3697 13.1806 42.2971 12.5478 42.1519 12.0261C42.0113 11.4999 41.8049 11.0984 41.5327 10.8217C41.265 10.5404 40.9361 10.3998 40.546 10.3998C40.1604 10.3998 39.8315 10.5404 39.5593 10.8217C39.2917 11.0984 39.0853 11.4999 38.9401 12.0261C38.7995 12.5478 38.7291 13.1806 38.7291 13.9246V13.9382C38.7291 14.6777 38.7995 15.3105 38.9401 15.8367C39.0853 16.363 39.2917 16.7667 39.5593 17.048C39.8315 17.3292 40.1604 17.4699 40.546 17.4699Z" fill="white"/>
<path d="M46.3776 18.8444V8.48767H48.3646V18.8444H46.3776ZM51.0933 18.8444L48.7933 15.5918L50.2767 14.401L53.4409 18.8444H51.0933ZM48.2285 16.4764L48.1604 14.3125H48.4871L50.9912 11.3524H53.2436L50.161 14.7548L49.0995 15.5509L48.2285 16.4764Z" fill="white"/>
</svg>
