<svg width="26" height="118" viewBox="0 0 26 118" fill="none" xmlns="http://www.w3.org/2000/svg">
<path d="M2.67151 9.00806V1.72485H2.57776L0.427368 3.28345V2.17017L2.67737 0.552979H3.7262V9.00806H2.67151Z" fill="#AB9193"/>
<path d="M8.7069 9.20728C8.18346 9.20728 7.71667 9.10376 7.30651 8.89673C6.89635 8.6897 6.56627 8.40845 6.31627 8.05298C6.07018 7.6936 5.92565 7.28931 5.88268 6.84009L5.87682 6.77563H6.89049L6.89635 6.82251C6.93151 7.09204 7.02917 7.33813 7.18932 7.56079C7.35338 7.77954 7.56627 7.95337 7.82799 8.08228C8.09362 8.21118 8.39049 8.27563 8.71862 8.27563C9.09362 8.27563 9.4237 8.1936 9.70885 8.02954C9.99401 7.86157 10.2167 7.6311 10.3768 7.33813C10.537 7.04517 10.6171 6.70923 10.6171 6.33032V6.3186C10.6171 5.9436 10.535 5.61157 10.371 5.32251C10.2108 5.02954 9.9901 4.80103 9.70885 4.63696C9.4276 4.4729 9.10338 4.39087 8.7362 4.39087C8.45495 4.39087 8.19518 4.43384 7.9569 4.51978C7.72252 4.60571 7.51354 4.73462 7.32995 4.90649C7.25573 4.97681 7.18542 5.05298 7.11901 5.13501C7.05651 5.21704 6.99792 5.30884 6.94323 5.4104H6.02917L6.47448 0.552979H11.1796V1.49634H7.30651L7.0194 4.35571H7.11315C7.23815 4.16431 7.39245 4.00415 7.57604 3.87524C7.75963 3.74634 7.96471 3.64868 8.19127 3.58228C8.42174 3.51196 8.66393 3.47681 8.91784 3.47681C9.44909 3.47681 9.91979 3.59985 10.3299 3.84595C10.7401 4.08813 11.0624 4.42212 11.2967 4.8479C11.5311 5.26978 11.6483 5.75415 11.6483 6.30103V6.31274C11.6483 6.87915 11.5214 7.3811 11.2674 7.8186C11.0174 8.2522 10.6717 8.59204 10.2303 8.83813C9.78893 9.08423 9.28112 9.20728 8.7069 9.20728Z" fill="#AB9193"/>
<path d="M15.9376 9.20728C15.3126 9.20728 14.7774 9.02759 14.3321 8.66821C13.8907 8.30884 13.5509 7.79907 13.3126 7.13892C13.0743 6.47485 12.9552 5.6897 12.9552 4.78345V4.77173C12.9552 3.86548 13.0743 3.08228 13.3126 2.42212C13.5509 1.76196 13.8907 1.2522 14.3321 0.892822C14.7774 0.533447 15.3126 0.35376 15.9376 0.35376C16.5626 0.35376 17.0978 0.533447 17.5431 0.892822C17.9884 1.2522 18.3302 1.76196 18.5685 2.42212C18.8106 3.08228 18.9317 3.86548 18.9317 4.77173V4.78345C18.9317 5.6897 18.8106 6.47485 18.5685 7.13892C18.3302 7.79907 17.9884 8.30884 17.5431 8.66821C17.0978 9.02759 16.5626 9.20728 15.9376 9.20728ZM15.9376 8.28735C16.3439 8.28735 16.6896 8.14478 16.9747 7.85962C17.2638 7.57446 17.4845 7.17017 17.6368 6.64673C17.7931 6.12329 17.8712 5.5022 17.8712 4.78345V4.77173C17.8712 4.05298 17.7931 3.43384 17.6368 2.91431C17.4845 2.39087 17.2638 1.98853 16.9747 1.70728C16.6896 1.42212 16.3439 1.27954 15.9376 1.27954C15.5353 1.27954 15.1896 1.42212 14.9005 1.70728C14.6153 1.98853 14.3966 2.39087 14.2442 2.91431C14.0919 3.43384 14.0157 4.05298 14.0157 4.77173V4.78345C14.0157 5.5022 14.0919 6.12329 14.2442 6.64673C14.3966 7.17017 14.6153 7.57446 14.9005 7.85962C15.1896 8.14478 15.5353 8.28735 15.9376 8.28735Z" fill="#AB9193"/>
<path d="M20.4906 9.00806V0.183838H21.5101V9.00806H20.4906ZM24.4691 9.00806L22.0023 5.91431L22.7523 5.26392L25.7523 9.00806H24.4691ZM21.3812 6.73462L21.3343 5.45142H21.6039L24.3343 2.69165H25.5707L22.5707 5.58618L22.3246 5.82642L21.3812 6.73462Z" fill="#AB9193"/>
<path d="M2.67151 45.0095V37.7263H2.57776L0.427368 39.2849V38.1716L2.67737 36.5544H3.7262V45.0095H2.67151Z" fill="#AB9193"/>
<path d="M8.75963 45.2087C8.13463 45.2087 7.59948 45.029 7.15417 44.6696C6.71276 44.3102 6.37292 43.8005 6.13463 43.1403C5.89635 42.4763 5.77721 41.6911 5.77721 40.7849V40.7731C5.77721 39.8669 5.89635 39.0837 6.13463 38.4235C6.37292 37.7634 6.71276 37.2536 7.15417 36.8942C7.59948 36.5349 8.13463 36.3552 8.75963 36.3552C9.38463 36.3552 9.91979 36.5349 10.3651 36.8942C10.8104 37.2536 11.1522 37.7634 11.3905 38.4235C11.6327 39.0837 11.7538 39.8669 11.7538 40.7731V40.7849C11.7538 41.6911 11.6327 42.4763 11.3905 43.1403C11.1522 43.8005 10.8104 44.3102 10.3651 44.6696C9.91979 45.029 9.38463 45.2087 8.75963 45.2087ZM8.75963 44.2888C9.16588 44.2888 9.51159 44.1462 9.79674 43.861C10.0858 43.5759 10.3065 43.1716 10.4589 42.6481C10.6151 42.1247 10.6932 41.5036 10.6932 40.7849V40.7731C10.6932 40.0544 10.6151 39.4352 10.4589 38.9157C10.3065 38.3923 10.0858 37.9899 9.79674 37.7087C9.51159 37.4235 9.16588 37.2809 8.75963 37.2809C8.35729 37.2809 8.01159 37.4235 7.72252 37.7087C7.43737 37.9899 7.21862 38.3923 7.06627 38.9157C6.91393 39.4352 6.83776 40.0544 6.83776 40.7731V40.7849C6.83776 41.5036 6.91393 42.1247 7.06627 42.6481C7.21862 43.1716 7.43737 43.5759 7.72252 43.861C8.01159 44.1462 8.35729 44.2888 8.75963 44.2888Z" fill="#AB9193"/>
<path d="M16.0782 45.2087C15.4532 45.2087 14.9181 45.029 14.4728 44.6696C14.0314 44.3102 13.6915 43.8005 13.4532 43.1403C13.2149 42.4763 13.0958 41.6911 13.0958 40.7849V40.7731C13.0958 39.8669 13.2149 39.0837 13.4532 38.4235C13.6915 37.7634 14.0314 37.2536 14.4728 36.8942C14.9181 36.5349 15.4532 36.3552 16.0782 36.3552C16.7032 36.3552 17.2384 36.5349 17.6837 36.8942C18.129 37.2536 18.4708 37.7634 18.7091 38.4235C18.9513 39.0837 19.0724 39.8669 19.0724 40.7731V40.7849C19.0724 41.6911 18.9513 42.4763 18.7091 43.1403C18.4708 43.8005 18.129 44.3102 17.6837 44.6696C17.2384 45.029 16.7032 45.2087 16.0782 45.2087ZM16.0782 44.2888C16.4845 44.2888 16.8302 44.1462 17.1153 43.861C17.4044 43.5759 17.6251 43.1716 17.7774 42.6481C17.9337 42.1247 18.0118 41.5036 18.0118 40.7849V40.7731C18.0118 40.0544 17.9337 39.4352 17.7774 38.9157C17.6251 38.3923 17.4044 37.9899 17.1153 37.7087C16.8302 37.4235 16.4845 37.2809 16.0782 37.2809C15.6759 37.2809 15.3302 37.4235 15.0411 37.7087C14.756 37.9899 14.5372 38.3923 14.3849 38.9157C14.2325 39.4352 14.1564 40.0544 14.1564 40.7731V40.7849C14.1564 41.5036 14.2325 42.1247 14.3849 42.6481C14.5372 43.1716 14.756 43.5759 15.0411 43.861C15.3302 44.1462 15.6759 44.2888 16.0782 44.2888Z" fill="#AB9193"/>
<path d="M20.6312 45.0095V36.1852H21.6507V45.0095H20.6312ZM24.6097 45.0095L22.1429 41.9157L22.8929 41.2653L25.8929 45.0095H24.6097ZM21.5218 42.736L21.4749 41.4528H21.7445L24.4749 38.6931H25.7113L22.7113 41.5876L22.4652 41.8278L21.5218 42.736Z" fill="#AB9193"/>
<path d="M3.38049 81.21C2.85706 81.21 2.39026 81.1065 1.9801 80.8995C1.56995 80.6924 1.23987 80.4112 0.989868 80.0557C0.743774 79.6964 0.599243 79.2921 0.556274 78.8428L0.550415 78.7784H1.56409L1.56995 78.8253C1.6051 79.0948 1.70276 79.3409 1.86292 79.5635C2.02698 79.7823 2.23987 79.9561 2.50159 80.085C2.76721 80.2139 3.06409 80.2784 3.39221 80.2784C3.76721 80.2784 4.09729 80.1964 4.38245 80.0323C4.6676 79.8643 4.89026 79.6339 5.05042 79.3409C5.21057 79.0479 5.29065 78.712 5.29065 78.3331V78.3214C5.29065 77.9464 5.20862 77.6143 5.04456 77.3253C4.8844 77.0323 4.6637 76.8038 4.38245 76.6397C4.1012 76.4756 3.77698 76.3936 3.40979 76.3936C3.12854 76.3936 2.86877 76.4366 2.63049 76.5225C2.39612 76.6085 2.18713 76.7374 2.00354 76.9092C1.92932 76.9796 1.85901 77.0557 1.7926 77.1378C1.7301 77.2198 1.67151 77.3116 1.61682 77.4131H0.702759L1.14807 72.5557H5.85315V73.4991H1.9801L1.69299 76.3585H1.78674C1.91174 76.1671 2.06604 76.0069 2.24963 75.878C2.43323 75.7491 2.63831 75.6514 2.86487 75.585C3.09534 75.5147 3.33752 75.4796 3.59143 75.4796C4.12268 75.4796 4.59338 75.6026 5.00354 75.8487C5.4137 76.0909 5.73596 76.4249 5.97034 76.8506C6.20471 77.2725 6.3219 77.7569 6.3219 78.3038V78.3155C6.3219 78.8819 6.19495 79.3839 5.94104 79.8214C5.69104 80.2549 5.34534 80.5948 4.90393 80.8409C4.46252 81.087 3.95471 81.21 3.38049 81.21Z" fill="#AB9193"/>
<path d="M10.6112 81.21C9.9862 81.21 9.45104 81.0303 9.00573 80.671C8.56432 80.3116 8.22448 79.8018 7.9862 79.1417C7.74792 78.4776 7.62877 77.6924 7.62877 76.7862V76.7745C7.62877 75.8682 7.74792 75.085 7.9862 74.4249C8.22448 73.7647 8.56432 73.2549 9.00573 72.8956C9.45104 72.5362 9.9862 72.3565 10.6112 72.3565C11.2362 72.3565 11.7714 72.5362 12.2167 72.8956C12.662 73.2549 13.0038 73.7647 13.2421 74.4249C13.4842 75.085 13.6053 75.8682 13.6053 76.7745V76.7862C13.6053 77.6924 13.4842 78.4776 13.2421 79.1417C13.0038 79.8018 12.662 80.3116 12.2167 80.671C11.7714 81.0303 11.2362 81.21 10.6112 81.21ZM10.6112 80.2901C11.0174 80.2901 11.3631 80.1475 11.6483 79.8624C11.9374 79.5772 12.1581 79.1729 12.3104 78.6495C12.4667 78.126 12.5448 77.5049 12.5448 76.7862V76.7745C12.5448 76.0557 12.4667 75.4366 12.3104 74.9171C12.1581 74.3936 11.9374 73.9913 11.6483 73.71C11.3631 73.4249 11.0174 73.2823 10.6112 73.2823C10.2089 73.2823 9.86315 73.4249 9.57409 73.71C9.28893 73.9913 9.07018 74.3936 8.91784 74.9171C8.76549 75.4366 8.68932 76.0557 8.68932 76.7745V76.7862C8.68932 77.5049 8.76549 78.126 8.91784 78.6495C9.07018 79.1729 9.28893 79.5772 9.57409 79.8624C9.86315 80.1475 10.2089 80.2901 10.6112 80.2901Z" fill="#AB9193"/>
<path d="M15.1642 81.0108V72.1866H16.1837V81.0108H15.1642ZM19.1427 81.0108L16.6759 77.9171L17.4259 77.2667L20.4259 81.0108H19.1427ZM16.0548 78.7374L16.0079 77.4542H16.2774L19.0079 74.6944H20.2442L17.2442 77.5889L16.9981 77.8292L16.0548 78.7374Z" fill="#AB9193"/>
<path d="M2.67151 117.012V109.729H2.57776L0.427368 111.288V110.174L2.67737 108.557H3.7262V117.012H2.67151Z" fill="#AB9193"/>
<path d="M8.75963 117.211C8.13463 117.211 7.59948 117.032 7.15417 116.672C6.71276 116.313 6.37292 115.803 6.13463 115.143C5.89635 114.479 5.77721 113.694 5.77721 112.788V112.776C5.77721 111.87 5.89635 111.086 6.13463 110.426C6.37292 109.766 6.71276 109.256 7.15417 108.897C7.59948 108.538 8.13463 108.358 8.75963 108.358C9.38463 108.358 9.91979 108.538 10.3651 108.897C10.8104 109.256 11.1522 109.766 11.3905 110.426C11.6327 111.086 11.7538 111.87 11.7538 112.776V112.788C11.7538 113.694 11.6327 114.479 11.3905 115.143C11.1522 115.803 10.8104 116.313 10.3651 116.672C9.91979 117.032 9.38463 117.211 8.75963 117.211ZM8.75963 116.292C9.16588 116.292 9.51159 116.149 9.79674 115.864C10.0858 115.579 10.3065 115.174 10.4589 114.651C10.6151 114.127 10.6932 113.506 10.6932 112.788V112.776C10.6932 112.057 10.6151 111.438 10.4589 110.918C10.3065 110.395 10.0858 109.993 9.79674 109.711C9.51159 109.426 9.16588 109.284 8.75963 109.284C8.35729 109.284 8.01159 109.426 7.72252 109.711C7.43737 109.993 7.21862 110.395 7.06627 110.918C6.91393 111.438 6.83776 112.057 6.83776 112.776V112.788C6.83776 113.506 6.91393 114.127 7.06627 114.651C7.21862 115.174 7.43737 115.579 7.72252 115.864C8.01159 116.149 8.35729 116.292 8.75963 116.292Z" fill="#AB9193"/>
<path d="M13.3126 117.012V108.188H14.3321V117.012H13.3126ZM17.2911 117.012L14.8243 113.918L15.5743 113.268L18.5743 117.012H17.2911ZM14.2032 114.739L14.1564 113.456H14.4259L17.1564 110.696H18.3927L15.3927 113.59L15.1466 113.831L14.2032 114.739Z" fill="#AB9193"/>
</svg>
