<svg width="138" height="46" viewBox="0 0 138 46" fill="none" xmlns="http://www.w3.org/2000/svg">
<path d="M47.2891 0.133057H55.6401V40.5429C55.6401 40.5429 55.3036 44.4103 60.1798 45.1948C51.6044 45.1948 47.2891 46.4047 47.2891 40.6551V0.133057Z" fill="#49161B"/>
<path d="M64.2244 0.133057H72.5754V40.5429C72.5754 40.5429 72.2389 44.4103 77.1151 45.1948C68.5397 45.1948 64.2244 46.036 64.2244 40.6551V0.133057Z" fill="#49161B"/>
<path d="M42.9549 45.1948C42.9549 45.1948 25.6921 9.10093 21.283 0.133057C21.4743 0.522964 14.4078 7.15799 17.696 14.1823C18.9627 16.8879 21.448 22.1091 24.0256 27.5071C21.7607 29.2363 19.7306 30.4245 17.248 31.8555C18.7054 25.7462 10.8023 18.2364 10.8023 18.2364C10.5226 21.7113 9.73753 24.1213 7.15925 28.6049C4.58164 33.0885 4.69313 36.5073 6.48697 39.4781C8.28015 42.4483 2.00337 45.1387 0.433838 45.8671C9.23348 45.4752 15.9028 38.5248 16.5751 37.6282C21.7316 30.7345 24.7849 29.0964 24.7849 29.0964C28.6589 37.2046 32.4927 45.1948 32.4927 45.1948H42.9549Z" fill="#49161B"/>
<path d="M23.3853 26.2997C23.3853 26.2997 26.1172 23.6587 27.981 23.7009C29.8448 23.7425 30.7961 25.4803 32.2403 25.6624C31.8808 25.9223 31.4981 25.9988 30.7823 25.7613C30.3541 25.6327 30.112 25.4097 29.6119 25.2164C29.3671 25.122 29.0907 25.0547 28.7265 25.0085C28.1262 24.936 26.9683 24.9894 26.1357 25.793C25.1435 26.6467 23.9883 27.536 23.9883 27.536L23.3853 26.2997Z" fill="white"/>
<path d="M28.7256 25.0085C28.1279 24.9551 27.0354 24.9617 26.1355 25.7929C25.1432 26.6466 24.0256 27.5069 24.0256 27.5069" fill="#49161B"/>
<path d="M84.4457 14.6237L83.66 16.6293H85.2321L84.4457 14.6237ZM85.6656 17.6321H83.2259L82.8914 18.4093H81.5818L84.2471 12.3376H84.6535L87.3097 18.4093H86.0001L85.6656 17.6321Z" fill="#49161B"/>
<path d="M95.4598 13.8194L94.5382 14.4699C94.141 13.8372 93.5809 13.4671 92.8308 13.4671C91.7198 13.4671 90.9063 14.2806 90.9063 15.4365C90.9063 16.5844 91.7198 17.388 92.8308 17.388C93.5809 17.388 94.141 17.0179 94.5382 16.3852L95.4598 17.0357C94.9452 17.9488 93.9781 18.5181 92.8215 18.5181C91.0508 18.5181 89.6501 17.1808 89.6501 15.4279C89.6501 13.6749 91.0508 12.3376 92.8308 12.3376C93.9781 12.3376 94.936 12.907 95.4598 13.8194Z" fill="#49161B"/>
<path d="M103.954 13.8194L103.032 14.4699C102.634 13.8372 102.074 13.4671 101.325 13.4671C100.213 13.4671 99.3998 14.2806 99.3998 15.4365C99.3998 16.5844 100.213 17.388 101.325 17.388C102.074 17.388 102.634 17.0179 103.032 16.3852L103.954 17.0357C103.439 17.9488 102.472 18.5181 101.316 18.5181C99.5449 18.5181 98.1443 17.1808 98.1443 15.4279C98.1443 13.6749 99.5449 12.3376 101.325 12.3376C102.472 12.3376 103.43 12.907 103.954 13.8194Z" fill="#49161B"/>
<path d="M107.894 15.4279C107.894 16.5844 108.698 17.3886 109.809 17.3886C110.903 17.3886 111.725 16.5844 111.725 15.4279C111.725 14.2799 110.903 13.4671 109.809 13.4671C108.698 13.4671 107.894 14.2799 107.894 15.4279ZM112.981 15.4279C112.981 17.1802 111.553 18.5175 109.8 18.5175C108.048 18.5175 106.638 17.1802 106.638 15.4279C106.638 13.6749 108.048 12.3376 109.8 12.3376C111.553 12.3376 112.981 13.6749 112.981 15.4279Z" fill="#49161B"/>
<path d="M117.265 15.2286H118.285C118.855 15.2286 119.189 14.8855 119.189 14.3703C119.189 13.8735 118.855 13.5212 118.285 13.5212H117.265V15.2286ZM119.704 18.4092L118.159 16.304H117.265V18.4092H116.045V12.4458H118.285C119.541 12.4458 120.436 13.2052 120.436 14.3703C120.436 15.1382 120.03 15.7439 119.388 16.0599L121.077 18.4092H119.704Z" fill="#49161B"/>
<path d="M82.5331 30.8005H85.1253V31.8943H81.3225V25.9751H82.5331V30.8005Z" fill="#49161B"/>
<path d="M89.2497 31.8943H88.0391V25.9751H89.2497V31.8943Z" fill="#49161B"/>
<path d="M97.7427 25.9751L95.1057 32.0018H94.702L92.0564 25.9751H93.4287L94.9085 29.5621L96.379 25.9751H97.7427Z" fill="#49161B"/>
<path d="M104.548 27.0696H101.777V28.271H103.813V29.3022H101.777V30.8005H104.656V31.8943H100.566V25.9751H104.548V27.0696Z" fill="#49161B"/>
<path d="M82.5167 44.3153H85.0864V45.3999H81.3167V39.5315H82.5167V44.3153Z" fill="#49161B"/>
<path d="M89.1759 45.3999H87.9758V39.5315H89.1759V45.3999Z" fill="#49161B"/>
<path d="M98.2625 39.425V45.3997H97.0624V42.2613L95.5866 44.1191H95.1954L93.7189 42.2613V45.3997H92.5188V39.425H92.91L95.3907 42.6076L97.8713 39.425H98.2625Z" fill="#49161B"/>
<path d="M102.815 45.3999H101.615V39.5315H102.815V45.3999Z" fill="#49161B"/>
<path d="M110.567 40.6168H108.683V45.3999H107.483V40.6168H105.606V39.5315H110.567V40.6168Z" fill="#49161B"/>
<path d="M114.559 44.3153H117.129V45.3999H113.359V39.5315H114.559V44.3153Z" fill="#49161B"/>
<path d="M123.966 40.6168H121.218V41.8076H123.237V42.8302H121.218V44.3153H124.072V45.3999H120.018V39.5315H123.966V40.6168Z" fill="#49161B"/>
<path d="M130.892 40.5361L130.074 41.1674C129.79 40.7406 129.434 40.4919 128.954 40.4919C128.563 40.4919 128.225 40.67 128.225 41.0606C128.225 41.3983 128.483 41.5408 128.91 41.7361L129.576 42.0297C130.501 42.4388 131.025 42.9105 131.025 43.7457C131.025 44.8396 130.136 45.5066 128.972 45.5066C127.958 45.5066 127.14 44.9906 126.704 44.2082L127.531 43.586C127.851 44.0301 128.269 44.4391 128.972 44.4391C129.488 44.4391 129.808 44.1989 129.808 43.7906C129.808 43.4079 129.523 43.2746 129.061 43.0609L128.429 42.7765C127.593 42.3945 127.007 41.9143 127.007 41.0876C127.007 40.0736 127.851 39.425 128.954 39.425C129.887 39.425 130.545 39.8961 130.892 40.5361Z" fill="#49161B"/>
<path d="M137.818 40.5361L137 41.1674C136.716 40.7406 136.36 40.4919 135.88 40.4919C135.488 40.4919 135.151 40.67 135.151 41.0606C135.151 41.3983 135.409 41.5408 135.835 41.7361L136.502 42.0297C137.427 42.4388 137.951 42.9105 137.951 43.7457C137.951 44.8396 137.063 45.5066 135.897 45.5066C134.884 45.5066 134.066 44.9906 133.631 44.2082L134.457 43.586C134.777 44.0301 135.196 44.4391 135.897 44.4391C136.413 44.4391 136.733 44.1989 136.733 43.7906C136.733 43.4079 136.449 43.2746 135.987 43.0609L135.355 42.7765C134.519 42.3945 133.933 41.9143 133.933 41.0876C133.933 40.0736 134.777 39.425 135.88 39.425C136.813 39.425 137.472 39.8961 137.818 40.5361Z" fill="#49161B"/>
</svg>
