<svg width="119" height="68" viewBox="0 0 119 68" fill="none" xmlns="http://www.w3.org/2000/svg">
<path d="M1.5631 32.8133C1.5631 31.5225 1.5631 29.9067 0.895264 28.8314C3.57018 28.8314 6.13379 28.616 8.80871 28.616C13.1532 28.616 15.1603 30.6608 15.1603 33.675C15.1603 37.1165 12.7098 39.6998 8.69741 39.6998C6.91293 39.6998 6.3564 39.3767 5.68678 39.0535C8.3617 38.7304 11.5949 38.3013 11.5949 33.9963C11.5949 31.6284 10.814 29.8008 7.35815 29.8008H4.68503V44.2185C4.68503 45.4015 4.79633 47.125 5.57727 48.2003H0.895264C1.6744 47.125 1.5631 45.4015 1.5631 44.2185V32.8133Z" fill="#49161B"/>
<path d="M40.2219 32.8134C40.2219 31.5226 40.2219 29.9069 39.441 28.8315H44.0117C43.2307 29.9069 43.2307 31.5226 43.2307 32.8134V47.0174H45.9057C47.7996 47.0174 49.471 46.6942 51.1442 45.2958L50.5859 48.0927C49.918 48.2005 49.1371 48.2005 48.4693 48.2005H39.1071C40.1106 47.0174 40.2219 42.7124 40.2219 41.3139V32.8134Z" fill="#49161B"/>
<path d="M71.4179 48.2005L67.7394 39.7H60.1617C58.6016 42.3892 57.1529 45.2958 57.1529 47.0174C57.1529 47.4465 57.1529 47.7696 57.2642 48.2005H53.0292L53.697 47.3387C55.7041 45.188 62.6122 32.1671 62.6122 29.6933L62.7235 28.8315H66.7359C68.8525 34.8582 70.9709 41.4216 74.4267 47.0174L75.0946 48.2005H71.4179ZM64.8419 32.0594C64.7306 31.844 64.508 31.3072 64.1723 31.3072C63.9497 31.3072 63.7271 31.844 63.6157 32.0594L60.7182 38.5169H67.1829L64.8419 32.0594Z" fill="#49161B"/>
<path d="M92.7616 32.49H92.6485C91.7563 31.0915 90.6415 29.693 87.1892 29.693C81.8394 29.693 79.721 33.5671 79.721 37.8703C79.721 42.7121 82.3959 46.3708 87.9683 46.3708C90.8659 46.3708 92.8729 45.2955 93.8747 44.326V44.4337C93.8747 45.834 91.4224 48.631 86.0743 48.631C79.9436 48.631 76.1538 44.326 76.1538 38.7302C76.1538 32.5977 80.2775 28.4004 87.1892 28.4004C89.1945 28.4004 90.5319 28.6158 92.8729 28.6158L92.7616 32.49Z" fill="#49161B"/>
<path d="M101.957 47.0174H105.856C107.974 47.0174 110.091 46.4788 111.764 45.2958L111.095 47.985C110.204 48.0927 109.089 48.2005 107.863 48.2005H98.0557C98.8348 47.1251 98.8348 45.6171 98.8348 44.2186V32.8134C98.8348 31.5226 98.8348 29.9069 98.167 28.8315H109.98L110.091 31.1995C108.976 30.3378 107.082 30.1223 105.077 30.1223H101.957V37.332C104.52 37.332 107.307 37.332 109.868 37.1166C108.754 38.84 104.854 38.84 102.736 38.84H101.957V47.0174Z" fill="#49161B"/>
<path d="M31.752 48.2005L28.0753 39.7H20.3845C18.9357 42.3892 17.4869 45.2958 17.4869 47.0174C17.4869 47.4465 17.4869 47.7696 17.5982 48.2005H13.252L14.0329 47.3387C16.04 45.188 22.9481 32.1671 22.9481 29.6933L23.0594 28.8315H27.0718C29.1884 34.8582 31.3067 41.4216 34.7608 47.0174L35.4304 48.2005H31.752ZM25.0665 32.0594C24.9103 31.7434 24.7792 31.3628 24.5082 31.3072C24.2855 31.3072 24.0629 31.844 23.9516 32.0594L21.0541 38.5169H27.517L25.0665 32.0594Z" fill="#49161B"/>
<mask id="mask0_210_1782" style="mask-type:luminance" maskUnits="userSpaceOnUse" x="20" y="56" width="11" height="12">
<path d="M20.6573 56.6003H30.7682V67.9283H20.6573V56.6003Z" fill="white"/>
</mask>
<g mask="url(#mask0_210_1782)">
<path d="M28.8473 66.0057C29.4595 66.7453 29.7665 67.0415 30.5313 67.6322H28.8473C28.0808 67.6322 27.772 67.1887 27.3142 66.7453L25.0145 63.7849C24.2479 62.7491 24.0935 62.4529 23.0218 62.3057V65.4132C23.0218 66.1547 23.0218 67.0415 23.4813 67.6322H20.722C21.336 66.8925 21.336 66.0057 21.336 65.266V59.0491C21.336 58.3094 21.336 57.4208 20.8764 56.8284C22.4078 56.8284 23.9409 56.6812 25.4741 56.6812C27.3142 56.6812 28.386 57.5698 28.386 58.9019C28.386 60.5284 27.0072 61.566 25.6267 62.0094L28.8473 66.0057ZM23.0218 61.7132C23.3269 61.7132 23.6357 61.7132 23.7883 61.7132C25.6267 61.7132 26.7002 60.8264 26.7002 59.1963C26.7002 57.5698 25.6267 57.4208 23.9409 57.2736H23.0218C23.0218 57.5698 23.0218 57.866 23.0218 58.1604V61.7132Z" fill="#49161B"/>
</g>
<mask id="mask1_210_1782" style="mask-type:luminance" maskUnits="userSpaceOnUse" x="31" y="56" width="9" height="12">
<path d="M31.6873 56.6003H39.9598V67.9283H31.6873V56.6003Z" fill="white"/>
</mask>
<g mask="url(#mask1_210_1782)">
<path d="M34.0211 66.8925H36.1683C37.3944 66.8925 38.6206 66.7453 39.5397 66.0057L39.0801 67.485C38.6206 67.6322 38.0066 67.6322 37.3944 67.6322H31.874C32.3354 67.0415 32.3354 66.1547 32.3354 65.4132V59.0491C32.3354 58.3094 32.3354 57.4208 31.874 56.8284H38.4662L38.6206 58.1604C38.0066 57.5698 36.933 57.5698 35.8613 57.5698H34.0211V61.566C35.5543 61.566 37.0874 61.566 38.4662 61.417C37.854 62.4529 35.7069 62.4529 34.4825 62.4529H34.0211V66.8925Z" fill="#49161B"/>
</g>
<mask id="mask2_210_1782" style="mask-type:luminance" maskUnits="userSpaceOnUse" x="41" y="56" width="9" height="12">
<path d="M41.3386 56.1409H49.1515V67.9285H41.3386V56.1409Z" fill="white"/>
</mask>
<g mask="url(#mask2_210_1782)">
<path d="M41.3422 65.5622C41.9561 66.1547 42.7209 67.1887 44.7154 67.1887C46.0942 67.1887 47.1677 66.4491 47.1677 65.117C47.1677 62.3057 41.8035 62.6019 41.8035 59.4925C41.8035 57.5698 43.6419 56.5339 45.6346 56.5339C46.5538 56.5339 47.4747 56.6811 48.5465 56.6811V58.3094C47.6273 57.4208 47.1677 57.2736 45.9416 57.2736C44.5628 57.2736 43.4875 57.866 43.4875 59.0491C43.4875 61.7132 49.0079 61.417 49.0079 64.6736C49.0079 66.7453 46.7082 67.9284 44.5628 67.9284C43.6419 67.9284 42.1087 67.6322 41.3422 67.3377V65.5622Z" fill="#49161B"/>
</g>
<mask id="mask3_210_1782" style="mask-type:luminance" maskUnits="userSpaceOnUse" x="50" y="56" width="13" height="12">
<path d="M50.5302 56.1409H62.9389V67.9285H50.5302V56.1409Z" fill="white"/>
</mask>
<g mask="url(#mask3_210_1782)">
<path d="M56.5674 67.9284C52.5838 67.9284 50.8962 65.4132 50.8962 62.4529C50.8962 59.1963 52.889 56.5339 56.8744 56.5339C60.8599 56.5339 62.5456 59.0491 62.5456 62.0094C62.5456 65.266 60.5529 67.9284 56.5674 67.9284ZM56.72 57.2736C53.9625 57.2736 52.889 59.4925 52.889 62.0094C52.889 64.2284 53.6555 67.1887 56.72 67.1887C59.4793 67.1887 60.5529 64.9698 60.5529 62.4529C60.5529 60.2339 59.7863 57.2736 56.72 57.2736Z" fill="#49161B"/>
</g>
<mask id="mask4_210_1782" style="mask-type:luminance" maskUnits="userSpaceOnUse" x="64" y="56" width="11" height="12">
<path d="M64.3176 56.6003H74.4285V67.9283H64.3176V56.6003Z" fill="white"/>
</mask>
<g mask="url(#mask4_210_1782)">
<path d="M72.6297 66.0057C73.0911 66.7453 73.3963 67.0415 74.1629 67.6322H72.6297C71.8649 67.6322 71.4036 67.1887 71.0966 66.7453L68.6461 63.7849C67.8795 62.7491 67.7269 62.4529 66.6515 62.3057V65.4132C66.6515 66.1547 66.6515 67.0415 67.1129 67.6322H64.5062C64.9676 66.8925 64.9676 66.0057 64.9676 65.266V59.0491C64.9676 58.3094 64.9676 57.4208 64.5062 56.8284C66.192 56.8284 67.7269 56.6812 69.1039 56.6812C71.0966 56.6812 72.0175 57.5698 72.0175 58.9019C72.0175 60.5284 70.637 61.566 69.2582 62.0094L72.6297 66.0057ZM66.6515 61.7132C66.9585 61.7132 67.2655 61.7132 67.5725 61.7132C69.4108 61.7132 70.3318 60.8264 70.3318 59.1963C70.3318 57.5698 69.2582 57.4208 67.5725 57.2736H66.8059C66.6515 57.5698 66.6515 57.866 66.6515 58.1604V61.7132Z" fill="#49161B"/>
</g>
<mask id="mask5_210_1782" style="mask-type:luminance" maskUnits="userSpaceOnUse" x="73" y="56" width="12" height="12">
<path d="M73.5094 56.6003H84.0798V67.9283H73.5094V56.6003Z" fill="white"/>
</mask>
<g mask="url(#mask5_210_1782)">
<path d="M77.1949 67.6322C77.6545 67.0415 77.6545 66.1547 77.6545 65.4132V57.717H75.2022C74.7426 57.717 74.2812 57.717 73.8217 58.0132L74.1286 56.8284H83.7871C83.3257 57.5698 82.2539 57.717 81.4874 57.717H79.3402V65.4132C79.3402 66.1547 79.3402 67.0415 79.8016 67.6322H77.1949Z" fill="#49161B"/>
</g>
<mask id="mask6_210_1782" style="mask-type:luminance" maskUnits="userSpaceOnUse" x="84" y="56" width="9" height="12">
<path d="M84.0798 56.1409H92.3523V67.9285H84.0798V56.1409Z" fill="white"/>
</mask>
<g mask="url(#mask6_210_1782)">
<path d="M84.2719 65.5622C84.884 66.1547 85.6506 67.1887 87.6451 67.1887C89.1765 67.1887 90.25 66.4491 90.25 65.117C90.25 62.3057 84.7314 62.6019 84.7314 59.4925C84.7314 57.5698 86.5716 56.5339 88.5643 56.5339C89.4835 56.5339 90.557 56.6811 91.4762 56.6811V58.3094C90.557 57.4208 90.0974 57.2736 88.8713 57.2736C87.4907 57.2736 86.5716 57.866 86.5716 59.0491C86.5716 61.7132 91.9358 61.417 91.9358 64.6736C91.9358 66.7453 89.6378 67.9284 87.4907 67.9284C86.5716 67.9284 85.191 67.6322 84.2719 67.3377V65.5622Z" fill="#49161B"/>
</g>
<path d="M43.728 0.0715332L47.1713 9.77484L50.243 4.72302L43.728 0.0715332Z" fill="#49161B"/>
<path d="M68.0123 9.34217L67.1416 12.141C82.1768 13.0817 95.5855 15.9307 105.933 19.9108C97.7721 14.5304 84.1318 10.6312 68.0123 9.34217ZM6.72437 19.9108C17.1296 15.9092 30.6299 13.0511 45.6992 12.1248L44.7244 9.3296C28.6389 10.6096 15.0076 14.5161 6.72437 19.9108ZM46.9684 9.17162L47.9576 12.0027C50.6828 11.8717 53.4546 11.8017 56.2678 11.8017C59.1958 11.8017 62.0772 11.8771 64.9065 12.0153L65.788 9.18059C62.6912 8.98312 59.5118 8.8772 56.2678 8.8772C53.0992 8.8772 49.9952 8.97953 46.9684 9.17162Z" fill="#49161B"/>
<path d="M68.9709 0.100342L65.5204 9.96163L62.4559 4.75362L68.9709 0.100342Z" fill="#49161B"/>
<path d="M58.2227 2.00865L56.3 3.93136L54.3773 2.00865L56.3 0.0859375L58.2227 2.00865Z" fill="#49161B"/>
<path d="M55.5299 4.74098L53.6072 6.66369L51.6863 4.74098L53.6072 2.82007L55.5299 4.74098Z" fill="#49161B"/>
<path d="M61.0036 4.74098L59.0809 6.66369L57.1582 4.74098L59.0809 2.82007L61.0036 4.74098Z" fill="#49161B"/>
<path d="M114.52 33.781V30.7686H115.856C116.123 30.7686 116.328 30.7955 116.468 30.8493C116.608 30.905 116.719 31.0001 116.802 31.1366C116.886 31.273 116.927 31.4238 116.927 31.5908C116.927 31.8026 116.859 31.9839 116.721 32.1294C116.583 32.2766 116.369 32.3699 116.08 32.4094C116.184 32.4597 116.265 32.5099 116.321 32.5584C116.435 32.6661 116.545 32.799 116.649 32.9606L117.171 33.781H116.672L116.274 33.1526C116.157 32.9731 116.062 32.8331 115.987 32.7379C115.911 32.6428 115.845 32.5746 115.786 32.5369C115.725 32.4992 115.663 32.4722 115.602 32.4579C115.558 32.4471 115.484 32.4435 115.38 32.4435H114.918V33.781H114.52ZM114.918 32.0952H115.775C115.958 32.0952 116.1 32.0773 116.204 32.0396C116.306 32.0019 116.383 31.9409 116.437 31.8583C116.491 31.7757 116.518 31.6859 116.518 31.589C116.518 31.4454 116.466 31.3287 116.362 31.2371C116.259 31.1456 116.094 31.0989 115.872 31.0989H114.918V32.0952Z" fill="#49161B"/>
<mask id="mask7_210_1782" style="mask-type:luminance" maskUnits="userSpaceOnUse" x="112" y="29" width="7" height="7">
<path d="M112.574 29.0254H118.796V35.4596H112.574V29.0254Z" fill="white"/>
</mask>
<g mask="url(#mask7_210_1782)">
<path d="M118.249 32.3033C118.249 33.7054 117.109 34.8454 115.709 34.8454C114.306 34.8454 113.168 33.7054 113.168 32.3033C113.168 30.903 114.306 29.763 115.709 29.763C117.109 29.763 118.249 30.903 118.249 32.3033ZM115.709 29.2173C114.007 29.2173 112.621 30.6014 112.621 32.3033C112.621 34.007 114.007 35.3911 115.709 35.3911C117.41 35.3911 118.796 34.007 118.796 32.3033C118.796 30.6014 117.41 29.2173 115.709 29.2173Z" fill="#49161B"/>
</g>
</svg>
