<svg width="168" height="38" viewBox="0 0 168 38" fill="none" xmlns="http://www.w3.org/2000/svg">
<path fill-rule="evenodd" clip-rule="evenodd" d="M60.723 25.8799C59.6024 26.3602 58.4829 26.8404 57.3634 27.3196C56.8031 31.0154 54.5481 33.7827 50.5972 35.6215C50.4451 36.0846 50.2942 36.5477 50.1421 37.0109C56.508 34.9457 60.0346 31.2361 60.723 25.8799Z" fill="#49161B"/>
<path fill-rule="evenodd" clip-rule="evenodd" d="M29.6284 24.3533C29.7405 23.6043 29.8525 22.8542 29.9646 22.104C36.2539 23.9954 40.2597 28.4608 41.9841 35.5003C42.9126 25.6855 46.9973 18.4448 54.238 13.7781C54.8761 14.2252 55.513 14.6734 56.1511 15.1206C47.68 19.6866 43.1253 27.1172 42.4872 37.4134C42.286 37.3917 42.0847 37.3688 41.8823 37.3459C40.4621 30.4414 36.3774 26.1109 29.6284 24.3533Z" fill="#49161B"/>
<mask id="mask0_210_1866" style="mask-type:luminance" maskUnits="userSpaceOnUse" x="30" y="16" width="29" height="22">
<path d="M30.0505 16.2744H58.7391V37.8491H30.0505V16.2744Z" fill="white"/>
</mask>
<g mask="url(#mask0_210_1866)">
<path fill-rule="evenodd" clip-rule="evenodd" d="M30.3342 21.0303C30.5915 20.3808 30.8488 19.7313 31.1061 19.0829C38.4475 21.7233 42.834 27.5884 44.2668 36.6747C45.3189 26.637 49.6391 19.8433 57.2263 16.2961C57.6734 16.8668 58.1217 17.4374 58.5688 18.008C51.2274 20.2802 45.1622 28.3042 44.603 37.649C44.356 37.6261 44.1102 37.6033 43.8643 37.5815C42.3754 28.9526 37.8654 23.4363 30.3342 21.0303Z" fill="#49161B"/>
</g>
<mask id="mask1_210_1866" style="mask-type:luminance" maskUnits="userSpaceOnUse" x="31" y="15" width="30" height="23">
<path d="M31.8071 15.9817H60.2029V37.8491H31.8071V15.9817Z" fill="white"/>
</mask>
<g mask="url(#mask1_210_1866)">
<path fill-rule="evenodd" clip-rule="evenodd" d="M31.8447 17.9073C32.3147 17.3252 32.7847 16.7432 33.2547 16.1611C40.6635 19.4739 45.0283 26.3682 46.3479 36.8428C47.4789 27.9794 51.7648 22.0708 59.2068 19.116C59.4755 19.8215 59.7442 20.5259 60.0129 21.2315C52.8168 22.9662 48.3296 28.4379 46.5492 37.6489C46.3376 37.6489 46.1249 37.6489 45.9123 37.6489C45.1953 27.8456 39.3313 20.3247 31.8447 17.9073Z" fill="#49161B"/>
</g>
<path fill-rule="evenodd" clip-rule="evenodd" d="M34.4304 15.1882C35.1131 14.7411 35.7958 14.2928 36.4785 13.8457C43.7409 18.6462 47.7581 25.8423 48.5311 35.433C50.355 28.573 54.2601 24.1522 60.2476 22.1716C60.4042 22.9218 60.5609 23.6708 60.7176 24.4209C54.2601 26.1888 50.243 30.509 48.6649 37.3804C48.4522 37.369 48.2395 37.3575 48.0268 37.3461C47.5008 27.3197 42.969 19.9338 34.4304 15.1882Z" fill="#49161B"/>
<path fill-rule="evenodd" clip-rule="evenodd" d="M39.8355 14.4837C39.2535 14.024 38.6714 13.5654 38.0894 13.1069C42.7332 10.9582 47.624 10.9582 52.7607 13.1069C52.1557 13.5654 51.552 14.024 50.9482 14.4837C47.2878 12.4916 43.5839 12.4916 39.8355 14.4837Z" fill="#49161B"/>
<path fill-rule="evenodd" clip-rule="evenodd" d="M39.9957 35.4512C40.1672 35.9738 40.3387 36.4952 40.5102 37.0178C34.1946 35.0635 30.6074 31.3505 29.7498 25.8777C30.9436 26.3625 32.1363 26.8462 33.329 27.3311C34.0894 30.9183 36.3124 33.625 39.9957 35.4512Z" fill="#49161B"/>
<path fill-rule="evenodd" clip-rule="evenodd" d="M0.848744 0.150879C4.46911 0.150879 8.08948 0.150879 11.7087 0.150879C16.7459 0.43104 20.5229 2.17948 23.0409 5.39733C25.0341 8.77298 24.8591 12.3922 22.5161 16.2573C21.2925 17.7965 19.2285 19.0555 16.3262 20.0343C20.3651 25.8056 24.4052 31.577 28.4441 37.3471C27.7099 37.3471 26.9758 37.3471 26.2416 37.3471C24.667 37.1905 23.0238 36.3683 21.3097 34.8817C17.9169 29.88 14.524 24.8794 11.1324 19.8777C15.5738 18.7936 18.4063 16.5203 19.631 13.0577C20.6453 9.1229 19.5612 6.13261 16.3777 4.08572C13.8597 2.35443 9.80247 1.56769 4.20725 1.7255C4.52172 1.84786 4.83618 1.97021 5.15065 2.09257C5.15065 13.8616 5.15065 25.6307 5.15065 37.3997C2.54572 37.2248 1.09346 35.7908 0.796143 33.0978C0.814439 22.1155 0.831592 11.1332 0.848744 0.150879Z" fill="#49161B"/>
<path fill-rule="evenodd" clip-rule="evenodd" d="M80.4143 36.948C80.4258 36.7342 80.4384 36.5192 80.4498 36.3054C78.0095 36.7342 76.3549 36.6862 75.4858 36.1624C73.8906 35.4843 73.0101 33.6387 72.8431 30.6267C72.8546 25.2579 72.8671 19.8891 72.8786 14.5191C72.4738 14.3888 72.069 14.2573 71.6642 14.1269C74.2359 14.1383 76.8077 14.1509 79.3783 14.1624C79.3783 13.7107 79.3783 13.2578 79.3783 12.805C77.2239 12.805 75.0696 12.805 72.914 12.805C72.914 11.9599 72.914 11.1149 72.914 10.2698C72.4143 8.00796 71.0101 6.84157 68.7002 6.76953C68.7002 8.76954 68.7002 10.7695 68.7002 12.7696C67.1999 12.7696 65.6996 12.7696 64.2004 12.7696C64.2004 13.2224 64.2004 13.6741 64.2004 14.1269C65.6641 14.1383 67.129 14.1509 68.5927 14.1624C68.5927 20.0675 68.5927 25.9726 68.5927 31.8766C68.7482 34.8646 70.3068 36.6862 73.2719 37.3414C74.4623 37.6627 76.8431 37.5312 80.4143 36.948Z" fill="#49161B"/>
<mask id="mask2_210_1866" style="mask-type:luminance" maskUnits="userSpaceOnUse" x="85" y="11" width="23" height="27">
<path d="M85.3784 11.5906H107.627V37.8491H85.3784V11.5906Z" fill="white"/>
</mask>
<g mask="url(#mask2_210_1866)">
<path fill-rule="evenodd" clip-rule="evenodd" d="M88.2361 17.0201C88.2361 16.2345 88.2361 15.4489 88.2361 14.6622C90.2476 13.2099 92.426 12.2814 94.7713 11.8766C97.7365 11.4249 100.582 11.6867 103.308 12.6621C105.677 13.8411 107.07 15.8057 107.486 18.5558C107.486 24.7823 107.486 31.0076 107.486 37.234C104.986 37.1631 103.581 36.0436 103.272 33.8766C101.807 34.8532 100.344 35.8298 98.8788 36.8052C95.9617 37.4719 93.8314 37.8058 92.4866 37.8058C89.4151 37.3769 87.3911 36.3295 86.4145 34.6622C85.0572 32.2574 85.1761 29.9487 86.7713 27.7337C88.2602 25.6982 91.534 24.0195 96.593 22.6988C100.129 21.8057 102.26 21.3174 102.986 21.2339C103.415 17.5198 102.606 15.1859 100.558 14.2345C95.9503 12.4003 91.8428 13.3288 88.2361 17.0201ZM103.129 22.5193C100.771 23.1985 98.4146 23.8766 96.0578 24.5559C93.5581 25.4478 91.8199 26.7457 90.8434 28.4484C90.0097 30.5559 90.2236 32.5433 91.486 34.413C92.7953 35.6742 94.5335 36.1751 96.7004 35.9132C98.7245 35.6514 100.89 34.437 103.2 32.27C103.176 29.0201 103.153 25.7703 103.129 22.5193Z" fill="#49161B"/>
</g>
<mask id="mask3_210_1866" style="mask-type:luminance" maskUnits="userSpaceOnUse" x="145" y="11" width="23" height="27">
<path d="M145.39 11.5906H167.434V37.8491H145.39V11.5906Z" fill="white"/>
</mask>
<g mask="url(#mask3_210_1866)">
<path fill-rule="evenodd" clip-rule="evenodd" d="M148.192 17.0565C148.192 16.271 148.192 15.4854 148.192 14.6998C150.204 13.2475 152.383 12.319 154.728 11.9142C157.692 11.4613 160.537 11.7232 163.263 12.6998C165.633 13.8787 167.025 15.8421 167.442 18.5923C167.442 24.8187 167.442 31.0452 167.442 37.2716C164.942 37.1996 163.538 36.0812 163.228 33.9143C161.764 34.8908 160.299 35.8662 158.836 36.8428C155.919 37.5095 153.787 37.8422 152.442 37.8422C149.371 37.4146 147.347 36.3671 146.371 34.6998C145.014 32.295 145.133 29.9851 146.728 27.7713C148.216 25.7358 151.49 24.0572 156.55 22.7352C160.085 21.8422 162.216 21.355 162.942 21.2715C163.371 17.5574 162.561 15.2235 160.513 14.2709C155.907 12.4379 151.8 13.3664 148.192 17.0565ZM163.085 22.5569C160.728 23.2361 158.371 23.9142 156.013 24.5923C153.514 25.4854 151.776 26.7833 150.799 28.486C149.967 30.5923 150.18 32.5809 151.442 34.4494C152.752 35.7119 154.49 36.2116 156.656 35.9497C158.68 35.6878 160.847 34.4734 163.157 32.3065C163.133 29.0566 163.109 25.8067 163.085 22.5569Z" fill="#49161B"/>
</g>
<path fill-rule="evenodd" clip-rule="evenodd" d="M139.333 37.2444C139.333 31.5966 139.333 25.9487 139.333 20.3009C139.283 17.8378 138.338 15.7234 136.497 13.9567C133.237 11.8663 129.331 11.4684 124.778 12.7617C122.303 13.6708 120.299 15.449 118.769 18.0985C119.018 14.6531 117.624 12.9241 114.589 12.9115C114.577 19.8526 114.564 26.7949 114.552 33.7361C114.987 36.0128 116.393 37.17 118.769 37.2066C118.769 32.8407 118.769 28.4736 118.769 24.1077C118.981 20.525 120.163 17.7383 122.315 15.7474C124.081 14.2426 126.345 13.6582 129.108 13.9933C132.242 14.2803 134.182 16.0836 134.929 19.4055C135.065 19.903 135.128 21.1471 135.116 23.1368C135.116 26.5708 135.116 30.0048 135.116 33.4376C135.452 35.8516 136.857 37.1197 139.333 37.2444Z" fill="#49161B"/>
</svg>
