<svg width="86" height="13" viewBox="0 0 86 13" fill="none" xmlns="http://www.w3.org/2000/svg">
<path d="M3.61157 10.3372V2.20581H0.659912V1.17749H7.70581V2.20581H4.75415V10.3372H3.61157Z" fill="#896B6E"/>
<path d="M10.6133 10.4578C9.96583 10.4578 9.40512 10.316 8.93116 10.0325C8.46144 9.74471 8.0975 9.33634 7.83937 8.80737C7.58546 8.2784 7.45851 7.64998 7.45851 6.92212V6.90942C7.45851 6.17733 7.58546 5.54679 7.83937 5.01782C8.0975 4.48885 8.46144 4.0826 8.93116 3.79907C9.40512 3.51554 9.96583 3.37378 10.6133 3.37378C11.265 3.37378 11.8257 3.51554 12.2954 3.79907C12.7651 4.0826 13.127 4.48885 13.3809 5.01782C13.639 5.54679 13.7681 6.17733 13.7681 6.90942V6.92212C13.7681 7.64998 13.639 8.2784 13.3809 8.80737C13.127 9.33634 12.7651 9.74471 12.2954 10.0325C11.8257 10.316 11.265 10.4578 10.6133 10.4578ZM10.6133 9.48022C11.0449 9.48022 11.411 9.37866 11.7114 9.17554C12.0119 8.97241 12.2404 8.68042 12.397 8.29956C12.5578 7.9187 12.6382 7.45955 12.6382 6.92212V6.90942C12.6382 6.36776 12.5578 5.90649 12.397 5.52563C12.2404 5.14478 12.0119 4.8549 11.7114 4.65601C11.411 4.45288 11.0449 4.35132 10.6133 4.35132C10.1817 4.35132 9.8156 4.45288 9.51515 4.65601C9.21469 4.8549 8.98406 5.14478 8.82325 5.52563C8.66668 5.90649 8.58839 6.36776 8.58839 6.90942V6.92212C8.58839 7.45955 8.66668 7.9187 8.82325 8.29956C8.98406 8.68042 9.21469 8.97241 9.51515 9.17554C9.8156 9.37866 10.1817 9.48022 10.6133 9.48022Z" fill="#896B6E"/>
<path d="M17.6531 10.3879C16.9506 10.3879 16.4407 10.2462 16.1233 9.96265C15.8102 9.67912 15.6536 9.21151 15.6536 8.55981V4.40845H14.5745V3.49438H15.6536V1.72339H16.7962V3.49438H18.2942V4.40845H16.7962V8.28052C16.7962 8.68254 16.8723 8.97241 17.0247 9.15015C17.177 9.32365 17.4309 9.4104 17.7864 9.4104C17.8837 9.4104 17.9662 9.40828 18.034 9.40405C18.1059 9.39982 18.1926 9.39347 18.2942 9.38501V10.3245C18.1884 10.3414 18.0826 10.3562 17.9768 10.3689C17.871 10.3816 17.7631 10.3879 17.6531 10.3879Z" fill="#896B6E"/>
<path d="M21.5635 10.4578C21.1319 10.4578 20.7425 10.3752 20.3955 10.2102C20.0528 10.0452 19.7798 9.8103 19.5767 9.50562C19.3778 9.20093 19.2783 8.84123 19.2783 8.42651V8.41382C19.2783 8.00757 19.3757 7.66056 19.5703 7.3728C19.765 7.08081 20.0485 6.85229 20.4209 6.68726C20.7933 6.52222 21.244 6.42489 21.773 6.39526L24.2866 6.24292V7.12524L21.9063 7.27759C21.3858 7.30721 21.0049 7.41512 20.7637 7.60132C20.5267 7.78752 20.4082 8.04989 20.4082 8.38843V8.40112C20.4082 8.74813 20.5394 9.01896 20.8018 9.21362C21.0642 9.40405 21.3942 9.49927 21.792 9.49927C22.1686 9.49927 22.503 9.42521 22.795 9.2771C23.0869 9.12476 23.3155 8.91951 23.4805 8.66138C23.6498 8.40324 23.7344 8.11125 23.7344 7.7854V5.65259C23.7344 5.22941 23.6053 4.9078 23.3472 4.68774C23.0933 4.46346 22.7103 4.35132 22.1983 4.35132C21.7878 4.35132 21.4514 4.42537 21.189 4.57349C20.9266 4.71737 20.751 4.92261 20.6621 5.18921L20.6558 5.20825H19.5513L19.5576 5.17017C19.6169 4.81047 19.765 4.49731 20.002 4.23071C20.2432 3.95988 20.5542 3.75041 20.9351 3.60229C21.3159 3.44995 21.7497 3.37378 22.2364 3.37378C22.795 3.37378 23.2668 3.46476 23.6519 3.64673C24.0412 3.82869 24.3353 4.09106 24.5342 4.43384C24.7373 4.77238 24.8389 5.17863 24.8389 5.65259V10.3372H23.7344V9.32788H23.6328C23.489 9.56909 23.3133 9.77433 23.106 9.9436C22.9029 10.1129 22.6722 10.2419 22.4141 10.3308C22.156 10.4154 21.8724 10.4578 21.5635 10.4578Z" fill="#896B6E"/>
<path d="M26.6609 10.3372V0.777588H27.7654V10.3372H26.6609Z" fill="#896B6E"/>
<path d="M36.4241 10.4578C36.1068 10.4578 35.8126 10.4091 35.5418 10.3118C35.271 10.2144 35.0298 10.0769 34.8182 9.89917C34.6066 9.7172 34.431 9.49927 34.2913 9.24536H34.1898V10.3372H33.0853V0.777588H34.1898V4.57349H34.2913C34.4183 4.32804 34.5875 4.11646 34.7991 3.93872C35.015 3.76099 35.2604 3.62345 35.5355 3.52612C35.8148 3.42456 36.111 3.37378 36.4241 3.37378C37.0039 3.37378 37.5075 3.51978 37.9349 3.81177C38.3665 4.10376 38.7008 4.51424 38.9378 5.04321C39.1748 5.57218 39.2933 6.19425 39.2933 6.90942V6.92212C39.2933 7.63306 39.1748 8.25513 38.9378 8.78833C38.7008 9.3173 38.3665 9.72778 37.9349 10.0198C37.5075 10.3118 37.0039 10.4578 36.4241 10.4578ZM36.1702 9.48022C36.5892 9.48022 36.9468 9.37866 37.243 9.17554C37.5392 8.96818 37.7656 8.67407 37.9222 8.29321C38.083 7.90812 38.1634 7.45109 38.1634 6.92212V6.90942C38.1634 6.37622 38.083 5.91919 37.9222 5.53833C37.7656 5.15747 37.5392 4.86548 37.243 4.66235C36.9468 4.455 36.5892 4.35132 36.1702 4.35132C35.7555 4.35132 35.3979 4.455 35.0975 4.66235C34.797 4.86971 34.5664 5.16382 34.4056 5.54468C34.2448 5.92554 34.1644 6.38045 34.1644 6.90942V6.92212C34.1644 7.44686 34.2448 7.90177 34.4056 8.28687C34.5664 8.66772 34.797 8.96183 35.0975 9.16919C35.3979 9.37655 35.7555 9.48022 36.1702 9.48022Z" fill="#896B6E"/>
<path d="M43.5592 10.4578C42.9117 10.4578 42.351 10.316 41.877 10.0325C41.4073 9.74471 41.0434 9.33634 40.7852 8.80737C40.5313 8.2784 40.4044 7.64998 40.4044 6.92212V6.90942C40.4044 6.17733 40.5313 5.54679 40.7852 5.01782C41.0434 4.48885 41.4073 4.0826 41.877 3.79907C42.351 3.51554 42.9117 3.37378 43.5592 3.37378C44.2108 3.37378 44.7716 3.51554 45.2413 3.79907C45.711 4.0826 46.0728 4.48885 46.3267 5.01782C46.5849 5.54679 46.7139 6.17733 46.7139 6.90942V6.92212C46.7139 7.64998 46.5849 8.2784 46.3267 8.80737C46.0728 9.33634 45.711 9.74471 45.2413 10.0325C44.7716 10.316 44.2108 10.4578 43.5592 10.4578ZM43.5592 9.48022C43.9908 9.48022 44.3568 9.37866 44.6573 9.17554C44.9578 8.97241 45.1863 8.68042 45.3428 8.29956C45.5036 7.9187 45.5841 7.45955 45.5841 6.92212V6.90942C45.5841 6.36776 45.5036 5.90649 45.3428 5.52563C45.1863 5.14478 44.9578 4.8549 44.6573 4.65601C44.3568 4.45288 43.9908 4.35132 43.5592 4.35132C43.1275 4.35132 42.7615 4.45288 42.461 4.65601C42.1606 4.8549 41.9299 5.14478 41.7691 5.52563C41.6125 5.90649 41.5342 6.36776 41.5342 6.90942V6.92212C41.5342 7.45955 41.6125 7.9187 41.7691 8.29956C41.9299 8.68042 42.1606 8.97241 42.461 9.17554C42.7615 9.37866 43.1275 9.48022 43.5592 9.48022Z" fill="#896B6E"/>
<path d="M50.9798 10.4578C50.3324 10.4578 49.7716 10.316 49.2977 10.0325C48.828 9.74471 48.464 9.33634 48.2059 8.80737C47.952 8.2784 47.825 7.64998 47.825 6.92212V6.90942C47.825 6.17733 47.952 5.54679 48.2059 5.01782C48.464 4.48885 48.828 4.0826 49.2977 3.79907C49.7716 3.51554 50.3324 3.37378 50.9798 3.37378C51.6315 3.37378 52.1922 3.51554 52.6619 3.79907C53.1317 4.0826 53.4935 4.48885 53.7474 5.01782C54.0055 5.54679 54.1346 6.17733 54.1346 6.90942V6.92212C54.1346 7.64998 54.0055 8.2784 53.7474 8.80737C53.4935 9.33634 53.1317 9.74471 52.6619 10.0325C52.1922 10.316 51.6315 10.4578 50.9798 10.4578ZM50.9798 9.48022C51.4115 9.48022 51.7775 9.37866 52.078 9.17554C52.3784 8.97241 52.6069 8.68042 52.7635 8.29956C52.9243 7.9187 53.0047 7.45955 53.0047 6.92212V6.90942C53.0047 6.36776 52.9243 5.90649 52.7635 5.52563C52.6069 5.14478 52.3784 4.8549 52.078 4.65601C51.7775 4.45288 51.4115 4.35132 50.9798 4.35132C50.5482 4.35132 50.1821 4.45288 49.8817 4.65601C49.5812 4.8549 49.3506 5.14478 49.1898 5.52563C49.0332 5.90649 48.9549 6.36776 48.9549 6.90942V6.92212C48.9549 7.45955 49.0332 7.9187 49.1898 8.29956C49.3506 8.68042 49.5812 8.97241 49.8817 9.17554C50.1821 9.37866 50.5482 9.48022 50.9798 9.48022Z" fill="#896B6E"/>
<path d="M55.6519 10.3372V0.777588H56.7564V10.3372H55.6519ZM59.962 10.3372L57.2896 6.9856L58.1021 6.28101L61.3521 10.3372H59.962ZM56.6168 7.87427L56.566 6.48413H56.858L59.816 3.49438H61.1554L57.9054 6.63013L57.6388 6.89038L56.6168 7.87427Z" fill="#896B6E"/>
<path d="M62.4125 10.3372V3.49438H63.5169V10.3372H62.4125ZM62.971 2.17407C62.7637 2.17407 62.5838 2.10002 62.4315 1.9519C62.2834 1.79956 62.2093 1.61971 62.2093 1.41235C62.2093 1.20076 62.2834 1.02091 62.4315 0.872803C62.5838 0.724691 62.7637 0.650635 62.971 0.650635C63.1826 0.650635 63.3625 0.724691 63.5106 0.872803C63.6587 1.02091 63.7328 1.20076 63.7328 1.41235C63.7328 1.61971 63.6587 1.79956 63.5106 1.9519C63.3625 2.10002 63.1826 2.17407 62.971 2.17407Z" fill="#896B6E"/>
<path d="M65.339 10.3372V3.49438H66.4435V4.52271H66.545C66.7185 4.15877 66.9682 3.87736 67.2941 3.67847C67.6199 3.47534 68.0346 3.37378 68.5382 3.37378C69.3084 3.37378 69.8987 3.59383 70.3092 4.03394C70.7239 4.46981 70.9313 5.09399 70.9313 5.90649V10.3372H69.8268V6.1731C69.8268 5.55526 69.6956 5.09823 69.4332 4.802C69.1751 4.50155 68.7731 4.35132 68.2272 4.35132C67.8632 4.35132 67.548 4.42961 67.2814 4.58618C67.0148 4.74276 66.8074 4.96493 66.6593 5.25269C66.5154 5.54045 66.4435 5.88534 66.4435 6.28735V10.3372H65.339Z" fill="#896B6E"/>
<path d="M75.4891 12.7493C74.939 12.7493 74.4587 12.671 74.0482 12.5144C73.6377 12.3621 73.3098 12.1441 73.0643 11.8606C72.8231 11.5813 72.6729 11.2555 72.6136 10.8831L72.6263 10.8767H73.7689L73.7753 10.8831C73.8345 11.1412 74.0122 11.3528 74.3085 11.5178C74.6047 11.6871 74.9982 11.7717 75.4891 11.7717C76.1027 11.7717 76.5809 11.6321 76.9237 11.3528C77.2707 11.0777 77.4442 10.6884 77.4442 10.1848V8.80103H77.3426C77.1988 9.0507 77.0189 9.2644 76.8031 9.44214C76.5873 9.61987 76.3439 9.75529 76.0731 9.84839C75.8023 9.93726 75.5103 9.98169 75.1971 9.98169C74.6089 9.98169 74.099 9.84204 73.6674 9.56274C73.2399 9.27922 72.9099 8.88989 72.6771 8.39478C72.4444 7.89966 72.328 7.3326 72.328 6.6936V6.68091C72.328 6.04191 72.4444 5.47485 72.6771 4.97974C72.9141 4.48039 73.2484 4.08895 73.68 3.80542C74.1117 3.51766 74.6258 3.37378 75.2225 3.37378C75.5441 3.37378 75.8404 3.42456 76.1112 3.52612C76.382 3.62769 76.6211 3.77157 76.8285 3.95776C77.0401 4.14396 77.2157 4.36613 77.3553 4.62427H77.4315V3.49438H78.536V10.2419C78.536 10.7498 78.4112 11.192 78.1615 11.5686C77.916 11.9452 77.5648 12.2351 77.1078 12.4382C76.6507 12.6456 76.1112 12.7493 75.4891 12.7493ZM75.4383 9.00415C75.8615 9.00415 76.2233 8.90682 76.5238 8.71216C76.8285 8.51326 77.0612 8.24032 77.222 7.89331C77.3871 7.54631 77.4696 7.1464 77.4696 6.6936V6.68091C77.4696 6.22811 77.3871 5.82609 77.222 5.47485C77.0612 5.12362 76.8285 4.84855 76.5238 4.64966C76.2233 4.45076 75.8615 4.35132 75.4383 4.35132C75.0152 4.35132 74.6555 4.45076 74.3592 4.64966C74.0673 4.84855 73.843 5.12362 73.6864 5.47485C73.534 5.82609 73.4579 6.22811 73.4579 6.68091V6.6936C73.4579 7.1464 73.534 7.54631 73.6864 7.89331C73.843 8.24032 74.0673 8.51326 74.3592 8.71216C74.6555 8.90682 75.0152 9.00415 75.4383 9.00415Z" fill="#896B6E"/>
<path d="M82.6813 10.4578C82.1735 10.4578 81.7249 10.3816 81.3356 10.2292C80.9463 10.0727 80.6331 9.85474 80.3961 9.57544C80.1634 9.29614 80.0258 8.96818 79.9835 8.59155H81.1134C81.2065 8.87508 81.3885 9.1036 81.6593 9.2771C81.9301 9.4506 82.2835 9.53735 82.7194 9.53735C83.0283 9.53735 83.2991 9.49292 83.5319 9.40405C83.7688 9.31095 83.955 9.18612 84.0905 9.02954C84.2259 8.86873 84.2936 8.68465 84.2936 8.47729V8.4646C84.2936 8.23185 84.2005 8.03507 84.0143 7.87427C83.8281 7.70923 83.5234 7.57593 83.1002 7.47437L82.0402 7.22046C81.6128 7.1189 81.2615 6.98771 80.9865 6.8269C80.7114 6.66187 80.5083 6.46086 80.3771 6.22388C80.2459 5.98267 80.1803 5.69914 80.1803 5.37329V5.36694C80.1803 4.98608 80.2903 4.64543 80.5104 4.34497C80.7347 4.04451 81.0394 3.80754 81.4244 3.63403C81.8095 3.46053 82.2433 3.37378 82.7257 3.37378C83.2039 3.37378 83.6271 3.44995 83.9952 3.60229C84.3676 3.75041 84.666 3.962 84.8903 4.23706C85.1188 4.51213 85.2584 4.83586 85.3092 5.20825H84.2238C84.1518 4.93742 83.9868 4.71737 83.7286 4.5481C83.4705 4.37882 83.1341 4.29419 82.7194 4.29419C82.4485 4.29419 82.2073 4.33862 81.9957 4.42749C81.7841 4.51213 81.617 4.63062 81.4943 4.78296C81.3715 4.9353 81.3102 5.11304 81.3102 5.31616V5.32886C81.3102 5.4812 81.3504 5.61662 81.4308 5.73511C81.5112 5.8536 81.636 5.95728 81.8053 6.04614C81.9746 6.13501 82.1925 6.2133 82.4591 6.28101L83.5128 6.53491C84.1561 6.69149 84.6342 6.91577 84.9474 7.20776C85.2648 7.49976 85.4235 7.89119 85.4235 8.38208V8.39478C85.4235 8.80103 85.3029 9.16073 85.0617 9.47388C84.8204 9.7828 84.4925 10.024 84.0778 10.1975C83.6673 10.371 83.2018 10.4578 82.6813 10.4578Z" fill="#896B6E"/>
</svg>
