<svg width="149" height="23" viewBox="0 0 149 23" fill="none" xmlns="http://www.w3.org/2000/svg">
<path d="M5.4021 19.1333V4.76611H0.316162V2.22314H13.4998V4.76611H8.41382V19.1333H5.4021Z" fill="#2C0D10"/>
<path d="M17.9473 19.3794C16.7129 19.3794 15.6426 19.1216 14.7363 18.606C13.8379 18.0825 13.1387 17.3364 12.6387 16.3677C12.1465 15.3911 11.9004 14.231 11.9004 12.8872V12.8638C11.9004 11.5278 12.1504 10.3755 12.6504 9.40674C13.1504 8.43799 13.8535 7.69189 14.7598 7.16846C15.666 6.64502 16.7246 6.3833 17.9355 6.3833C19.1543 6.3833 20.2168 6.64502 21.123 7.16846C22.0293 7.69189 22.7324 8.43799 23.2324 9.40674C23.7324 10.3677 23.9824 11.52 23.9824 12.8638V12.8872C23.9824 14.2388 23.7324 15.3989 23.2324 16.3677C22.7402 17.3364 22.041 18.0825 21.1348 18.606C20.2363 19.1216 19.1738 19.3794 17.9473 19.3794ZM17.9473 17.0239C18.5801 17.0239 19.123 16.8638 19.5762 16.5435C20.0293 16.2153 20.3808 15.7427 20.6308 15.1255C20.8808 14.5083 21.0058 13.7622 21.0058 12.8872V12.8638C21.0058 11.9966 20.8808 11.2583 20.6308 10.6489C20.3808 10.0317 20.0254 9.56299 19.5644 9.24268C19.1035 8.91455 18.5605 8.75049 17.9355 8.75049C17.3183 8.75049 16.7793 8.91455 16.3183 9.24268C15.8574 9.56299 15.5019 10.0317 15.2519 10.6489C15.0019 11.2583 14.8769 11.9966 14.8769 12.8638V12.8872C14.8769 13.7622 15.0019 14.5083 15.2519 15.1255C15.5019 15.7427 15.8574 16.2153 16.3183 16.5435C16.7793 16.8638 17.3223 17.0239 17.9473 17.0239Z" fill="#2C0D10"/>
<path d="M30.5041 19.3442C29.176 19.3442 28.1955 19.0669 27.5627 18.5122C26.9377 17.9497 26.6252 17.0317 26.6252 15.7583V8.89111H24.8205V6.64111H26.6252V3.48877H29.5901V6.64111H31.969V8.89111H29.5901V15.4419C29.5901 16.0591 29.7229 16.4888 29.9885 16.731C30.2541 16.9653 30.6604 17.0825 31.2073 17.0825C31.3635 17.0825 31.5002 17.0786 31.6174 17.0708C31.7346 17.0552 31.8518 17.0435 31.969 17.0356V19.2271C31.7893 19.2583 31.5744 19.2856 31.3244 19.3091C31.0744 19.3325 30.801 19.3442 30.5041 19.3442Z" fill="#2C0D10"/>
<path d="M37.4008 19.3442C36.5727 19.3442 35.8462 19.188 35.2212 18.8755C34.5962 18.5552 34.1079 18.1138 33.7563 17.5513C33.4048 16.981 33.229 16.3247 33.229 15.5825V15.5591C33.229 14.8169 33.4126 14.1802 33.7798 13.6489C34.1548 13.1099 34.6938 12.688 35.3969 12.3833C36.1079 12.0708 36.9633 11.8833 37.9633 11.8208L42.7212 11.5396V13.4614L38.3852 13.7427C37.6508 13.7817 37.0883 13.9497 36.6977 14.2466C36.3149 14.5435 36.1235 14.9419 36.1235 15.4419V15.4653C36.1235 15.9731 36.3188 16.3755 36.7094 16.6724C37.1079 16.9692 37.6274 17.1177 38.268 17.1177C38.8305 17.1177 39.3344 17.0044 39.7798 16.7778C40.2251 16.5513 40.5766 16.2427 40.8344 15.8521C41.0923 15.4536 41.2212 15.0083 41.2212 14.5161V10.7192C41.2212 10.0942 41.0219 9.60596 40.6235 9.25439C40.2329 8.89502 39.6626 8.71533 38.9126 8.71533C38.2251 8.71533 37.6743 8.85596 37.2602 9.13721C36.8462 9.41064 36.5844 9.77393 36.4751 10.2271L36.4516 10.3208H33.7446L33.7563 10.1919C33.8266 9.45752 34.0766 8.80518 34.5063 8.23486C34.9438 7.66455 35.5454 7.21533 36.311 6.88721C37.0766 6.55127 37.979 6.3833 39.018 6.3833C40.0727 6.3833 40.979 6.55518 41.7368 6.89893C42.5024 7.24268 43.0923 7.72705 43.5063 8.35205C43.9282 8.97705 44.1391 9.71143 44.1391 10.5552V19.1333H41.2212V17.2466H41.1391C40.9048 17.6763 40.5962 18.0513 40.2133 18.3716C39.8383 18.6841 39.4126 18.9263 38.936 19.0981C38.4594 19.2622 37.9477 19.3442 37.4008 19.3442Z" fill="#2C0D10"/>
<path d="M46.5476 19.1333V2.0708H49.4655V19.1333H46.5476Z" fill="#2C0D10"/>
<path d="M63.1418 18.8872C61.9855 18.8872 60.9465 18.7075 60.0246 18.3481C59.1105 17.981 58.3762 17.4497 57.8215 16.7544C57.2746 16.0591 56.9699 15.2271 56.9074 14.2583L56.8957 14.1294L59.6262 14.1177L59.6496 14.2349C59.7277 14.6724 59.8996 15.0708 60.1652 15.4302C60.4387 15.7817 60.8215 16.0591 61.3137 16.2622C61.8059 16.4575 62.4348 16.5552 63.2004 16.5552C63.9738 16.5552 64.5988 16.4614 65.0754 16.2739C65.5598 16.0786 65.9113 15.813 66.1301 15.4771C66.3566 15.1411 66.4699 14.7622 66.4699 14.3403V14.3286C66.4699 13.7661 66.2785 13.3091 65.8957 12.9575C65.5129 12.606 64.7863 12.3091 63.716 12.0669L61.8527 11.645C60.8371 11.4185 59.9855 11.1099 59.298 10.7192C58.6105 10.3286 58.091 9.84033 57.7394 9.25439C57.3879 8.66064 57.2121 7.96143 57.2121 7.15674V7.1333C57.2121 6.18799 57.4621 5.36768 57.9621 4.67236C58.4699 3.96924 59.1691 3.42627 60.0598 3.04346C60.9504 2.66064 61.966 2.46924 63.1066 2.46924C64.2394 2.46924 65.2433 2.65674 66.1183 3.03174C66.9933 3.39893 67.6887 3.92627 68.2043 4.61377C68.7199 5.30127 69.0129 6.11377 69.0832 7.05127L69.0949 7.21533H66.3644L66.3527 7.1333C66.2902 6.6333 66.1144 6.21143 65.8254 5.86768C65.5441 5.51611 65.173 5.25049 64.7121 5.0708C64.2512 4.89111 63.716 4.80127 63.1066 4.80127C62.4348 4.80127 61.8684 4.90283 61.4074 5.10596C60.9543 5.30127 60.6105 5.55908 60.3762 5.87939C60.1418 6.19971 60.0246 6.55127 60.0246 6.93408V6.9458C60.0246 7.28955 60.1066 7.59814 60.2707 7.87158C60.4426 8.14502 60.716 8.38721 61.091 8.59814C61.4738 8.80908 61.9777 8.98486 62.6027 9.12549L64.4777 9.54736C66.0637 9.89893 67.2629 10.4263 68.0754 11.1294C68.8879 11.8325 69.2941 12.813 69.2941 14.0708V14.0825C69.2941 15.1138 69.0207 15.9888 68.4738 16.7075C67.9348 17.4185 67.2004 17.9614 66.2707 18.3364C65.341 18.7036 64.298 18.8872 63.1418 18.8872ZM62.4973 20.8325V0.523926H63.7746V20.8325H62.4973Z" fill="#2C0D10"/>
<path d="M71.8666 19.1333V17.0708L77.7612 11.2817C78.5112 10.5474 79.0815 9.94189 79.4721 9.46533C79.8627 8.98096 80.1323 8.54736 80.2807 8.16455C80.4291 7.78174 80.5033 7.3833 80.5033 6.96924V6.93408C80.5033 6.42627 80.3862 5.97705 80.1518 5.58643C79.9174 5.1958 79.5893 4.89111 79.1674 4.67236C78.7533 4.4458 78.269 4.33252 77.7143 4.33252C77.0971 4.33252 76.5502 4.46143 76.0737 4.71924C75.5971 4.96924 75.2221 5.31299 74.9487 5.75049C74.683 6.18018 74.5463 6.67236 74.5385 7.22705L74.5268 7.29736H71.7143L71.7026 7.22705C71.7026 6.18799 71.9643 5.27002 72.4877 4.47314C73.019 3.66846 73.7377 3.03955 74.644 2.58643C75.5502 2.1333 76.5776 1.90674 77.726 1.90674C78.851 1.90674 79.8432 2.11768 80.7026 2.53955C81.5698 2.95361 82.2455 3.52783 82.7299 4.26221C83.2221 4.98877 83.4682 5.81689 83.4682 6.74658V6.78174C83.4682 7.43799 83.3471 8.05908 83.1049 8.64502C82.8705 9.22314 82.4682 9.85596 81.8979 10.5435C81.3276 11.2231 80.5424 12.0474 79.5424 13.0161L74.8432 17.4927L75.8744 15.6294V17.4927L74.8549 16.6606H83.726V19.1333H71.8666Z" fill="#2C0D10"/>
<path d="M92.029 19.4263C90.7946 19.4263 89.7165 19.2231 88.7946 18.8169C87.8727 18.4028 87.1423 17.8325 86.6032 17.106C86.0641 16.3794 85.7555 15.5435 85.6774 14.5981L85.6657 14.4575H88.5485L88.5602 14.5747C88.6227 15.0356 88.7985 15.4458 89.0876 15.8052C89.3844 16.1646 89.7829 16.4497 90.2829 16.6606C90.7829 16.8638 91.3649 16.9653 92.029 16.9653C92.6852 16.9653 93.2555 16.856 93.7399 16.6372C94.2321 16.4106 94.611 16.1021 94.8766 15.7114C95.1501 15.313 95.2868 14.856 95.2868 14.3403V14.3169C95.2868 13.4263 94.9782 12.7427 94.361 12.2661C93.7438 11.7896 92.8962 11.5513 91.818 11.5513H89.8141V9.30127H91.7477C92.3727 9.30127 92.9157 9.19189 93.3766 8.97314C93.8454 8.75439 94.2087 8.45752 94.4665 8.08252C94.7243 7.69971 94.8532 7.26221 94.8532 6.77002V6.74658C94.8532 6.23096 94.7399 5.79346 94.5134 5.43408C94.2946 5.07471 93.9704 4.80127 93.5407 4.61377C93.1188 4.41846 92.6071 4.3208 92.0055 4.3208C91.4118 4.3208 90.8844 4.41846 90.4235 4.61377C89.9704 4.80908 89.6071 5.08643 89.3337 5.4458C89.0602 5.80518 88.8962 6.23096 88.8415 6.72314L88.8298 6.82861H86.029L86.0407 6.69971C86.1266 5.73877 86.4235 4.90283 86.9313 4.19189C87.4469 3.47314 88.1344 2.91846 88.9938 2.52783C89.861 2.12939 90.8649 1.93018 92.0055 1.93018C93.1696 1.93018 94.1813 2.11768 95.0407 2.49268C95.9001 2.85986 96.5641 3.37549 97.0329 4.03955C97.5094 4.6958 97.7477 5.46533 97.7477 6.34814V6.37158C97.7477 7.06689 97.5915 7.68408 97.279 8.22314C96.9743 8.75439 96.5524 9.1958 96.0134 9.54736C95.4821 9.89893 94.8766 10.145 94.1969 10.2856V10.3442C95.4469 10.4614 96.4509 10.8755 97.2087 11.5864C97.9665 12.2896 98.3454 13.2271 98.3454 14.3989V14.4224C98.3454 15.3989 98.0798 16.2661 97.5485 17.0239C97.0173 17.7817 96.2751 18.3716 95.3219 18.7935C94.3766 19.2153 93.279 19.4263 92.029 19.4263Z" fill="#2C0D10"/>
<path d="M99.6054 22.7661L100.543 16.4146H103.402L101.633 22.7661H99.6054Z" fill="#2C0D10"/>
<path d="M112.221 19.4497C111.291 19.4497 110.416 19.2817 109.596 18.9458C108.776 18.6099 108.049 18.0942 107.416 17.3989C106.791 16.7036 106.299 15.8169 105.94 14.7388C105.58 13.6606 105.401 12.3794 105.401 10.895V10.8716C105.401 8.99658 105.674 7.39111 106.221 6.05518C106.776 4.71143 107.569 3.68408 108.6 2.97314C109.631 2.26221 110.861 1.90674 112.291 1.90674C113.33 1.90674 114.268 2.09424 115.104 2.46924C115.947 2.83643 116.643 3.35205 117.19 4.01611C117.744 4.67236 118.108 5.42627 118.279 6.27783L118.303 6.40674H115.315L115.268 6.30127C115.119 5.91064 114.904 5.5708 114.623 5.28174C114.35 4.99268 114.014 4.77002 113.615 4.61377C113.225 4.45752 112.779 4.37939 112.279 4.37939C111.373 4.37939 110.635 4.64111 110.065 5.16455C109.494 5.68799 109.069 6.39111 108.787 7.27393C108.506 8.14893 108.346 9.12158 108.307 10.1919C108.299 10.2935 108.291 10.3989 108.283 10.5083C108.283 10.6099 108.283 10.7114 108.283 10.813L108.811 13.6138C108.811 14.2466 108.959 14.8169 109.256 15.3247C109.553 15.8325 109.955 16.2349 110.463 16.5317C110.979 16.8286 111.553 16.9771 112.186 16.9771C112.811 16.9771 113.377 16.8325 113.885 16.5435C114.401 16.2466 114.807 15.8481 115.104 15.3481C115.408 14.8481 115.561 14.2896 115.561 13.6724V13.6489C115.561 13.0083 115.416 12.4419 115.127 11.9497C114.838 11.4497 114.44 11.0591 113.932 10.7778C113.432 10.4966 112.861 10.356 112.221 10.356C111.58 10.356 111.002 10.4966 110.486 10.7778C109.971 11.0513 109.561 11.4341 109.256 11.9263C108.959 12.4106 108.811 12.9692 108.811 13.6021V13.6138H108.108V10.7075H108.377C108.604 10.2075 108.932 9.75439 109.361 9.34814C109.791 8.94189 110.311 8.62158 110.92 8.38721C111.537 8.14502 112.229 8.02393 112.994 8.02393C114.08 8.02393 115.037 8.26221 115.865 8.73877C116.701 9.21533 117.354 9.87158 117.822 10.7075C118.299 11.5435 118.537 12.4927 118.537 13.5552V13.5786C118.537 14.7192 118.264 15.731 117.717 16.6138C117.17 17.4966 116.42 18.1919 115.467 18.6997C114.522 19.1997 113.44 19.4497 112.221 19.4497Z" fill="#2C0D10"/>
<path d="M127.121 19.4497C125.957 19.4497 124.93 19.2349 124.039 18.8052C123.149 18.3755 122.438 17.7935 121.907 17.0591C121.383 16.3169 121.086 15.481 121.016 14.5513L121.004 14.3989H123.829L123.84 14.481C123.918 14.9497 124.106 15.3755 124.403 15.7583C124.7 16.1411 125.082 16.4419 125.551 16.6606C126.02 16.8794 126.547 16.9888 127.133 16.9888C127.805 16.9888 128.395 16.8481 128.903 16.5669C129.418 16.2778 129.821 15.8794 130.11 15.3716C130.399 14.8638 130.543 14.2817 130.543 13.6255V13.6021C130.543 12.9536 130.395 12.3794 130.098 11.8794C129.809 11.3794 129.411 10.9888 128.903 10.7075C128.395 10.4185 127.813 10.2739 127.157 10.2739C126.68 10.2739 126.235 10.3442 125.821 10.4849C125.407 10.6255 125.043 10.8325 124.731 11.106C124.567 11.2388 124.414 11.3872 124.274 11.5513C124.141 11.7075 124.024 11.8794 123.922 12.0669H121.297L122.106 2.22314H132.454V4.6958H124.52L124.039 9.80518H124.133C124.375 9.42236 124.684 9.09814 125.059 8.83252C125.442 8.56689 125.875 8.36377 126.36 8.22314C126.844 8.07471 127.364 8.00049 127.918 8.00049C128.989 8.00049 129.938 8.23877 130.766 8.71533C131.602 9.19189 132.258 9.84814 132.735 10.6841C133.211 11.52 133.45 12.4731 133.45 13.5435V13.5669C133.45 14.731 133.18 15.7544 132.641 16.6372C132.102 17.52 131.356 18.2114 130.403 18.7114C129.457 19.2036 128.364 19.4497 127.121 19.4497Z" fill="#2C0D10"/>
<path d="M141.835 19.4497C140.46 19.4497 139.276 19.0942 138.284 18.3833C137.299 17.6646 136.542 16.6528 136.01 15.3481C135.487 14.0356 135.225 12.481 135.225 10.6841V10.6606C135.225 8.86377 135.487 7.31299 136.01 6.0083C136.542 4.6958 137.299 3.68408 138.284 2.97314C139.276 2.26221 140.46 1.90674 141.835 1.90674C143.202 1.90674 144.378 2.26221 145.362 2.97314C146.354 3.68408 147.116 4.6958 147.647 6.0083C148.178 7.31299 148.444 8.86377 148.444 10.6606V10.6841C148.444 12.481 148.178 14.0356 147.647 15.3481C147.116 16.6528 146.354 17.6646 145.362 18.3833C144.378 19.0942 143.202 19.4497 141.835 19.4497ZM141.835 16.9888C142.585 16.9888 143.225 16.7349 143.756 16.2271C144.288 15.7192 144.694 14.9966 144.975 14.0591C145.256 13.1138 145.397 11.9888 145.397 10.6841V10.6606C145.397 9.34814 145.256 8.22705 144.975 7.29736C144.694 6.35986 144.288 5.64111 143.756 5.14111C143.225 4.6333 142.585 4.37939 141.835 4.37939C141.077 4.37939 140.432 4.6333 139.901 5.14111C139.37 5.64111 138.964 6.35986 138.682 7.29736C138.409 8.22705 138.272 9.34814 138.272 10.6606V10.6841C138.272 11.9888 138.409 13.1138 138.682 14.0591C138.964 14.9966 139.37 15.7192 139.901 16.2271C140.432 16.7349 141.077 16.9888 141.835 16.9888Z" fill="#2C0D10"/>
</svg>
