<svg width="105" height="28" viewBox="0 0 105 28" fill="none" xmlns="http://www.w3.org/2000/svg">
<path fill-rule="evenodd" clip-rule="evenodd" d="M5.53711 15.0369V27.358H0L0 6.03805L5.53711 6.03805V8.225C6.2081 7.40054 7.06115 6.74292 8.02922 6.30383C9.00539 5.85758 10.0734 5.63445 11.235 5.63445C13.3695 5.63445 15.0708 6.32352 16.3373 7.70164C17.6023 9.07976 18.2355 10.9435 18.2355 13.2945L18.2355 27.358L12.6968 27.358L12.6968 14.9155C12.6968 13.5898 12.4146 12.5776 11.847 11.8754C11.2793 11.1716 10.4573 10.8205 9.37453 10.8205C8.26711 10.8205 7.35 11.206 6.62484 11.9755C5.89969 12.7466 5.53711 13.767 5.53711 15.0369ZM31.6755 27.2776C30.7273 27.7222 29.6838 27.9453 28.5518 27.9453C26.4157 27.9453 24.7012 27.2513 23.4084 25.8617C22.1173 24.4721 21.4709 22.6182 21.4709 20.2984V6.22016L27.008 6.22016V19.0449C27.008 20.3131 27.2918 21.2762 27.8595 21.9373C28.4255 22.5985 29.2491 22.9283 30.3319 22.9283C30.8438 22.938 31.3518 22.8385 31.8223 22.6366C32.2927 22.4346 32.7147 22.1347 33.0602 21.7569C33.7985 20.9727 34.1677 19.962 34.1677 18.7217L34.1677 6.22016H39.7064V27.5007L34.1693 27.5007L34.1693 25.3154C33.4957 26.1481 32.6434 26.8187 31.6755 27.2776ZM49.117 0.642031L49.117 4.7518L43.2354 4.7518L43.2354 0.642031L49.117 0.642031ZM49.117 6.21852L49.117 27.3563H43.5291V6.21852H49.117ZM61.548 27.5696C60.7327 27.6254 60.1043 27.6516 59.6646 27.6516V27.6533C57.3891 27.6533 55.7484 27.1939 54.7444 26.2752C53.7387 25.358 53.235 23.888 53.235 21.8668L53.235 6.125L53.2514 2.4418L58.7114 0.0546875V6.125L62.9573 6.125V10.8582L58.7114 10.8582V20.6921C58.7114 21.4468 58.8902 21.9784 59.2462 22.2901C59.6039 22.6002 60.2995 22.756 61.3298 22.756C61.6078 22.7566 61.8857 22.7495 62.1633 22.7347C62.4012 22.7216 62.7588 22.6887 63.2346 22.6346L61.548 27.5696ZM80.3873 26.3129C78.7352 27.4006 76.819 27.9453 74.6419 27.9453C73.0833 27.9453 71.6445 27.673 70.327 27.1299C69.0359 26.6039 67.8788 25.7956 66.9408 24.7641C66.0253 23.7584 65.328 22.5739 64.8441 21.2155C64.3601 19.8537 64.1173 18.3739 64.1173 16.7694C64.1077 15.3031 64.3536 13.8463 64.8441 12.4644C65.3026 11.1614 66.0153 9.96244 66.9408 8.93703C67.8656 7.88799 69.0077 7.05273 70.2876 6.48922C71.5772 5.91828 72.9619 5.63281 74.4417 5.63281C77.3965 5.63281 79.7508 6.61719 81.4964 8.59086C83.2437 10.5612 84.1181 13.1518 84.1181 16.3592L84.1181 18.0327L69.5215 18.0327C69.7085 19.6651 70.2663 20.9431 71.1949 21.8668C72.1219 22.7921 73.2851 23.2548 74.6829 23.2548C75.81 23.2548 76.7714 22.9824 77.5655 22.4394C78.3579 21.8947 78.9157 21.1203 79.2389 20.113L83.9967 21.8274C83.2437 23.7305 82.0411 25.2252 80.3873 26.3129ZM69.7052 14.1477L78.5302 14.1477V14.146C78.5023 12.9041 78.1184 11.9082 77.3751 11.1601C76.6336 10.4103 75.6426 10.0362 74.4007 10.0362C73.2408 10.0362 72.2498 10.3906 71.4262 11.0961C70.6026 11.8016 70.0301 12.8187 69.7052 14.1477ZM101.271 26.3129C99.6171 27.4006 97.7009 27.9453 95.5237 27.9453C93.9652 27.9453 92.5263 27.673 91.2089 27.1299C89.9177 26.6039 88.7607 25.7956 87.8226 24.7641C86.9072 23.7584 86.2099 22.5739 85.7259 21.2155C85.2419 19.8537 85.0008 18.3739 85.0008 16.7694C84.9907 15.3032 85.2361 13.8464 85.7259 12.4644C86.1845 11.1614 86.8972 9.96244 87.8226 8.93703C88.7475 7.88799 89.8896 7.05273 91.1695 6.48922C92.4591 5.91828 93.8437 5.63281 95.3236 5.63281C98.28 5.63281 100.631 6.61719 102.378 8.59086C104.126 10.5612 105 13.1518 105 16.3592V18.0327L90.4034 18.0327C90.592 19.6651 91.1498 20.9431 92.0768 21.8668C93.0054 22.7921 94.1669 23.2548 95.5648 23.2548C96.6935 23.2548 97.6549 22.9824 98.449 22.4394C99.2414 21.8947 99.7976 21.1203 100.122 20.113L104.88 21.8274C104.126 23.7305 102.923 25.2252 101.271 26.3129ZM90.5887 14.1477L99.412 14.1477V14.146C99.3841 12.9041 99.0002 11.9082 98.2587 11.1601C97.5155 10.4103 96.5245 10.0362 95.2826 10.0362C94.1227 10.0362 93.1317 10.3906 92.3081 11.0961C91.4862 11.8016 90.9119 12.8187 90.5887 14.1477ZM78.8235 0.641884V3.92313H69.7049V0.641884L78.8235 0.641884Z" fill="#2C0D10"/>
</svg>
