<svg width="92" height="26" viewBox="0 0 92 26" fill="none" xmlns="http://www.w3.org/2000/svg">
<path fill-rule="evenodd" clip-rule="evenodd" d="M5.53732 13.8934V24.5091H0.766602L0.766602 6.14006H5.53732V8.02432C6.11543 7.31397 6.85041 6.74738 7.68449 6.36906C8.52555 5.98457 9.44577 5.79233 10.4466 5.79233C12.2856 5.79233 13.7514 6.38602 14.8427 7.5734C15.9325 8.76078 16.4782 10.3666 16.4782 12.3922V24.5091H11.706V13.7888C11.706 12.6466 11.4629 11.7745 10.9738 11.1695C10.4847 10.563 9.77654 10.2605 8.8436 10.2605C7.88946 10.2605 7.09929 10.5927 6.4745 11.2557C5.84971 11.92 5.53732 12.7993 5.53732 13.8934ZM28.0579 24.4398C27.2409 24.8229 26.3419 25.0151 25.3665 25.0151C23.5261 25.0151 22.0489 24.4172 20.9351 23.2199C19.8226 22.0227 19.2657 20.4254 19.2657 18.4266V6.29697H24.0364V17.3467C24.0364 18.4393 24.2809 19.2691 24.77 19.8387C25.2577 20.4084 25.9673 20.6925 26.9002 20.6925C27.3413 20.7009 27.779 20.6152 28.1843 20.4412C28.5897 20.2671 28.9533 20.0088 29.251 19.6832C29.887 19.0076 30.2051 18.1368 30.2051 17.0682V6.29697L34.9772 6.29697V24.6321H30.2065V22.7492C29.6261 23.4667 28.8918 24.0445 28.0579 24.4398ZM43.0853 1.49091V5.03184H38.0178V1.49091H43.0853ZM43.0853 6.29555V24.5077H38.2708V6.29555H43.0853ZM53.7958 24.6914C53.0932 24.7395 52.5518 24.7621 52.173 24.7621V24.7635C50.2124 24.7635 48.7989 24.3677 47.9338 23.5761C47.0673 22.786 46.6333 21.5194 46.6333 19.7779V6.21498L46.6475 3.04157L51.3517 0.984863V6.21498H55.01V10.2931H51.3517V18.7659C51.3517 19.4161 51.5058 19.8741 51.8126 20.1426C52.1207 20.4098 52.72 20.5441 53.6078 20.5441C53.8472 20.5446 54.0867 20.5385 54.3258 20.5257C54.5308 20.5144 54.839 20.4861 55.2489 20.4395L53.7958 24.6914ZM70.0275 23.6087C68.6041 24.5458 66.953 25.0151 65.0773 25.0151C63.7344 25.0151 62.4947 24.7805 61.3596 24.3126C60.2472 23.8594 59.2503 23.163 58.4421 22.2743C57.6533 21.4078 57.0526 20.3872 56.6356 19.2168C56.2186 18.0435 56.0094 16.7685 56.0094 15.3861C56.0011 14.1227 56.213 12.8676 56.6356 11.6769C57.0306 10.5543 57.6447 9.52128 58.4421 8.6378C59.2389 7.73395 60.2229 7.0143 61.3257 6.52879C62.4368 6.03687 63.6298 5.79092 64.9048 5.79092C67.4506 5.79092 69.479 6.63904 70.9831 8.33954C72.4885 10.0372 73.2419 12.2692 73.2419 15.0327V16.4745L60.6656 16.4745C60.8267 17.881 61.3073 18.9821 62.1074 19.7779C62.9061 20.5752 63.9083 20.9738 65.1126 20.9738C66.0837 20.9738 66.912 20.7392 67.5962 20.2713C68.2789 19.802 68.7595 19.1348 69.038 18.2669L73.1373 19.744C72.4885 21.3837 71.4524 22.6715 70.0275 23.6087ZM60.8239 13.1272L68.4274 13.1272V13.1258C68.4033 12.0558 68.0726 11.1977 67.4322 10.5532C66.7933 9.90716 65.9395 9.58487 64.8695 9.58487C63.8701 9.58487 63.0163 9.8902 62.3067 10.498C61.5971 11.1058 61.1038 11.9822 60.8239 13.1272ZM88.0205 23.6087C86.5957 24.5458 84.9446 25.0151 83.0689 25.0151C81.726 25.0151 80.4863 24.7805 79.3512 24.3126C78.2388 23.8594 77.2419 23.163 76.4337 22.2743C75.6449 21.4078 75.0442 20.3872 74.6272 19.2168C74.2102 18.0435 74.0024 16.7685 74.0024 15.3861C73.9937 14.1228 74.2051 12.8676 74.6272 11.6769C75.0223 10.5543 75.6363 9.52128 76.4337 8.6378C77.2305 7.73395 78.2145 7.0143 79.3173 6.52879C80.4284 6.03687 81.6214 5.79092 82.8964 5.79092C85.4436 5.79092 87.4692 6.63904 88.9747 8.33954C90.4801 10.0372 91.2335 12.2692 91.2335 15.0327V16.4745H78.6572C78.8198 17.881 79.3004 18.9821 80.099 19.7779C80.8991 20.5752 81.8999 20.9738 83.1042 20.9738C84.0767 20.9738 84.9051 20.7392 85.5892 20.2713C86.272 19.802 86.7512 19.1348 87.031 18.2669L91.1303 19.744C90.4801 21.3837 89.444 22.6715 88.0205 23.6087ZM78.8169 13.1272H86.419V13.1258C86.3949 12.0558 86.0642 11.1977 85.4252 10.5532C84.7849 9.90716 83.9311 9.58487 82.8611 9.58487C81.8617 9.58487 81.0079 9.8902 80.2983 10.498C79.5901 11.1058 79.0954 11.9822 78.8169 13.1272ZM68.68 1.49104V4.31813H60.8235V1.49104H68.68Z" fill="#2C0D10"/>
</svg>
